{
.appVersion = "1032";
copyright = "Copyright (c) 2002-2011, David J. Perry (hospes02@scholarsfonts.net)";
customParameters = (
{
name = vendorID;
value = FSFS;
},
{
name = trademark;
value = "Cardo is a trademark of David J. Perry.";
}
);
date = "2005-10-24 04:35:45 +0000";
designer = "David J. Perry";
designerURL = "http://scholarsfonts.net";
disablesAutomaticAlignment = 1;
disablesNiceNames = 1;
familyName = Cardo;
featurePrefixes = (
{

glyphs = (
{
glyphname = A;
lastChange = "2017-06-09 15:50:33 +0000";
layers = (
{
anchors = (
{
name = "Anchor-1";
position = "{150, 0}";
}
);
layerId = "CB1E75F3-3DD4-4E31-8468-5A6CAC277236";
paths = (
{
closed = 1;
nodes = (
"532 8 LINE SMOOTH",
"532 0 OFFCURVE",
"524 0 QCURVE SMOOTH",
"13 0 LINE SMOOTH",
"5 0 OFFCURVE",
"5 8 QCURVE SMOOTH",
"5 32 LINE SMOOTH",
"5 40 OFFCURVE",
"18.5 40.5 QCURVE SMOOTH",
"155.252 45.565 OFFCURVE",
"203 186 QCURVE SMOOTH",
"611 1367 LINE SMOOTH",
"612 1369 OFFCURVE",
"612 1372 QCURVE SMOOTH",
"601 1405 LINE",
"601 1410 OFFCURVE",
"605 1410 QCURVE SMOOTH",
"805 1410 LINE",
"807 1409 OFFCURVE",
"814 1407 OFFCURVE",
"816 1402 QCURVE SMOOTH",
"1239 215 LINE",
"1253 188 OFFCURVE",
"1270 144 OFFCURVE",
"1281 125.5 QCURVE SMOOTH",
"1304.84 85.41 OFFCURVE",
"1360 63 QCURVE",
"1406 40 OFFCURVE",
"1444 40 QCURVE SMOOTH",
"1452 40 OFFCURVE",
"1452 31 QCURVE SMOOTH",
"1452 8 LINE SMOOTH",
"1452 0 OFFCURVE",
"1444 0 QCURVE SMOOTH",
"832 0 LINE SMOOTH",
"824 0 OFFCURVE",
"824 8 QCURVE SMOOTH",
"824 32 LINE SMOOTH",
"824 40.39 OFFCURVE",
"898 44 OFFCURVE",
"922 46.5 QCURVE SMOOTH",
"1061 60.979 OFFCURVE",
"1061 140 QCURVE SMOOTH",
"1061 146 OFFCURVE",
"1059 154 QCURVE SMOOTH",
"908 580 LINE SMOOTH",
"907 582 OFFCURVE",
"904.5 589 QCURVE SMOOTH",
"892.357 623 OFFCURVE",
"862 623 QCURVE SMOOTH",
"507 623 LINE SMOOTH",
"477 623 OFFCURVE",
"460.5 590 QCURVE SMOOTH",
"457 583 OFFCURVE",
"457 582 QCURVE SMOOTH",
"307 143 LINE",
"307 134 LINE SMOOTH",
"307 107.674 OFFCURVE",
"333.5 87.337 QCURVE SMOOTH",
"395.182 40 OFFCURVE",
"498 40 QCURVE SMOOTH",
"524 40 LINE SMOOTH",
"532 40 OFFCURVE",
"532 32 QCURVE SMOOTH"
);
},
{
closed = 1;
nodes = (
"828 734 LINE SMOOTH",
"846 734 OFFCURVE",
"846 749 QCURVE SMOOTH",
"846 757 OFFCURVE",
"842 767 QCURVE SMOOTH",
"693 1177 LINE SMOOTH",
"683 1204 OFFCURVE",
"678 1204 QCURVE SMOOTH",
"672.769 1204 OFFCURVE",
"662 1176 QCURVE",
"522 767 LINE SMOOTH",
"518 757 OFFCURVE",
"518 734 OFFCURVE",
"533 734 QCURVE SMOOTH"
);
}
);
width = 1457;
}
);
unicode = 0041;
},
{
glyphname = Aringacute;
lastChange = "2017-06-09 15:50:33 +0000";
layers = (
{
layerId = "CB1E75F3-3DD4-4E31-8468-5A6CAC277236";
paths = (
{
closed = 1;
nodes = (
"608 1814 LINE",
"608 1817 OFFCURVE",
"611 1820 QCURVE SMOOTH",
"837 2004 LINE",
"864.692 2028 OFFCURVE",
"917 2028 OFFCURVE",
"947 1991 OFFCURVE",
"947 1965.5 QCURVE SMOOTH",
"947 1920.83 OFFCURVE",
"883 1893 QCURVE SMOOTH",
"630 1781 LINE SMOOTH",
"630 1780 OFFCURVE",
"622 1780 OFFCURVE",
"620 1784 QCURVE SMOOTH"
);
},
{
closed = 1;
nodes = (
"563 1600 QCURVE SMOOTH",
"563 1660.42 OFFCURVE",
"648.439 1748 OFFCURVE",
"710 1748 QCURVE SMOOTH",
"770 1748 OFFCURVE",
"857 1661 OFFCURVE",
"857 1600 QCURVE SMOOTH",
"857 1538.44 OFFCURVE",
"769.425 1453 OFFCURVE",
"710 1453 QCURVE SMOOTH",
"649 1453 OFFCURVE",
"563 1539 OFFCURVE"
);
},
{
closed = 1;
nodes = (
"718 1692 QCURVE SMOOTH",
"649.471 1692 OFFCURVE",
"626 1635 QCURVE SMOOTH",
"619 1618 OFFCURVE",
"619 1562 OFFCURVE",
"671 1509 OFFCURVE",
"709 1509 QCURVE SMOOTH",
"747 1509 OFFCURVE",
"801 1563 OFFCURVE",
"801 1600 QCURVE SMOOTH",
"801 1637 OFFCURVE",
"746 1692 OFFCURVE"
);
},
{
closed = 1;
nodes = (
"532 8 LINE SMOOTH",
"532 0 OFFCURVE",
"524 0 QCURVE SMOOTH",
"13 0 LINE SMOOTH",
"5 0 OFFCURVE",
"5 8 QCURVE SMOOTH",
"5 32 LINE SMOOTH",
"5 40 OFFCURVE",
"18.5 40.5 QCURVE SMOOTH",
"155.252 45.565 OFFCURVE",
"203 186 QCURVE SMOOTH",
"611 1367 LINE SMOOTH",
"612 1369 OFFCURVE",
"612 1372 QCURVE SMOOTH",
"601 1405 LINE",
"601 1410 OFFCURVE",
"605 1410 QCURVE SMOOTH",
"805 1410 LINE",
"807 1409 OFFCURVE",
"814 1407 OFFCURVE",
"816 1402 QCURVE SMOOTH",
"1239 215 LINE",
"1253 188 OFFCURVE",
"1270 144 OFFCURVE",
"1281 125.5 QCURVE SMOOTH",
"1304.84 85.41 OFFCURVE",
"1360 63 QCURVE",
"1406 40 OFFCURVE",
"1444 40 QCURVE SMOOTH",
"1452 40 OFFCURVE",
"1452 31 QCURVE SMOOTH",
"1452 8 LINE SMOOTH",
"1452 0 OFFCURVE",
"1444 0 QCURVE SMOOTH",
"832 0 LINE SMOOTH",
"824 0 OFFCURVE",
"824 8 QCURVE SMOOTH",
"824 32 LINE SMOOTH",
"824 40.39 OFFCURVE",
"898 44 OFFCURVE",
"922 46.5 QCURVE SMOOTH",
"1061 60.979 OFFCURVE",
"1061 140 QCURVE SMOOTH",
"1061 146 OFFCURVE",
"1059 154 QCURVE SMOOTH",
"908 580 LINE SMOOTH",
"907 582 OFFCURVE",
"904.5 589 QCURVE SMOOTH",
"892.357 623 OFFCURVE",
"862 623 QCURVE SMOOTH",
"507 623 LINE SMOOTH",
"477 623 OFFCURVE",
"460.5 590 QCURVE SMOOTH",
"457 583 OFFCURVE",
"457 582 QCURVE SMOOTH",
"307 143 LINE",
"307 134 LINE SMOOTH",
"307 107.674 OFFCURVE",
"333.5 87.337 QCURVE SMOOTH",
"395.182 40 OFFCURVE",
"498 40 QCURVE SMOOTH",
"524 40 LINE SMOOTH",
"532 40 OFFCURVE",
"532 32 QCURVE SMOOTH"
);
},
{
closed = 1;
nodes = (
"828 734 LINE SMOOTH",
"846 734 OFFCURVE",
"846 749 QCURVE SMOOTH",
"846 757 OFFCURVE",
"842 767 QCURVE SMOOTH",
"693 1177 LINE SMOOTH",
"683 1204 OFFCURVE",
"678 1204 QCURVE SMOOTH",
"672.769 1204 OFFCURVE",
"662 1176 QCURVE",
"522 767 LINE SMOOTH",
"518 757 OFFCURVE",
"518 734 OFFCURVE",
"533 734 QCURVE SMOOTH"
);
}
);
width = 1457;
}
);
unicode = 01FA;
},
{
glyphname = AE;
lastChange = "2017-06-09 15:50:33 +0000";
layers = (
{
anchors = (
{
name = "Anchor-1";
position = "{435, 0}";
}
);
layerId = "CB1E75F3-3DD4-4E31-8468-5A6CAC277236";
paths = (
{
closed = 1;
nodes = (
"518 0 QCURVE SMOOTH",
"16 0 LINE SMOOTH",
"4 0 OFFCURVE",
"0 10 OFFCURVE",
"0 36.864 OFFCURVE",
"37.4 52.164 OFFCURVE",
"101 64 OFFCURVE",
"134 89 OFFCURVE",
"160 123 OFFCURVE",
"183 165 OFFCURVE",
"322 386 OFFCURVE",
"510 692 OFFCURVE",
"580 806 QCURVE SMOOTH",
"746.471 1077.11 OFFCURVE",
"864 1274.86 OFFCURVE",
"864 1335.67 OFFCURVE",
"808 1373 OFFCURVE",
"769 1373 QCURVE SMOOTH",
"661 1373 LINE SMOOTH",
"658 1373 OFFCURVE",
"648 1384 OFFCURVE",
"648 1390 QCURVE SMOOTH",
"648 1410 OFFCURVE",
"666 1410 QCURVE SMOOTH",
"1697 1410 LINE SMOOTH",
"1715 1410 OFFCURVE",
"1731 1396 OFFCURVE",
"1733 1374 QCURVE SMOOTH",
"1751 1085 LINE SMOOTH",
"1751 1075 OFFCURVE",
"1721 1075 OFFCURVE",
"1714.5 1084 QCURVE SMOOTH",
"1707.61 1093.54 OFFCURVE",
"1689.19 1219.83 OFFCURVE",
"1639.37 1304.14 OFFCURVE",
"1576 1315 QCURVE",
"1159 1315 LINE SMOOTH",
"1146 1315 OFFCURVE",
"1146 1302 QCURVE SMOOTH",
"1146 784 LINE SMOOTH",
"1146 774 OFFCURVE",
"1156 774 QCURVE SMOOTH",
"1502 774 LINE SMOOTH",
"1626 774 OFFCURVE",
"1626 930 QCURVE SMOOTH",
"1626 938 OFFCURVE",
"1634 938 QCURVE SMOOTH",
"1658 938 LINE SMOOTH",
"1666 938 OFFCURVE",
"1666 930 QCURVE SMOOTH",
"1666 502 LINE SMOOTH",
"1666 494 OFFCURVE",
"1658 494 QCURVE SMOOTH",
"1634 494 LINE SMOOTH",
"1626 494 OFFCURVE",
"1626 502 QCURVE SMOOTH",
"1626 649.816 OFFCURVE",
"1540.5 672.5 QCURVE SMOOTH",
"1516 679 OFFCURVE",
"1489 679 QCURVE SMOOTH",
"1156 679 LINE SMOOTH",
"1146 679 OFFCURVE",
"1146 669 QCURVE SMOOTH",
"1146 183 LINE SMOOTH",
"1146 108.35 OFFCURVE",
"1215 98 QCURVE SMOOTH",
"1235 95 OFFCURVE",
"1257 95 QCURVE SMOOTH",
"1590 95 LINE SMOOTH",
"1692.53 95 OFFCURVE",
"1750 186 QCURVE SMOOTH",
"1791.36 251.488 OFFCURVE",
"1800 335 QCURVE SMOOTH",
"1803 363 OFFCURVE",
"1830 363 QCURVE SMOOTH",
"1842 363 OFFCURVE",
"1842 350 QCURVE",
"1809 14 LINE",
"1803.4 0 OFFCURVE",
"1795 0 QCURVE SMOOTH",
"680 0 LINE SMOOTH",
"650 0 OFFCURVE",
"650 41.273 OFFCURVE",
"726 47 OFFCURVE",
"774 48 QCURVE SMOOTH",
"951 51.688 OFFCURVE",
"951 178 QCURVE SMOOTH",
"951 623 LINE",
"631 623 LINE SMOOTH",
"604.692 623 OFFCURVE",
"581.5 589.5 QCURVE SMOOTH",
"577 583 OFFCURVE",
"576 582 QCURVE SMOOTH",
"311 143 LINE",
"308 134 OFFCURVE",
"308 116 QCURVE SMOOTH",
"308 78.818 OFFCURVE",
"388 57 QCURVE SMOOTH",
"433.6 44.564 OFFCURVE",
"512 41 QCURVE",
"536 36.2 OFFCURVE",
"536 0 OFFCURVE"
);
},
{
closed = 1;
nodes = (
"635 750 LINE",
"626 733.125 OFFCURVE",
"626 729 QCURVE SMOOTH",
"626 716 OFFCURVE",
"658 716 QCURVE SMOOTH",
"951 716 LINE",
"951 1185 LINE",
"944 1204 OFFCURVE",
"940 1204 QCURVE SMOOTH",
"931.429 1204 OFFCURVE",
"900.844 1187.53 OFFCURVE",
"897 1176 QCURVE"
);
}
);
width = 1930;
}
);
unicode = 00C6;
},
{
glyphname = B;
lastChange = "2017-06-09 15:50:33 +0000";
layers = (
{
anchors = (
{
name = "Anchor-1";
position = "{150, 0}";
}
);
layerId = "CB1E75F3-3DD4-4E31-8468-5A6CAC277236";
paths = (
{
closed = 1;
nodes = (
"18 0 LINE SMOOTH",
"10 0 OFFCURVE",
"10 8 QCURVE SMOOTH",
"10 32 LINE SMOOTH",
"10 40 OFFCURVE",
"23.5 40 QCURVE SMOOTH",
"71.364 40 OFFCURVE",
"127.5 49.5 QCURVE SMOOTH",
"311 80.554 OFFCURVE",
"311 176 QCURVE SMOOTH",
"311 1231 LINE",
"300.958 1359.04 OFFCURVE",
"194.5 1370.5 QCURVE SMOOTH",
"162 1374 OFFCURVE",
"123 1374 QCURVE SMOOTH",
"66 1374 LINE SMOOTH",
"58 1374 OFFCURVE",
"58 1382 QCURVE SMOOTH",
"58 1407 LINE SMOOTH",
"58 1415 OFFCURVE",
"66 1415 QCURVE SMOOTH",
"110 1416 LINE",
"282 1417 LINE",
"638 1428 LINE",
"1210 1428 OFFCURVE",
"1210 1090 QCURVE SMOOTH",
"1210 947.2 OFFCURVE",
"1061.5 851.5 QCURVE SMOOTH",
"1039 837 OFFCURVE",
"1006 823 OFFCURVE",
"1004 822 QCURVE",
"1136.32 747.717 OFFCURVE",
"1287 564.192 OFFCURVE",
"1287 436 QCURVE SMOOTH",
"1287 163.439 OFFCURVE",
"1029 55.5 QCURVE SMOOTH",
"896.341 0 OFFCURVE",
"740 0 QCURVE SMOOTH"
);
},
{
closed = 1;
nodes = (
"524 780 LINE SMOOTH",
"511 780 OFFCURVE",
"511 769 QCURVE SMOOTH",
"511 221 LINE SMOOTH",
"511 149.806 OFFCURVE",
"644 64 OFFCURVE",
"721 64 QCURVE SMOOTH",
"868.588 64 OFFCURVE",
"1077 274.583 OFFCURVE",
"1077 584.481 OFFCURVE",
"854.151 780 OFFCURVE",
"683 780 QCURVE SMOOTH"
);
},
{
closed = 1;
nodes = (
"509 861 LINE SMOOTH",
"509 842 OFFCURVE",
"532 842 QCURVE SMOOTH",
"778 842 LINE SMOOTH",
"873.879 842 OFFCURVE",
"1005 983.869 OFFCURVE",
"1005 1071.93 QCURVE SMOOTH",
"1005 1229.14 OFFCURVE",
"827.391 1370 OFFCURVE",
"679 1370 QCURVE",
"634.429 1367.43 OFFCURVE",
"598.714 1367.43 OFFCURVE",
"561 1368 OFFCURVE",
"523 1362 OFFCURVE",
"509 1342 OFFCURVE",
"509 1319 QCURVE SMOOTH"
);
}
);
width = 1392;
}
);
unicode = 0042;
},
{
glyphname = C;
lastChange = "2017-06-09 15:50:33 +0000";
layers = (
{
anchors = (
{
name = "Anchor-1";
position = "{280, 0}";
}
);
layerId = "CB1E75F3-3DD4-4E31-8468-5A6CAC277236";
paths = (
{
closed = 1;
nodes = (
"1345 38 LINE",
"1339.6 29.906 OFFCURVE",
"1301.33 39 OFFCURVE",
"1249 39 OFFCURVE",
"1154 18 OFFCURVE",
"949.625 -27 OFFCURVE",
"865.812 -27 QCURVE SMOOTH",
"676 -27 OFFCURVE",
"318.963 151.519 OFFCURVE",
"105 480.692 OFFCURVE",
"105 914.765 OFFCURVE",
"212 1091 QCURVE SMOOTH",
"368.4 1348.6 OFFCURVE",
"682 1427 QCURVE SMOOTH",
"782 1452 OFFCURVE",
"882.5 1452 QCURVE SMOOTH",
"1019.46 1452 OFFCURVE",
"1207 1406 QCURVE SMOOTH",
"1263.86 1392.05 OFFCURVE",
"1343.09 1362 OFFCURVE",
"1352 1362 QCURVE",
"1382 1370 LINE",
"1413 1370 LINE SMOOTH",
"1425 1370 OFFCURVE",
"1425 1353 QCURVE SMOOTH",
"1425 1042 LINE SMOOTH",
"1425 1032 OFFCURVE",
"1388.6 1032 OFFCURVE",
"1383 1041 OFFCURVE",
"1377 1054 OFFCURVE",
"1370 1068 OFFCURVE",
"1363 1080 OFFCURVE",
"1362 1083 QCURVE SMOOTH",
"1211.5 1384 OFFCURVE",
"907 1384 QCURVE SMOOTH",
"632.143 1384 OFFCURVE",
"322 1034.31 OFFCURVE",
"322 456.639 OFFCURVE",
"663.015 43 OFFCURVE",
"956 43 QCURVE SMOOTH",
"1115.7 43 OFFCURVE",
"1378.55 233.414 OFFCURVE",
"1454 371 QCURVE SMOOTH",
"1456.4 377 OFFCURVE",
"1466 377 QCURVE SMOOTH",
"1479 377 LINE SMOOTH",
"1489 377 OFFCURVE",
"1489 352.8 OFFCURVE",
"1483 342 QCURVE SMOOTH"
);
}
);
width = 1566;
}
);
unicode = 0043;
},
{
glyphname = Ccedilla;
lastChange = "2017-06-09 15:50:33 +0000";
layers = (
{
layerId = "CB1E75F3-3DD4-4E31-8468-5A6CAC277236";
paths = (
{
closed = 1;
nodes = (
"564 -532 QCURVE",
"508 -532 OFFCURVE",
"508 -489 QCURVE SMOOTH",
"508 -470 OFFCURVE",
"538 -460 OFFCURVE",
"584 -452 OFFCURVE",
"677.207 -434.414 OFFCURVE",
"764 -379.182 OFFCURVE",
"764 -280.255 OFFCURVE",
"663.741 -220.527 OFFCURVE",
"614 -215 QCURVE",
"772 -19 LINE",
"484.778 16.128 OFFCURVE",
"105 404.298 OFFCURVE",
"105 696 QCURVE SMOOTH",
"105 914.765 OFFCURVE",
"212 1091 QCURVE SMOOTH",
"368.4 1348.6 OFFCURVE",
"682 1427 QCURVE SMOOTH",
"782 1452 OFFCURVE",
"882.5 1452 QCURVE SMOOTH",
"1019.46 1452 OFFCURVE",
"1207 1406 QCURVE SMOOTH",
"1263.86 1392.05 OFFCURVE",
"1343.09 1362 OFFCURVE",
"1352 1362 QCURVE",
"1382 1370 LINE",
"1413 1370 LINE SMOOTH",
"1425 1370 OFFCURVE",
"1425 1353 QCURVE SMOOTH",
"1425 1042 LINE SMOOTH",
"1425 1032 OFFCURVE",
"1388.6 1032 OFFCURVE",
"1383 1041 OFFCURVE",
"1377 1054 OFFCURVE",
"1370 1068 OFFCURVE",
"1363 1080 OFFCURVE",
"1362 1083 QCURVE SMOOTH",
"1211.5 1384 OFFCURVE",
"907 1384 QCURVE SMOOTH",
"632.143 1384 OFFCURVE",
"322 1034.31 OFFCURVE",
"322 456.639 OFFCURVE",
"663.015 43 OFFCURVE",
"956 43 QCURVE SMOOTH",
"1115.7 43 OFFCURVE",
"1378.55 233.414 OFFCURVE",
"1454 371 QCURVE SMOOTH",
"1456.4 377 OFFCURVE",
"1466 377 QCURVE SMOOTH",
"1479 377 LINE SMOOTH",
"1489 377 OFFCURVE",
"1489 352.8 OFFCURVE",
"1483 342 QCURVE SMOOTH",
"1345 38 LINE",
"1340.33 31 OFFCURVE",
"1332 31 QCURVE",
"1277.33 45.262 OFFCURVE",
"1154 18 OFFCURVE",
"949.625 -27 OFFCURVE",
"887 -27 QCURVE SMOOTH",
"866 -27 LINE",
"757 -154 LINE",
"828.702 -173.237 OFFCURVE",
"897 -269.281 OFFCURVE",
"897 -305 QCURVE",
"880.538 -499.255 OFFCURVE"
);
}
);
width = 1566;
}
);
unicode = 00C7;
},
{
glyphname = D;
lastChange = "2017-06-09 15:50:33 +0000";
layers = (
{
anchors = (
{
name = "Anchor-1";
position = "{180, 0}";
}
);
layerId = "CB1E75F3-3DD4-4E31-8468-5A6CAC277236";
paths = (
{
closed = 1;
nodes = (
"45 1405 LINE SMOOTH",
"45 1413 OFFCURVE",
"53 1413 QCURVE SMOOTH",
"75 1413 LINE",
"396 1420 LINE SMOOTH",
"454 1422 OFFCURVE",
"521.5 1422 QCURVE SMOOTH",
"647 1422 LINE SMOOTH",
"821.429 1422 OFFCURVE",
"996 1396 OFFCURVE",
"1165 1361 OFFCURVE",
"1356 1237 OFFCURVE",
"1425.5 1149 QCURVE SMOOTH",
"1574 960.971 OFFCURVE",
"1574 743.187 QCURVE SMOOTH",
"1574 525.402 OFFCURVE",
"1460.5 352.5 QCURVE SMOOTH",
"1295.65 101.379 OFFCURVE",
"985 24.5 QCURVE SMOOTH",
"886 0 OFFCURVE",
"782 0 QCURVE SMOOTH",
"53 0 LINE SMOOTH",
"45 0 OFFCURVE",
"45 8 QCURVE SMOOTH",
"45 36 LINE SMOOTH",
"45 44 OFFCURVE",
"53 44 QCURVE SMOOTH",
"75 44 LINE SMOOTH",
"257 44 OFFCURVE",
"257 160 QCURVE SMOOTH",
"257 1256 LINE SMOOTH",
"257 1312.22 OFFCURVE",
"213.889 1340.61 QCURVE SMOOTH",
"170.778 1369 OFFCURVE",
"117 1369 QCURVE SMOOTH",
"53 1369 LINE SMOOTH",
"45 1369 OFFCURVE",
"45 1377 QCURVE SMOOTH"
);
},
{
closed = 1;
nodes = (
"477 1375 LINE SMOOTH",
"452 1375 OFFCURVE",
"452 1348 QCURVE SMOOTH",
"452 125 LINE SMOOTH",
"452 51.39 OFFCURVE",
"591 48 QCURVE SMOOTH",
"632 47 OFFCURVE",
"677 47 QCURVE SMOOTH",
"996.414 47 OFFCURVE",
"1178.71 226.203 QCURVE SMOOTH",
"1361 405.407 OFFCURVE",
"1361 702.835 QCURVE SMOOTH",
"1361 1000.26 OFFCURVE",
"1192.69 1187.63 QCURVE SMOOTH",
"1024.37 1375 OFFCURVE",
"749 1375 QCURVE SMOOTH"
);
}
);
width = 1664;
}
);
unicode = 0044;
},
{
glyphname = Eth;
lastChange = "2017-06-09 15:50:33 +0000";
layers = (
{
anchors = (
{
name = "Anchor-1";
position = "{180, 0}";
}
);
layerId = "CB1E75F3-3DD4-4E31-8468-5A6CAC277236";
paths = (
{
closed = 1;
nodes = (
"77 44 LINE SMOOTH",
"259 44 OFFCURVE",
"259 160 QCURVE SMOOTH",
"259 664 LINE",
"60 664 LINE SMOOTH",
"39 664 OFFCURVE",
"39 689 QCURVE SMOOTH",
"39 725 LINE SMOOTH",
"39 750 OFFCURVE",
"60 750 QCURVE SMOOTH",
"259 750 LINE",
"259 1256 LINE SMOOTH",
"259 1312.22 OFFCURVE",
"215.889 1340.61 QCURVE SMOOTH",
"172.778 1369 OFFCURVE",
"119 1369 QCURVE SMOOTH",
"55 1369 LINE SMOOTH",
"47 1369 OFFCURVE",
"47 1377 QCURVE SMOOTH",
"47 1405 LINE SMOOTH",
"47 1413 OFFCURVE",
"55 1413 QCURVE SMOOTH",
"77 1413 LINE",
"398 1420 LINE SMOOTH",
"456 1422 OFFCURVE",
"523.5 1422 QCURVE SMOOTH",
"649 1422 LINE SMOOTH",
"823.429 1422 OFFCURVE",
"998 1396 OFFCURVE",
"1167 1361 OFFCURVE",
"1358 1237 OFFCURVE",
"1427.5 1149 QCURVE SMOOTH",
"1576 960.971 OFFCURVE",
"1576 744.345 QCURVE SMOOTH",
"1576 527.72 OFFCURVE",
"1462.5 358 QCURVE SMOOTH",
"1302.97 119.445 OFFCURVE",
"986 33 QCURVE SMOOTH",
"887 6 OFFCURVE",
"784 0 QCURVE",
"55 0 LINE SMOOTH",
"47 0 OFFCURVE",
"47 8 QCURVE SMOOTH",
"47 36 LINE SMOOTH",
"47 44 OFFCURVE",
"55 44 QCURVE SMOOTH"
);
},
{
closed = 1;
nodes = (
"803 689 LINE SMOOTH",
"803 664 OFFCURVE",
"782 664 QCURVE SMOOTH",
"454 664 LINE",
"454 125 LINE SMOOTH",
"454 51.39 OFFCURVE",
"593 48 QCURVE SMOOTH",
"634 47 OFFCURVE",
"679 47 QCURVE SMOOTH",
"998.414 47 OFFCURVE",
"1180.71 226.203 QCURVE SMOOTH",
"1363 405.407 OFFCURVE",
"1363 702.835 QCURVE SMOOTH",
"1363 1000.26 OFFCURVE",
"1194.69 1187.63 QCURVE SMOOTH",
"1026.37 1375 OFFCURVE",
"751 1375 QCURVE SMOOTH",
"479 1375 LINE SMOOTH",
"454 1375 OFFCURVE",
"454 1348 QCURVE SMOOTH",
"454 750 LINE",
"782 750 LINE SMOOTH",
"803 750 OFFCURVE",
"803 725 QCURVE SMOOTH"
);
}
);
width = 1664;
}
);
unicode = 0189;
},
{
glyphname = E;
lastChange = "2017-06-09 15:50:33 +0000";
layers = (
{
anchors = (
{
name = "Anchor-1";
position = "{60, 0}";
}
);
layerId = "CB1E75F3-3DD4-4E31-8468-5A6CAC277236";
paths = (
{
closed = 1;
nodes = (
"7 8 QCURVE SMOOTH",
"7 36 LINE SMOOTH",
"7 44 OFFCURVE",
"15 44 QCURVE SMOOTH",
"37 44 LINE",
"79 47 OFFCURVE",
"167 48 OFFCURVE",
"203 58.5 QCURVE SMOOTH",
"285 82.417 OFFCURVE",
"285 178 QCURVE SMOOTH",
"285 1232 LINE SMOOTH",
"285 1330.91 OFFCURVE",
"168 1357.5 QCURVE SMOOTH",
"135 1365 OFFCURVE",
"101 1370 QCURVE",
"80 1370 LINE SMOOTH",
"72 1370 OFFCURVE",
"72 1378 QCURVE SMOOTH",
"72 1402 LINE SMOOTH",
"72 1410 OFFCURVE",
"80 1410 QCURVE SMOOTH",
"1031 1410 LINE SMOOTH",
"1049 1410 OFFCURVE",
"1065 1397 OFFCURVE",
"1067 1375 QCURVE SMOOTH",
"1085 1085 LINE SMOOTH",
"1085 1075 OFFCURVE",
"1055 1075 OFFCURVE",
"1048.5 1084 QCURVE SMOOTH",
"1041.61 1093.54 OFFCURVE",
"1023.19 1219.83 OFFCURVE",
"973.374 1304.14 OFFCURVE",
"910 1315 QCURVE",
"493 1315 LINE SMOOTH",
"480 1315 OFFCURVE",
"480 1302 QCURVE SMOOTH",
"480 785 LINE SMOOTH",
"480 775 OFFCURVE",
"490 775 QCURVE SMOOTH",
"836 775 LINE SMOOTH",
"970 775 OFFCURVE",
"970 931 QCURVE SMOOTH",
"970 939 OFFCURVE",
"978 939 QCURVE SMOOTH",
"1002 939 LINE SMOOTH",
"1010 939 OFFCURVE",
"1010 931 QCURVE SMOOTH",
"1010 503 LINE SMOOTH",
"1010 495 OFFCURVE",
"1002 495 QCURVE SMOOTH",
"978 495 LINE SMOOTH",
"970 495 OFFCURVE",
"970 503 QCURVE SMOOTH",
"970 650.816 OFFCURVE",
"884.5 673.5 QCURVE SMOOTH",
"860 680 OFFCURVE",
"833 680 QCURVE SMOOTH",
"490 680 LINE SMOOTH",
"480 680 OFFCURVE",
"480 670 QCURVE SMOOTH",
"480 183 LINE SMOOTH",
"480 108.35 OFFCURVE",
"549 98 QCURVE SMOOTH",
"569 95 OFFCURVE",
"591 95 QCURVE SMOOTH",
"924 95 LINE SMOOTH",
"1026.53 95 OFFCURVE",
"1084 186 QCURVE SMOOTH",
"1125.36 251.488 OFFCURVE",
"1134 335 QCURVE SMOOTH",
"1137 363 OFFCURVE",
"1164 363 QCURVE SMOOTH",
"1176 363 OFFCURVE",
"1176 350 QCURVE",
"1143 14 LINE",
"1137.4 0 OFFCURVE",
"1129 0 QCURVE SMOOTH",
"15 0 LINE SMOOTH",
"7 0 OFFCURVE"
);
}
);
width = 1264;
}
);
unicode = 0045;
},
{
glyphname = F;
lastChange = "2017-06-09 15:50:33 +0000";
layers = (
{
anchors = (
{
name = "Anchor-1";
position = "{-180, 0}";
}
);
layerId = "CB1E75F3-3DD4-4E31-8468-5A6CAC277236";
paths = (
{
closed = 1;
nodes = (
"858 809 LINE SMOOTH",
"992 809 OFFCURVE",
"992 940 QCURVE SMOOTH",
"992 948 OFFCURVE",
"1000 948 QCURVE SMOOTH",
"1024 948 LINE SMOOTH",
"1032 948 OFFCURVE",
"1032 940 QCURVE SMOOTH",
"1032 568 LINE SMOOTH",
"1032 560 OFFCURVE",
"1024 560 QCURVE SMOOTH",
"1000 560 LINE SMOOTH",
"992 560 OFFCURVE",
"992 568 QCURVE SMOOTH",
"992 660.333 OFFCURVE",
"940 695 QCURVE SMOOTH",
"911.5 714 OFFCURVE",
"860 714 QCURVE SMOOTH",
"466 714 LINE SMOOTH",
"442 714 OFFCURVE",
"442 687 QCURVE SMOOTH",
"442 173 LINE SMOOTH",
"442 105.2 OFFCURVE",
"605 40 OFFCURVE",
"648 40 OFFCURVE",
"648 32 QCURVE SMOOTH",
"648 8 LINE SMOOTH",
"648 0 OFFCURVE",
"640 0 QCURVE SMOOTH",
"94 0 LINE SMOOTH",
"86 0 OFFCURVE",
"86 8 QCURVE SMOOTH",
"86 32 LINE SMOOTH",
"86 40 OFFCURVE",
"119.75 40 OFFCURVE",
"192 72 OFFCURVE",
"247 135 OFFCURVE",
"247 180 QCURVE SMOOTH",
"247 1260 LINE SMOOTH",
"247 1324.57 OFFCURVE",
"178.5 1353 QCURVE SMOOTH",
"137.545 1370 OFFCURVE",
"99 1370 QCURVE SMOOTH",
"95 1370 LINE SMOOTH",
"87 1370 OFFCURVE",
"87 1378 QCURVE SMOOTH",
"87 1402 LINE SMOOTH",
"87 1410 OFFCURVE",
"95 1410 QCURVE SMOOTH",
"1038 1410 LINE",
"1050 1408 OFFCURVE",
"1062 1401 OFFCURVE",
"1062 1387 QCURVE SMOOTH",
"1062 1145 LINE SMOOTH",
"1062 1133 OFFCURVE",
"1055 1127 OFFCURVE",
"1046 1127 QCURVE SMOOTH",
"1034 1127 LINE",
"1032 1128 OFFCURVE",
"1020.61 1181.69 QCURVE SMOOTH",
"1009.22 1235.37 OFFCURVE",
"985 1264 QCURVE",
"943.878 1308.06 OFFCURVE",
"892 1313 QCURVE SMOOTH",
"871 1315 OFFCURVE",
"841 1315 QCURVE SMOOTH",
"462 1315 LINE SMOOTH",
"442 1315 OFFCURVE",
"442 1295 QCURVE SMOOTH",
"442 832 LINE SMOOTH",
"442 809 OFFCURVE",
"466 809 QCURVE SMOOTH"
);
}
);
width = 1167;
}
);
unicode = 0046;
},
{
glyphname = G;
lastChange = "2017-06-09 15:50:33 +0000";
layers = (
{
anchors = (
{
name = "Anchor-1";
position = "{280, 0}";
}
);
layerId = "CB1E75F3-3DD4-4E31-8468-5A6CAC277236";
paths = (
{
closed = 1;
nodes = (
"1560 620 LINE SMOOTH",
"1571 620 OFFCURVE",
"1571 589.286 OFFCURVE",
"1560 583 QCURVE",
"1533 572 OFFCURVE",
"1476 556 OFFCURVE",
"1452 543 QCURVE SMOOTH",
"1397 513.208 OFFCURVE",
"1397 446 QCURVE SMOOTH",
"1397 121 LINE SMOOTH",
"1397 99.18 OFFCURVE",
"1186 25 OFFCURVE",
"1119.5 8.5 QCURVE SMOOTH",
"810.754 -68.106 OFFCURVE",
"568 24.5 QCURVE SMOOTH",
"289.033 130.921 OFFCURVE",
"173 407 QCURVE SMOOTH",
"115 545 OFFCURVE",
"115 818 OFFCURVE",
"142 911 QCURVE SMOOTH",
"224.416 1194.88 OFFCURVE",
"486.411 1348.24 QCURVE SMOOTH",
"656.833 1448 OFFCURVE",
"1034.29 1448 OFFCURVE",
"1246 1372 QCURVE SMOOTH",
"1285 1358 OFFCURVE",
"1290 1358 QCURVE SMOOTH",
"1302 1358 LINE",
"1342 1368 LINE",
"1367 1368 LINE SMOOTH",
"1378 1368 OFFCURVE",
"1378 1357 QCURVE SMOOTH",
"1378 1024 LINE SMOOTH",
"1378 1005 OFFCURVE",
"1356 1005 QCURVE SMOOTH",
"1352 1005 LINE",
"1332.83 1007.13 OFFCURVE",
"1325.5 1056 QCURVE SMOOTH",
"1324 1066 OFFCURVE",
"1323 1071 QCURVE SMOOTH",
"1223 1384 OFFCURVE",
"901 1384 QCURVE SMOOTH",
"643.195 1384 OFFCURVE",
"336 994.464 OFFCURVE",
"336 456.337 OFFCURVE",
"645.214 43 OFFCURVE",
"915 43 QCURVE SMOOTH",
"1053.55 43 OFFCURVE",
"1144.5 86.5 QCURVE SMOOTH",
"1179 103 OFFCURVE",
"1198 129 QCURVE",
"1198 403 LINE SMOOTH",
"1198 495.75 OFFCURVE",
"1091.78 583 OFFCURVE",
"950 583 QCURVE SMOOTH",
"939 583 OFFCURVE",
"939 620 OFFCURVE",
"950 620 QCURVE SMOOTH"
);
}
);
width = 1621;
}
);
unicode = 0047;
},
{
glyphname = Gbar;
lastChange = "2017-06-09 15:50:33 +0000";
layers = (
{
layerId = "CB1E75F3-3DD4-4E31-8468-5A6CAC277236";
paths = (
{
closed = 1;
nodes = (
"1378 1024 LINE SMOOTH",
"1378 1005 OFFCURVE",
"1356 1005 QCURVE SMOOTH",
"1352 1005 LINE",
"1332.83 1007.13 OFFCURVE",
"1325.5 1056 QCURVE SMOOTH",
"1324 1066 OFFCURVE",
"1323 1071 QCURVE SMOOTH",
"1223 1384 OFFCURVE",
"901 1384 QCURVE SMOOTH",
"643.195 1384 OFFCURVE",
"336 994.464 OFFCURVE",
"336 456.337 OFFCURVE",
"645.214 43 OFFCURVE",
"915 43 QCURVE SMOOTH",
"1053.55 43 OFFCURVE",
"1144.5 86.5 QCURVE SMOOTH",
"1179 103 OFFCURVE",
"1198 129 QCURVE",
"1198 294 LINE",
"855 294 LINE SMOOTH",
"834 294 OFFCURVE",
"834 319 QCURVE SMOOTH",
"834 355 LINE SMOOTH",
"834 380 OFFCURVE",
"855 380 QCURVE SMOOTH",
"1198 380 LINE",
"1198 403 LINE SMOOTH",
"1198 495.75 OFFCURVE",
"1091.78 583 OFFCURVE",
"950 583 QCURVE SMOOTH",
"939 583 OFFCURVE",
"939 620 OFFCURVE",
"950 620 QCURVE SMOOTH",
"1560 620 LINE SMOOTH",
"1571 620 OFFCURVE",
"1571 589.286 OFFCURVE",
"1560 583 QCURVE",
"1533 572 OFFCURVE",
"1476 556 OFFCURVE",
"1452 543 QCURVE SMOOTH",
"1397 513.208 OFFCURVE",
"1397 446 QCURVE SMOOTH",
"1397 380 LINE",
"1577 380 LINE SMOOTH",
"1598 380 OFFCURVE",
"1598 355 QCURVE SMOOTH",
"1598 319 LINE SMOOTH",
"1598 294 OFFCURVE",
"1577 294 QCURVE SMOOTH",
"1397 294 LINE",
"1397 121 LINE SMOOTH",
"1397 99.18 OFFCURVE",
"1186 25 OFFCURVE",
"1119.5 8.5 QCURVE SMOOTH",
"810.754 -68.106 OFFCURVE",
"568 24.5 QCURVE SMOOTH",
"289.033 130.921 OFFCURVE",
"173 407 QCURVE SMOOTH",
"115 545 OFFCURVE",
"115 818 OFFCURVE",
"142 911 QCURVE SMOOTH",
"224.416 1194.88 OFFCURVE",
"486.411 1348.24 QCURVE SMOOTH",
"656.833 1448 OFFCURVE",
"1034.29 1448 OFFCURVE",
"1246 1372 QCURVE SMOOTH",
"1285 1358 OFFCURVE",
"1290 1358 QCURVE SMOOTH",
"1302 1358 LINE",
"1342 1368 LINE",
"1367 1368 LINE SMOOTH",
"1378 1368 OFFCURVE",
"1378 1357 QCURVE SMOOTH"
);
}
);
width = 1621;
}
);
unicode = 01E4;
},
{
glyphname = uni021C;
lastChange = "2017-06-09 15:50:33 +0000";
layers = (
{
layerId = "CB1E75F3-3DD4-4E31-8468-5A6CAC277236";
paths = (
{
closed = 1;
nodes = (
"509 1452 QCURVE SMOOTH",
"825 1452 OFFCURVE",
"825 1186 QCURVE SMOOTH",
"825 1094.27 OFFCURVE",
"721.5 950 QCURVE SMOOTH",
"692.308 909.308 OFFCURVE",
"667 884 OFFCURVE",
"667 852.714 OFFCURVE",
"698.5 832.857 QCURVE SMOOTH",
"779.052 782.078 OFFCURVE",
"912 617.476 OFFCURVE",
"912 530.738 QCURVE SMOOTH",
"912 356.642 OFFCURVE",
"698.513 73.492 OFFCURVE",
"279.3 -24 OFFCURVE",
"205 -24 QCURVE",
"140 -26 LINE SMOOTH",
"130 -26 OFFCURVE",
"130 25 OFFCURVE",
"135 40 OFFCURVE",
"178.346 40 QCURVE SMOOTH",
"221.692 40 OFFCURVE",
"324.5 67 QCURVE SMOOTH",
"509.754 115.653 OFFCURVE",
"601 210.5 QCURVE SMOOTH",
"721 335.237 OFFCURVE",
"721 595.286 OFFCURVE",
"608.375 724 OFFCURVE",
"523 724 QCURVE SMOOTH",
"478.808 724 OFFCURVE",
"394 679 OFFCURVE",
"349 653 OFFCURVE",
"329 646 QCURVE",
"319 646 OFFCURVE",
"303 662 OFFCURVE",
"303 686 OFFCURVE",
"324 699 QCURVE SMOOTH",
"649 885.333 OFFCURVE",
"649 1130 QCURVE SMOOTH",
"649 1219.53 OFFCURVE",
"524.619 1357 OFFCURVE",
"447.81 1357 QCURVE SMOOTH",
"315.207 1357 OFFCURVE",
"174 1170.86 OFFCURVE",
"174 1050 QCURVE SMOOTH",
"174 1042 OFFCURVE",
"166 1042 QCURVE SMOOTH",
"111 1042 LINE SMOOTH",
"103 1042 OFFCURVE",
"103 1050 QCURVE SMOOTH",
"103 1446 LINE SMOOTH",
"103 1452 OFFCURVE",
"111 1452 QCURVE SMOOTH",
"158 1452 LINE SMOOTH",
"166 1452 OFFCURVE",
"166 1446 QCURVE SMOOTH",
"166 1415.91 OFFCURVE",
"196.244 1364 OFFCURVE",
"248 1364 OFFCURVE",
"295 1391 OFFCURVE",
"326.5 1407.5 QCURVE SMOOTH",
"411.455 1452 OFFCURVE"
);
}
);
width = 1023;
}
);
unicode = 021C;
},
{
glyphname = H;
lastChange = "2017-06-09 15:50:33 +0000";
layers = (
{
anchors = (
{
name = "Anchor-1";
position = "{265, 0}";
}
);
layerId = "CB1E75F3-3DD4-4E31-8468-5A6CAC277236";
paths = (
{
closed = 1;
nodes = (
"1457 181 LINE SMOOTH",
"1457 45.582 OFFCURVE",
"1644 40 QCURVE SMOOTH",
"1652 40 OFFCURVE",
"1652 32 QCURVE SMOOTH",
"1652 8 LINE SMOOTH",
"1652 0 OFFCURVE",
"1644 0 QCURVE SMOOTH",
"1008 0 LINE SMOOTH",
"1000 0 OFFCURVE",
"1000 8 QCURVE SMOOTH",
"1000 32 LINE SMOOTH",
"1000 40 OFFCURVE",
"1050 40 QCURVE SMOOTH",
"1100 40 OFFCURVE",
"1164.5 61.5 QCURVE SMOOTH",
"1262 94 OFFCURVE",
"1262 170 QCURVE SMOOTH",
"1262 647 LINE SMOOTH",
"1262 657 OFFCURVE",
"1256 663 OFFCURVE",
"1246 663 QCURVE SMOOTH",
"458 663 LINE SMOOTH",
"448 663 OFFCURVE",
"442 657 OFFCURVE",
"442 647 QCURVE SMOOTH",
"442 160 LINE SMOOTH",
"442 40 OFFCURVE",
"619 40 QCURVE SMOOTH",
"627 40 OFFCURVE",
"627 32 QCURVE SMOOTH",
"627 8 LINE SMOOTH",
"627 0 OFFCURVE",
"620 0 QCURVE SMOOTH",
"68 0 LINE SMOOTH",
"60 0 OFFCURVE",
"60 8 QCURVE SMOOTH",
"60 32 LINE SMOOTH",
"60 40 OFFCURVE",
"79.5 40 QCURVE SMOOTH",
"247 40 OFFCURVE",
"247 183 QCURVE SMOOTH",
"247 1250 LINE SMOOTH",
"247 1367.38 OFFCURVE",
"108 1374 QCURVE SMOOTH",
"87 1375 OFFCURVE",
"87 1383 QCURVE SMOOTH",
"87 1402 LINE SMOOTH",
"87 1410 OFFCURVE",
"94 1410 QCURVE SMOOTH",
"596 1410 LINE SMOOTH",
"604 1410 OFFCURVE",
"604 1402 QCURVE SMOOTH",
"604 1383 LINE SMOOTH",
"604 1377 OFFCURVE",
"585 1377 QCURVE SMOOTH",
"442 1377 OFFCURVE",
"442 1236 QCURVE SMOOTH",
"442 774 LINE SMOOTH",
"442 764 OFFCURVE",
"448 758 OFFCURVE",
"458 758 QCURVE SMOOTH",
"1246 758 LINE SMOOTH",
"1256 758 OFFCURVE",
"1262 764 OFFCURVE",
"1262 774 QCURVE SMOOTH",
"1262 1252 LINE",
"1260 1261 OFFCURVE",
"1259 1276 OFFCURVE",
"1256 1291.5 QCURVE SMOOTH",
"1249.32 1326 OFFCURVE",
"1121.06 1369.41 OFFCURVE",
"1040 1375 QCURVE SMOOTH",
"1032 1375 OFFCURVE",
"1032 1383 QCURVE SMOOTH",
"1032 1402 LINE SMOOTH",
"1032 1410 OFFCURVE",
"1039 1410 QCURVE SMOOTH",
"1616 1410 LINE SMOOTH",
"1624 1410 OFFCURVE",
"1624 1402 QCURVE SMOOTH",
"1624 1383 LINE SMOOTH",
"1624 1377 OFFCURVE",
"1605 1377 QCURVE SMOOTH",
"1457 1377 OFFCURVE",
"1457 1236 QCURVE SMOOTH"
);
}
);
width = 1712;
}
);
unicode = 0048;
},
{
glyphname = Hbar;
lastChange = "2017-06-09 15:50:33 +0000";
layers = (
{
layerId = "CB1E75F3-3DD4-4E31-8468-5A6CAC277236";
paths = (
{
closed = 1;
nodes = (
"1457 181 LINE SMOOTH",
"1457 45.582 OFFCURVE",
"1644 40 QCURVE SMOOTH",
"1652 40 OFFCURVE",
"1652 32 QCURVE SMOOTH",
"1652 8 LINE SMOOTH",
"1652 0 OFFCURVE",
"1644 0 QCURVE SMOOTH",
"1008 0 LINE SMOOTH",
"1000 0 OFFCURVE",
"1000 8 QCURVE SMOOTH",
"1000 32 LINE SMOOTH",
"1000 40 OFFCURVE",
"1050 40 QCURVE SMOOTH",
"1100 40 OFFCURVE",
"1164.5 61.5 QCURVE SMOOTH",
"1262 94 OFFCURVE",
"1262 170 QCURVE SMOOTH",
"1262 647 LINE SMOOTH",
"1262 657 OFFCURVE",
"1256 663 OFFCURVE",
"1246 663 QCURVE SMOOTH",
"458 663 LINE SMOOTH",
"448 663 OFFCURVE",
"442 657 OFFCURVE",
"442 647 QCURVE SMOOTH",
"442 160 LINE SMOOTH",
"442 40 OFFCURVE",
"619 40 QCURVE SMOOTH",
"627 40 OFFCURVE",
"627 32 QCURVE SMOOTH",
"627 8 LINE SMOOTH",
"627 0 OFFCURVE",
"620 0 QCURVE SMOOTH",
"68 0 LINE SMOOTH",
"60 0 OFFCURVE",
"60 8 QCURVE SMOOTH",
"60 32 LINE SMOOTH",
"60 40 OFFCURVE",
"79.5 40 QCURVE SMOOTH",
"247 40 OFFCURVE",
"247 183 QCURVE SMOOTH",
"247 1052 LINE",
"119 1052 LINE SMOOTH",
"77 1052 OFFCURVE",
"77 1077 QCURVE SMOOTH",
"77 1113 LINE SMOOTH",
"77 1138 OFFCURVE",
"119 1138 QCURVE SMOOTH",
"247 1138 LINE",
"247 1250 LINE SMOOTH",
"247 1367.38 OFFCURVE",
"108 1374 QCURVE SMOOTH",
"87 1375 OFFCURVE",
"87 1383 QCURVE SMOOTH",
"87 1402 LINE SMOOTH",
"87 1410 OFFCURVE",
"94 1410 QCURVE SMOOTH",
"596 1410 LINE SMOOTH",
"604 1410 OFFCURVE",
"604 1402 QCURVE SMOOTH",
"604 1383 LINE SMOOTH",
"604 1377 OFFCURVE",
"585 1377 QCURVE SMOOTH",
"442 1377 OFFCURVE",
"442 1236 QCURVE SMOOTH",
"442 1138 LINE",
"1262 1138 LINE",
"1262 1252 LINE",
"1260 1261 OFFCURVE",
"1259 1276 OFFCURVE",
"1256 1291.5 QCURVE SMOOTH",
"1249.32 1326 OFFCURVE",
"1121.06 1369.41 OFFCURVE",
"1040 1375 QCURVE SMOOTH",
"1032 1375 OFFCURVE",
"1032 1383 QCURVE SMOOTH",
"1032 1402 LINE SMOOTH",
"1032 1410 OFFCURVE",
"1039 1410 QCURVE SMOOTH",
"1616 1410 LINE SMOOTH",
"1624 1410 OFFCURVE",
"1624 1402 QCURVE SMOOTH",
"1624 1383 LINE SMOOTH",
"1624 1377 OFFCURVE",
"1605 1377 QCURVE SMOOTH",
"1457 1377 OFFCURVE",
"1457 1236 QCURVE SMOOTH",
"1457 1138 LINE",
"1583 1138 LINE SMOOTH",
"1624 1138 OFFCURVE",
"1624 1113 QCURVE SMOOTH",
"1624 1077 LINE SMOOTH",
"1624 1052 OFFCURVE",
"1583 1052 QCURVE SMOOTH",
"1457 1052 LINE"
);
},
{
closed = 1;
nodes = (
"442 774 LINE SMOOTH",
"442 764 OFFCURVE",
"448 758 OFFCURVE",
"458 758 QCURVE SMOOTH",
"1246 758 LINE SMOOTH",
"1256 758 OFFCURVE",
"1262 764 OFFCURVE",
"1262 774 QCURVE SMOOTH",
"1262 1052 LINE",
"442 1052 LINE"
);
}
);
width = 1712;
}
);
unicode = 0126;
},
{
glyphname = I;
lastChange = "2017-06-09 15:50:33 +0000";
layers = (
{
anchors = (
{
name = "Anchor-1";
position = "{-190, 0}";
}
);
layerId = "CB1E75F3-3DD4-4E31-8468-5A6CAC277236";
paths = (
{
closed = 1;
nodes = (
"252 1250 LINE SMOOTH",
"252 1370 OFFCURVE",
"113.5 1370 QCURVE SMOOTH",
"92 1370 OFFCURVE",
"92 1378 QCURVE SMOOTH",
"92 1402 LINE SMOOTH",
"92 1410 OFFCURVE",
"100 1410 QCURVE SMOOTH",
"601 1410 LINE SMOOTH",
"609 1410 OFFCURVE",
"609 1402 QCURVE SMOOTH",
"609 1378 LINE SMOOTH",
"609 1370 OFFCURVE",
"565 1370 QCURVE SMOOTH",
"521 1370 OFFCURVE",
"447 1314.5 OFFCURVE",
"447 1227 QCURVE SMOOTH",
"447 160 LINE SMOOTH",
"447 40 OFFCURVE",
"585.5 40 QCURVE SMOOTH",
"607 40 OFFCURVE",
"607 32 QCURVE SMOOTH",
"607 8 LINE SMOOTH",
"607 0 OFFCURVE",
"599 0 QCURVE SMOOTH",
"98 0 LINE SMOOTH",
"90 0 OFFCURVE",
"90 8 QCURVE SMOOTH",
"90 32 LINE SMOOTH",
"90 40 OFFCURVE",
"134 40 QCURVE SMOOTH",
"178 40 OFFCURVE",
"252 95.5 OFFCURVE",
"252 183 QCURVE SMOOTH"
);
}
);
width = 699;
}
);
unicode = 0049;
},
{
glyphname = J;
lastChange = "2017-06-09 15:50:33 +0000";
layers = (
{
anchors = (
{
name = "Anchor-1";
position = "{100, 0}";
}
);
layerId = "CB1E75F3-3DD4-4E31-8468-5A6CAC277236";
paths = (
{
closed = 1;
nodes = (
"603 1378 LINE SMOOTH",
"603 1370 OFFCURVE",
"520.6 1370 OFFCURVE",
"441 1313.14 OFFCURVE",
"441 1227 QCURVE SMOOTH",
"441 -10 LINE SMOOTH",
"441 -232.964 OFFCURVE",
"314.5 -425 QCURVE SMOOTH",
"226.968 -557.88 OFFCURVE",
"96.5 -612 QCURVE SMOOTH",
"29 -640 OFFCURVE",
"-113.714 -640 OFFCURVE",
"-250 -576.4 OFFCURVE",
"-250 -495.724 OFFCURVE",
"-186.292 -443 OFFCURVE",
"-118 -443 OFFCURVE",
"-74 -457 OFFCURVE",
"-41 -478 OFFCURVE",
"-16 -503 OFFCURVE",
"29 -538 OFFCURVE",
"67.5 -538 QCURVE SMOOTH",
"145.031 -538 OFFCURVE",
"226.151 -409.395 OFFCURVE",
"246 -234.364 OFFCURVE",
"246 -100 QCURVE SMOOTH",
"246 1250 LINE SMOOTH",
"246 1351.38 OFFCURVE",
"133 1365.5 QCURVE SMOOTH",
"97 1370 OFFCURVE",
"52 1370 QCURVE SMOOTH",
"44 1370 OFFCURVE",
"44 1378 QCURVE SMOOTH",
"44 1402 LINE SMOOTH",
"44 1410 OFFCURVE",
"52 1410 QCURVE SMOOTH",
"595 1410 LINE SMOOTH",
"603 1410 OFFCURVE",
"603 1402 QCURVE SMOOTH"
);
}
);
width = 693;
}
);
unicode = 004A;
},
{
glyphname = K;
lastChange = "2017-06-09 15:50:33 +0000";
layers = (
{
anchors = (
{
name = "Anchor-1";
position = "{180, 0}";
}
);
layerId = "CB1E75F3-3DD4-4E31-8468-5A6CAC277236";
paths = (
{
closed = 1;
nodes = (
"643 8 LINE SMOOTH",
"643 0 OFFCURVE",
"635 0 QCURVE SMOOTH",
"47 0 LINE SMOOTH",
"40 0 OFFCURVE",
"40 8 QCURVE SMOOTH",
"40 27 LINE SMOOTH",
"40 35 OFFCURVE",
"125.05 37.025 OFFCURVE",
"248 98.5 OFFCURVE",
"248 160 QCURVE SMOOTH",
"248 1250 LINE SMOOTH",
"248 1363.24 OFFCURVE",
"48 1375 QCURVE SMOOTH",
"40 1375 OFFCURVE",
"40 1383 QCURVE SMOOTH",
"40 1402 LINE SMOOTH",
"40 1410 OFFCURVE",
"47 1410 QCURVE SMOOTH",
"635 1410 LINE SMOOTH",
"643 1410 OFFCURVE",
"643 1402 QCURVE SMOOTH",
"643 1383 LINE SMOOTH",
"643 1377 OFFCURVE",
"559.714 1377 OFFCURVE",
"510 1353 QCURVE SMOOTH",
"443 1320.66 OFFCURVE",
"443 1248 QCURVE SMOOTH",
"443 807 LINE SMOOTH",
"443 719 OFFCURVE",
"460 719 QCURVE SMOOTH",
"502.544 719 OFFCURVE",
"635 828 OFFCURVE",
"737.113 943.811 OFFCURVE",
"840 1103 OFFCURVE",
"860 1131.5 QCURVE SMOOTH",
"935 1238.38 OFFCURVE",
"935 1344.6 OFFCURVE",
"889 1363 QCURVE SMOOTH",
"859 1375 OFFCURVE",
"803 1375 QCURVE SMOOTH",
"793 1375 LINE SMOOTH",
"785 1375 OFFCURVE",
"785 1383 QCURVE SMOOTH",
"785 1402 LINE SMOOTH",
"785 1410 OFFCURVE",
"793 1410 QCURVE SMOOTH",
"1371 1410 LINE SMOOTH",
"1379 1410 OFFCURVE",
"1379 1402 QCURVE SMOOTH",
"1379 1383 LINE SMOOTH",
"1379 1371 OFFCURVE",
"1367 1371 QCURVE SMOOTH",
"1238.58 1366.79 OFFCURVE",
"1121 1308 OFFCURVE",
"1050 1238 OFFCURVE",
"1008 1167 QCURVE SMOOTH",
"879.737 950.174 OFFCURVE",
"753.151 820.072 QCURVE SMOOTH",
"699.317 764.742 OFFCURVE",
"697 752 QCURVE",
"702.047 741.906 OFFCURVE",
"778.725 671.726 QCURVE SMOOTH",
"970.719 496.003 OFFCURVE",
"1182 195 QCURVE",
"1260.79 80.197 OFFCURVE",
"1389 53 QCURVE",
"1474 33 OFFCURVE",
"1519 33 OFFCURVE",
"1519 25 QCURVE SMOOTH",
"1519 8 LINE SMOOTH",
"1519 0 OFFCURVE",
"1511 0 QCURVE SMOOTH",
"857 0 LINE SMOOTH",
"849 0 OFFCURVE",
"849 8 QCURVE SMOOTH",
"849 27 LINE SMOOTH",
"849 35.213 OFFCURVE",
"883 38.106 QCURVE SMOOTH",
"996 47.723 OFFCURVE",
"996 104 QCURVE",
"989.443 159.738 OFFCURVE",
"795 381 QCURVE SMOOTH",
"760 420 OFFCURVE",
"721.5 467.5 QCURVE SMOOTH",
"569.526 655 OFFCURVE",
"472 655 QCURVE SMOOTH",
"453 655 LINE SMOOTH",
"443 655 OFFCURVE",
"443 641 QCURVE SMOOTH",
"443 173 LINE SMOOTH",
"443 33 OFFCURVE",
"635 33 QCURVE SMOOTH",
"643 33 OFFCURVE",
"643 25 QCURVE SMOOTH"
);
}
);
width = 1524;
}
);
unicode = 004B;
},
{
glyphname = L;
lastChange = "2017-06-09 15:50:33 +0000";
layers = (
{
anchors = (
{
name = "Anchor-1";
position = "{0, 0}";
}
);
layerId = "CB1E75F3-3DD4-4E31-8468-5A6CAC277236";
paths = (
{
closed = 1;
nodes = (
"48 0 LINE SMOOTH",
"40 0 OFFCURVE",
"40 8 QCURVE SMOOTH",
"40 32 LINE SMOOTH",
"40 40 OFFCURVE",
"48 40 QCURVE SMOOTH",
"72 40 LINE SMOOTH",
"158.31 40 OFFCURVE",
"222.5 76.5 QCURVE SMOOTH",
"248 91 OFFCURVE",
"282 154 OFFCURVE",
"282 193 QCURVE SMOOTH",
"282 1251 LINE SMOOTH",
"282 1313.48 OFFCURVE",
"202.5 1346.5 QCURVE SMOOTH",
"145.926 1370 OFFCURVE",
"83 1370 QCURVE SMOOTH",
"61 1370 LINE SMOOTH",
"53 1370 OFFCURVE",
"53 1378 QCURVE SMOOTH",
"53 1402 LINE SMOOTH",
"53 1410 OFFCURVE",
"61 1410 QCURVE SMOOTH",
"738 1410 LINE SMOOTH",
"746 1410 OFFCURVE",
"746 1402 QCURVE SMOOTH",
"746 1378 LINE SMOOTH",
"746 1370 OFFCURVE",
"738 1370 QCURVE SMOOTH",
"695 1370 LINE SMOOTH",
"592.091 1370 OFFCURVE",
"513 1341 QCURVE SMOOTH",
"490 1333 OFFCURVE",
"477 1296 OFFCURVE",
"477 1251 QCURVE SMOOTH",
"477 142 LINE",
"479 125 OFFCURVE",
"511 95 OFFCURVE",
"531 95 QCURVE SMOOTH",
"926 95 LINE SMOOTH",
"1014.75 95 OFFCURVE",
"1101 200 QCURVE SMOOTH",
"1124 228 OFFCURVE",
"1191.9 320.922 OFFCURVE",
"1199.95 326.961 QCURVE SMOOTH",
"1232 351.01 OFFCURVE",
"1232 326 QCURVE SMOOTH",
"1232 320 OFFCURVE",
"1229 314 QCURVE SMOOTH",
"1078 18 LINE SMOOTH",
"1069 0 OFFCURVE",
"1057 0 QCURVE SMOOTH"
);
}
);
width = 1239;
}
);
unicode = 004C;
},
{
glyphname = Lslash;
lastChange = "2017-06-09 15:50:33 +0000";
layers = (
{
layerId = "CB1E75F3-3DD4-4E31-8468-5A6CAC277236";
paths = (
{
closed = 1;
nodes = (
"41 32 LINE SMOOTH",
"41 40 OFFCURVE",
"49 40 QCURVE SMOOTH",
"73 40 LINE SMOOTH",
"159.31 40 OFFCURVE",
"223.5 76.5 QCURVE SMOOTH",
"249 91 OFFCURVE",
"283 154 OFFCURVE",
"283 193 QCURVE SMOOTH",
"283 595 LINE",
"120 481 LINE",
"115 476 OFFCURVE",
"93 476 OFFCURVE",
"85 487 QCURVE SMOOTH",
"64 516 LINE SMOOTH",
"59 524 OFFCURVE",
"59 544 OFFCURVE",
"71 552 QCURVE SMOOTH",
"283 700 LINE",
"283 1251 LINE SMOOTH",
"283 1313.48 OFFCURVE",
"203.5 1346.5 QCURVE SMOOTH",
"146.926 1370 OFFCURVE",
"84 1370 QCURVE SMOOTH",
"62 1370 LINE SMOOTH",
"54 1370 OFFCURVE",
"54 1378 QCURVE SMOOTH",
"54 1402 LINE SMOOTH",
"54 1410 OFFCURVE",
"62 1410 QCURVE SMOOTH",
"739 1410 LINE SMOOTH",
"747 1410 OFFCURVE",
"747 1402 QCURVE SMOOTH",
"747 1378 LINE SMOOTH",
"747 1370 OFFCURVE",
"739 1370 QCURVE SMOOTH",
"696 1370 LINE SMOOTH",
"593.091 1370 OFFCURVE",
"514 1341 QCURVE SMOOTH",
"491 1333 OFFCURVE",
"478 1296 OFFCURVE",
"478 1251 QCURVE SMOOTH",
"478 837 LINE",
"790 1055 LINE",
"795 1060 OFFCURVE",
"817 1060 OFFCURVE",
"825 1049 QCURVE SMOOTH",
"846 1020 LINE SMOOTH",
"848 1016 OFFCURVE",
"853 1010 OFFCURVE",
"853 993 OFFCURVE",
"839 984 QCURVE SMOOTH",
"478 731 LINE",
"478 142 LINE",
"480 125 OFFCURVE",
"512 95 OFFCURVE",
"532 95 QCURVE SMOOTH",
"927 95 LINE SMOOTH",
"1015.75 95 OFFCURVE",
"1102 200 QCURVE SMOOTH",
"1125 228 OFFCURVE",
"1192.9 320.922 OFFCURVE",
"1217 339 OFFCURVE",
"1233 339 OFFCURVE",
"1233 320 OFFCURVE",
"1230 314 QCURVE SMOOTH",
"1079 18 LINE SMOOTH",
"1070 0 OFFCURVE",
"1058 0 QCURVE SMOOTH",
"49 0 LINE SMOOTH",
"41 0 OFFCURVE",
"41 8 QCURVE SMOOTH"
);
}
);
width = 1239;
}
);
unicode = 0141;
},
{
glyphname = M;
lastChange = "2017-06-09 15:50:33 +0000";
layers = (
{
anchors = (
{
name = "Anchor-1";
position = "{325, 0}";
}
);
layerId = "CB1E75F3-3DD4-4E31-8468-5A6CAC277236";
paths = (
{
closed = 1;
nodes = (
"501 40 QCURVE SMOOTH",
"507 40 OFFCURVE",
"507 32 QCURVE SMOOTH",
"507 8 LINE SMOOTH",
"507 0 OFFCURVE",
"501 0 QCURVE SMOOTH",
"34 0 LINE SMOOTH",
"26 0 OFFCURVE",
"26 8 QCURVE SMOOTH",
"26 32 LINE SMOOTH",
"26 40 OFFCURVE",
"34 40 QCURVE SMOOTH",
"198.244 40 OFFCURVE",
"212 181 QCURVE SMOOTH",
"216 222 OFFCURVE",
"224.818 412.699 OFFCURVE",
"269 1044.24 OFFCURVE",
"269 1239 QCURVE SMOOTH",
"269 1276 LINE SMOOTH",
"269 1316.44 OFFCURVE",
"177.5 1370 OFFCURVE",
"136 1370 OFFCURVE",
"136 1378 QCURVE SMOOTH",
"136 1402 LINE SMOOTH",
"136 1410 OFFCURVE",
"144 1410 QCURVE SMOOTH",
"433 1410 LINE",
"451.586 1406.62 OFFCURVE",
"464 1388 QCURVE",
"933 343 LINE",
"938 336 OFFCURVE",
"944 326 OFFCURVE",
"967.745 327.319 OFFCURVE",
"974 344 QCURVE",
"1438 1370 LINE",
"1459.05 1410 OFFCURVE",
"1476 1410 QCURVE SMOOTH",
"1767 1410 LINE SMOOTH",
"1775 1410 OFFCURVE",
"1775 1402 QCURVE SMOOTH",
"1775 1378 LINE SMOOTH",
"1775 1370 OFFCURVE",
"1770 1370 QCURVE SMOOTH",
"1739.74 1370 OFFCURVE",
"1696.5 1350.5 QCURVE SMOOTH",
"1629 1320.06 OFFCURVE",
"1629 1261 QCURVE",
"1689 156 LINE",
"1690.78 104.471 OFFCURVE",
"1794.92 40 OFFCURVE",
"1879 40 QCURVE SMOOTH",
"1887 40 OFFCURVE",
"1887 32 QCURVE SMOOTH",
"1887 8 LINE SMOOTH",
"1887 0 OFFCURVE",
"1879 0 QCURVE SMOOTH",
"1311 0 LINE SMOOTH",
"1303 0 OFFCURVE",
"1303 8 QCURVE SMOOTH",
"1303 32 LINE SMOOTH",
"1303 40 OFFCURVE",
"1311 40 QCURVE SMOOTH",
"1490 40 OFFCURVE",
"1490 127 QCURVE",
"1437 1082 LINE SMOOTH",
"1436 1092 OFFCURVE",
"1427 1092 OFFCURVE",
"1424 1083 QCURVE",
"927 7 LINE SMOOTH",
"923 0 OFFCURVE",
"884.667 0 OFFCURVE",
"882 8 QCURVE SMOOTH",
"392 1086 LINE SMOOTH",
"386 1100 OFFCURVE",
"375 1100 OFFCURVE",
"375 1078.5 QCURVE SMOOTH",
"375 1032.27 OFFCURVE",
"327 255.545 OFFCURVE",
"327 160 QCURVE SMOOTH",
"327 119 LINE",
"338.91 62.429 OFFCURVE",
"440 45 QCURVE SMOOTH",
"469 40 OFFCURVE"
);
}
);
width = 1929;
}
);
unicode = 004D;
},
{
glyphname = N;
lastChange = "2017-06-09 15:50:33 +0000";
layers = (
{
anchors = (
{
name = "Anchor-1";
position = "{300, 0}";
}
);
layerId = "CB1E75F3-3DD4-4E31-8468-5A6CAC277236";
paths = (
{
closed = 1;
nodes = (
"68 0 LINE SMOOTH",
"60 0 OFFCURVE",
"60 8 QCURVE SMOOTH",
"60 32 LINE SMOOTH",
"60 40 OFFCURVE",
"69.5 40 QCURVE SMOOTH",
"93 40 LINE SMOOTH",
"148 40 OFFCURVE",
"167.5 49.5 QCURVE SMOOTH",
"242 85.795 OFFCURVE",
"242 248 QCURVE SMOOTH",
"242 1287 LINE SMOOTH",
"242 1353.83 OFFCURVE",
"112.5 1367 QCURVE SMOOTH",
"83 1370 OFFCURVE",
"60 1370 OFFCURVE",
"60 1378 QCURVE SMOOTH",
"60 1402 LINE SMOOTH",
"60 1410 OFFCURVE",
"68 1410 QCURVE SMOOTH",
"434 1410 LINE",
"1383 361 LINE SMOOTH",
"1388 356 OFFCURVE",
"1392 351 OFFCURVE",
"1401 351 OFFCURVE",
"1401 360 QCURVE SMOOTH",
"1401 1049 LINE SMOOTH",
"1401 1248.21 OFFCURVE",
"1334.89 1370 OFFCURVE",
"1235 1370 QCURVE SMOOTH",
"1184 1370 LINE SMOOTH",
"1176 1370 OFFCURVE",
"1176 1378 QCURVE SMOOTH",
"1176 1402 LINE SMOOTH",
"1176 1410 OFFCURVE",
"1184 1410 QCURVE SMOOTH",
"1704 1410 LINE SMOOTH",
"1712 1410 OFFCURVE",
"1712 1402 QCURVE SMOOTH",
"1712 1378 LINE SMOOTH",
"1712 1370 OFFCURVE",
"1682.5 1370 QCURVE SMOOTH",
"1653 1370 OFFCURVE",
"1518 1302.5 OFFCURVE",
"1518 1252 QCURVE SMOOTH",
"1518 29 LINE SMOOTH",
"1518 7 OFFCURVE",
"1506 -12 OFFCURVE",
"1461 -12 OFFCURVE",
"1439 6 OFFCURVE",
"1424 23 QCURVE SMOOTH",
"393 1166 LINE SMOOTH",
"383 1176 OFFCURVE",
"375 1176 QCURVE SMOOTH",
"370 1176 OFFCURVE",
"370 1166 QCURVE SMOOTH",
"370 168 LINE SMOOTH",
"370 77.49 OFFCURVE",
"514.5 48 QCURVE SMOOTH",
"553.7 40 OFFCURVE",
"596 40 OFFCURVE",
"596 32 QCURVE SMOOTH",
"596 8 LINE SMOOTH",
"596 0 OFFCURVE",
"588 0 QCURVE SMOOTH"
);
}
);
width = 1747;
}
);
unicode = 004E;
},
{
glyphname = Eng;
lastChange = "2017-06-09 15:50:33 +0000";
layers = (
{
layerId = "CB1E75F3-3DD4-4E31-8468-5A6CAC277236";
paths = (
{
closed = 1;
nodes = (
"68 0 LINE SMOOTH",
"60 0 OFFCURVE",
"60 8 QCURVE SMOOTH",
"60 32 LINE SMOOTH",
"60 40 OFFCURVE",
"69.5 40 QCURVE SMOOTH",
"93 40 LINE SMOOTH",
"148 40 OFFCURVE",
"167.5 49.5 QCURVE SMOOTH",
"242 85.795 OFFCURVE",
"242 248 QCURVE SMOOTH",
"242 1287 LINE",
"230.933 1370 OFFCURVE",
"68 1370 QCURVE SMOOTH",
"60 1370 OFFCURVE",
"60 1378 QCURVE SMOOTH",
"60 1402 LINE SMOOTH",
"60 1410 OFFCURVE",
"68 1410 QCURVE SMOOTH",
"434 1410 LINE",
"1383 361 LINE SMOOTH",
"1388 356 OFFCURVE",
"1392 351 OFFCURVE",
"1401 351 OFFCURVE",
"1401 360 QCURVE SMOOTH",
"1401 1049 LINE SMOOTH",
"1401 1148 OFFCURVE",
"1394 1264 OFFCURVE",
"1362 1329 OFFCURVE",
"1295 1358 OFFCURVE",
"1235 1370 QCURVE",
"1184 1370 LINE SMOOTH",
"1176 1370 OFFCURVE",
"1176 1378 QCURVE SMOOTH",
"1176 1402 LINE SMOOTH",
"1176 1410 OFFCURVE",
"1184 1410 QCURVE SMOOTH",
"1704 1410 LINE SMOOTH",
"1712 1410 OFFCURVE",
"1712 1402 QCURVE SMOOTH",
"1712 1378 LINE SMOOTH",
"1712 1370 OFFCURVE",
"1653 1370 OFFCURVE",
"1518 1302.5 OFFCURVE",
"1518 1252 QCURVE SMOOTH",
"1518 -159 LINE SMOOTH",
"1518 -336.788 OFFCURVE",
"1482.5 -425 QCURVE SMOOTH",
"1466 -466 OFFCURVE",
"1436 -500 QCURVE",
"1348.02 -618.225 OFFCURVE",
"1204.5 -634.5 QCURVE SMOOTH",
"1156 -640 OFFCURVE",
"1048.72 -640 OFFCURVE",
"942.913 -558.955 OFFCURVE",
"939 -512 QCURVE",
"939 -457.939 OFFCURVE",
"992.5 -432 QCURVE SMOOTH",
"1009 -424 OFFCURVE",
"1021.97 -424 QCURVE SMOOTH",
"1045.33 -424 OFFCURVE",
"1160 -512 QCURVE SMOOTH",
"1201.33 -543 OFFCURVE",
"1295 -543 QCURVE",
"1401 -518.059 OFFCURVE",
"1401 -317 QCURVE SMOOTH",
"1401 91 LINE",
"393 1166 LINE SMOOTH",
"383 1176 OFFCURVE",
"375 1176 QCURVE SMOOTH",
"370 1176 OFFCURVE",
"370 1166 QCURVE SMOOTH",
"370 168 LINE SMOOTH",
"370 77.49 OFFCURVE",
"514.5 48 QCURVE SMOOTH",
"553.7 40 OFFCURVE",
"596 40 OFFCURVE",
"596 32 QCURVE SMOOTH",
"596 8 LINE SMOOTH",
"596 0 OFFCURVE",
"588 0 QCURVE SMOOTH"
);
}
);
width = 1747;
}
);
unicode = 014A;
},
{
glyphname = O;
lastChange = "2017-06-09 15:50:33 +0000";
layers = (
{
anchors = (
{
name = "Anchor-1";
position = "{320, 0}";
}
);
layerId = "CB1E75F3-3DD4-4E31-8468-5A6CAC277236";
paths = (
{
closed = 1;
nodes = (
"989 -27 OFFCURVE",
"909 -27 QCURVE SMOOTH",
"745.098 -27 OFFCURVE",
"596 26.5 QCURVE SMOOTH",
"392.053 99.681 OFFCURVE",
"268 245 QCURVE SMOOTH",
"110 430.086 OFFCURVE",
"110 714 QCURVE SMOOTH",
"110 918.961 OFFCURVE",
"319.797 1256.28 OFFCURVE",
"690.632 1452 OFFCURVE",
"1118.09 1452 OFFCURVE",
"1456.43 1262.2 OFFCURVE",
"1660 929.837 OFFCURVE",
"1660 542.673 OFFCURVE",
"1457.53 193.52 OFFCURVE",
"1282.5 86.5 QCURVE SMOOTH",
"1195 33 OFFCURVE"
);
},
{
closed = 1;
nodes = (
"466.822 253.254 OFFCURVE",
"741.14 47 OFFCURVE",
"921 47 QCURVE SMOOTH",
"1176.85 47 OFFCURVE",
"1320 243 QCURVE SMOOTH",
"1449 419.631 OFFCURVE",
"1449 969.961 OFFCURVE",
"1291 1169 QCURVE SMOOTH",
"1214 1266 OFFCURVE",
"991 1383 OFFCURVE",
"764 1383 OFFCURVE",
"619 1333 OFFCURVE",
"501 1246 OFFCURVE",
"411 1126 OFFCURVE",
"381 1055.5 QCURVE SMOOTH",
"320 912.15 OFFCURVE",
"320 580.457 OFFCURVE"
);
}
);
width = 1770;
}
);
unicode = 004F;
},
{
glyphname = Oslash;
lastChange = "2017-06-09 15:50:33 +0000";
layers = (
{
anchors = (
{
name = "Anchor-1";
position = "{320, 0}";
}
);
layerId = "CB1E75F3-3DD4-4E31-8468-5A6CAC277236";
paths = (
{
closed = 1;
nodes = (
"1396 1283 QCURVE",
"1599 1498 LINE",
"1666 1434 LINE",
"1464 1220 LINE",
"1660 1013.23 OFFCURVE",
"1660 734 QCURVE SMOOTH",
"1660 543.673 OFFCURVE",
"1457.53 194.52 OFFCURVE",
"1096.87 -26 OFFCURVE",
"874 -26 QCURVE SMOOTH",
"787.762 -26 OFFCURVE",
"610.474 9.684 QCURVE SMOOTH",
"594 13 OFFCURVE",
"481 65 OFFCURVE",
"415 113 QCURVE",
"206 -108 LINE",
"139 -44 LINE",
"343 172 LINE",
"110 384.739 OFFCURVE",
"110 715 QCURVE SMOOTH",
"110 919.961 OFFCURVE",
"319.797 1257.28 OFFCURVE",
"690.632 1453 OFFCURVE",
"1187.75 1453 OFFCURVE"
);
},
{
closed = 1;
nodes = (
"1290 1171 LINE",
"1118.72 1384 OFFCURVE",
"849 1384 QCURVE SMOOTH",
"686.816 1384 OFFCURVE",
"560 1290.5 QCURVE SMOOTH",
"386.553 1162.62 OFFCURVE",
"335.5 909 QCURVE SMOOTH",
"320 832 OFFCURVE",
"320 633 OFFCURVE",
"393 396 OFFCURVE",
"462 297 QCURVE"
);
},
{
closed = 1;
nodes = (
"521 225 LINE",
"686.938 48 OFFCURVE",
"1176.85 48 OFFCURVE",
"1449 420.631 OFFCURVE",
"1449 911.577 OFFCURVE",
"1343 1093 QCURVE"
);
}
);
width = 1770;
}
);
unicode = 00D8;
},
{
glyphname = OE;
lastChange = "2017-06-09 15:50:33 +0000";
layers = (
{
anchors = (
{
name = "Anchor-1";
position = "{630, 0}";
}
);
layerId = "CB1E75F3-3DD4-4E31-8468-5A6CAC277236";
paths = (
{
closed = 1;
nodes = (
"921 1432 QCURVE",
"1211 1410 LINE",
"1878 1410 LINE SMOOTH",
"1896 1410 OFFCURVE",
"1912 1396 OFFCURVE",
"1914 1374 QCURVE SMOOTH",
"1932 1085 LINE SMOOTH",
"1932 1075 OFFCURVE",
"1902 1075 OFFCURVE",
"1895.5 1084 QCURVE SMOOTH",
"1888.61 1093.54 OFFCURVE",
"1870.19 1219.83 OFFCURVE",
"1820.37 1304.14 OFFCURVE",
"1757 1315 QCURVE",
"1340 1315 LINE SMOOTH",
"1327 1315 OFFCURVE",
"1327 1302 QCURVE SMOOTH",
"1327 784 LINE SMOOTH",
"1327 774 OFFCURVE",
"1337 774 QCURVE SMOOTH",
"1693 774 LINE SMOOTH",
"1817 774 OFFCURVE",
"1817 930 QCURVE SMOOTH",
"1817 938 OFFCURVE",
"1825 938 QCURVE SMOOTH",
"1849 938 LINE SMOOTH",
"1857 938 OFFCURVE",
"1857 930 QCURVE SMOOTH",
"1857 502 LINE SMOOTH",
"1857 494 OFFCURVE",
"1849 494 QCURVE SMOOTH",
"1825 494 LINE SMOOTH",
"1817 494 OFFCURVE",
"1817 502 QCURVE SMOOTH",
"1817 649.816 OFFCURVE",
"1731.5 672.5 QCURVE SMOOTH",
"1707 679 OFFCURVE",
"1680 679 QCURVE SMOOTH",
"1337 679 LINE SMOOTH",
"1327 679 OFFCURVE",
"1327 669 QCURVE SMOOTH",
"1327 183 LINE SMOOTH",
"1327 108.35 OFFCURVE",
"1396 98 QCURVE SMOOTH",
"1416 95 OFFCURVE",
"1438 95 QCURVE SMOOTH",
"1771 95 LINE SMOOTH",
"1873.53 95 OFFCURVE",
"1931 186 QCURVE SMOOTH",
"1972.36 251.488 OFFCURVE",
"1981 335 QCURVE SMOOTH",
"1984 363 OFFCURVE",
"2011 363 QCURVE SMOOTH",
"2023 363 OFFCURVE",
"2023 350 QCURVE",
"1990 14 LINE",
"1984.4 0 OFFCURVE",
"1976 0 QCURVE SMOOTH",
"1118 0 LINE SMOOTH",
"1060 0 OFFCURVE",
"938 -16 OFFCURVE",
"726.667 -16 OFFCURVE",
"662.333 -2 QCURVE SMOOTH",
"547.523 22.985 OFFCURVE",
"444 92 QCURVE SMOOTH",
"303.911 185.393 OFFCURVE",
"220 320 QCURVE SMOOTH",
"110 496.458 OFFCURVE",
"110 918.706 OFFCURVE",
"319.448 1245.2 OFFCURVE",
"688.945 1432 OFFCURVE"
);
},
{
closed = 1;
nodes = (
"320 870 OFFCURVE",
"320 769 QCURVE SMOOTH",
"320 581.4 OFFCURVE",
"465.525 261.245 OFFCURVE",
"740 59 OFFCURVE",
"921 59 QCURVE SMOOTH",
"1022.88 59 OFFCURVE",
"1083 72 QCURVE",
"1132 101.826 OFFCURVE",
"1132 178 QCURVE SMOOTH",
"1132 1232 LINE SMOOTH",
"1132 1289.84 OFFCURVE",
"1090 1323 QCURVE",
"987.143 1363 OFFCURVE",
"721 1363 OFFCURVE",
"523 1261 OFFCURVE",
"389 1091 OFFCURVE"
);
}
);
width = 2111;
}
);
unicode = 0152;
},
{
glyphname = P;
lastChange = "2017-06-09 15:50:33 +0000";
layers = (
{
anchors = (
{
name = "Anchor-1";
position = "{-150, 0}";
}
);
layerId = "CB1E75F3-3DD4-4E31-8468-5A6CAC277236";
paths = (
{
closed = 1;
nodes = (
"100 0 LINE SMOOTH",
"92 0 OFFCURVE",
"92 20 QCURVE SMOOTH",
"92 32 LINE SMOOTH",
"92 40 OFFCURVE",
"112 40 OFFCURVE",
"151 52 OFFCURVE",
"161 54 QCURVE SMOOTH",
"263 77.263 OFFCURVE",
"263 170 QCURVE SMOOTH",
"263 1226 LINE SMOOTH",
"263 1318.13 OFFCURVE",
"228.793 1343.56 QCURVE SMOOTH",
"194.586 1369 OFFCURVE",
"106 1369 QCURVE SMOOTH",
"61 1369 LINE SMOOTH",
"40 1369 OFFCURVE",
"40 1393 QCURVE SMOOTH",
"40 1407.11 OFFCURVE",
"53 1410 QCURVE",
"59.5 1410 LINE",
"621 1425 LINE",
"722 1425 LINE",
"901.28 1412.64 OFFCURVE",
"1020.14 1295.9 QCURVE SMOOTH",
"1139 1179.16 OFFCURVE",
"1139 1015.81 QCURVE SMOOTH",
"1139 852.466 OFFCURVE",
"1022.5 719 QCURVE SMOOTH",
"971 660 OFFCURVE",
"843 587 OFFCURVE",
"781 586 QCURVE",
"481 598 LINE",
"473 598 LINE SMOOTH",
"458 598 OFFCURVE",
"458 584 QCURVE SMOOTH",
"458 173 LINE SMOOTH",
"458 118.303 OFFCURVE",
"487.76 92.15 QCURVE SMOOTH",
"517.521 65.997 OFFCURVE",
"615 51 QCURVE SMOOTH",
"628 49 OFFCURVE",
"656.8 44.5 QCURVE SMOOTH",
"685.6 40 OFFCURVE",
"706 40 OFFCURVE",
"706 32 QCURVE SMOOTH",
"706 8 LINE SMOOTH",
"706 0 OFFCURVE",
"698 0 QCURVE SMOOTH"
);
},
{
closed = 1;
nodes = (
"500 1373 OFFCURVE",
"458 1372 OFFCURVE",
"458 1356 QCURVE SMOOTH",
"458 711 LINE",
"460 681 LINE",
"462.563 660.494 OFFCURVE",
"479 659 QCURVE SMOOTH",
"581 653 LINE",
"742.206 653 OFFCURVE",
"840.603 760.919 QCURVE SMOOTH",
"939 868.839 OFFCURVE",
"939 1032.28 QCURVE SMOOTH",
"939 1195.72 OFFCURVE",
"843.678 1285.86 QCURVE SMOOTH",
"748.356 1376 OFFCURVE",
"589 1376 QCURVE SMOOTH",
"575 1376 OFFCURVE",
"551 1375 OFFCURVE",
"527 1374 OFFCURVE"
);
}
);
width = 1211;
}
);
unicode = 0050;
},
{
glyphname = Thorn;
lastChange = "2017-06-09 15:50:33 +0000";
layers = (
{
anchors = (
{
name = "Anchor-1";
position = "{-190, 0}";
}
);
layerId = "CB1E75F3-3DD4-4E31-8468-5A6CAC277236";
paths = (
{
closed = 1;
nodes = (
"49 0 LINE SMOOTH",
"41 0 OFFCURVE",
"41 8 QCURVE SMOOTH",
"41 32 LINE SMOOTH",
"41 40 OFFCURVE",
"49 40 QCURVE SMOOTH",
"127 40 OFFCURVE",
"212 113 OFFCURVE",
"212 170 QCURVE SMOOTH",
"212 1226 LINE SMOOTH",
"212 1303 OFFCURVE",
"144 1369 OFFCURVE",
"67 1369 QCURVE SMOOTH",
"49 1369 LINE SMOOTH",
"41 1369 OFFCURVE",
"41 1378 QCURVE SMOOTH",
"41 1402 LINE SMOOTH",
"41 1410 OFFCURVE",
"49 1410 QCURVE SMOOTH",
"568 1410 LINE SMOOTH",
"576 1410 OFFCURVE",
"576 1402 QCURVE SMOOTH",
"576 1378 LINE SMOOTH",
"576 1369 OFFCURVE",
"568 1369 QCURVE SMOOTH",
"550 1369 LINE SMOOTH",
"478.263 1369 OFFCURVE",
"453.632 1357 QCURVE SMOOTH",
"407 1334.28 OFFCURVE",
"407 1274 QCURVE SMOOTH",
"407 1160 LINE",
"552 1165 OFFCURVE",
"570 1165 QCURVE SMOOTH",
"671 1165 LINE",
"853.619 1152.41 OFFCURVE",
"970.81 1033.12 QCURVE SMOOTH",
"1088 913.839 OFFCURVE",
"1088 718 QCURVE SMOOTH",
"1088 580.211 OFFCURVE",
"960.078 450.605 QCURVE SMOOTH",
"832.156 321 OFFCURVE",
"707 321 QCURVE SMOOTH",
"701 321 LINE",
"430 328 LINE",
"422 328 LINE SMOOTH",
"407 328 OFFCURVE",
"407 318 QCURVE SMOOTH",
"407 172 LINE SMOOTH",
"407 101.714 OFFCURVE",
"488 67 QCURVE SMOOTH",
"551 40 OFFCURVE",
"647 40 QCURVE SMOOTH",
"655 40 OFFCURVE",
"655 33 QCURVE SMOOTH",
"655 8 LINE SMOOTH",
"655 0 OFFCURVE",
"647 0 QCURVE SMOOTH"
);
},
{
closed = 1;
nodes = (
"449 1113 OFFCURVE",
"410.25 1112 OFFCURVE",
"407 1099 QCURVE",
"407 421 LINE",
"409.54 400.678 OFFCURVE",
"428 399 QCURVE SMOOTH",
"530 393 LINE",
"691.206 393 OFFCURVE",
"789.603 500.919 QCURVE SMOOTH",
"888 608.839 OFFCURVE",
"888 772.278 QCURVE SMOOTH",
"888 935.717 OFFCURVE",
"792.678 1025.86 QCURVE SMOOTH",
"697.356 1116 OFFCURVE",
"538 1116 QCURVE SMOOTH",
"524 1116 OFFCURVE",
"500 1115 OFFCURVE",
"476 1114 OFFCURVE"
);
}
);
width = 1160;
}
);
unicode = 00DE;
},
{
glyphname = Q;
lastChange = "2017-06-09 15:50:33 +0000";
layers = (
{
anchors = (
{
name = "Anchor-1";
position = "{250, 0}";
}
);
layerId = "CB1E75F3-3DD4-4E31-8468-5A6CAC277236";
paths = (
{
closed = 1;
nodes = (
"816 -22 QCURVE SMOOTH",
"658.148 -8.274 OFFCURVE",
"392 127 OFFCURVE",
"302.5 221.5 QCURVE SMOOTH",
"110 424.754 OFFCURVE",
"110 707 QCURVE SMOOTH",
"110 1032.43 OFFCURVE",
"555.127 1450 OFFCURVE",
"1218.51 1450 OFFCURVE",
"1656 1037.69 OFFCURVE",
"1656 717 QCURVE SMOOTH",
"1656 334.826 OFFCURVE",
"1267 77 QCURVE SMOOTH",
"1258.44 71.296 OFFCURVE",
"1123 4.902 OFFCURVE",
"1123 -4 OFFCURVE",
"1248.25 -88.849 OFFCURVE",
"1451.25 -252.75 QCURVE SMOOTH",
"1572.59 -350.717 OFFCURVE",
"1707 -377.6 OFFCURVE",
"1707 -391.3 QCURVE SMOOTH",
"1707 -415.528 OFFCURVE",
"1642.86 -428 OFFCURVE",
"1578.43 -428 QCURVE SMOOTH",
"1465.12 -428 OFFCURVE",
"1328 -354 QCURVE",
"1086.61 -195.374 OFFCURVE",
"921.443 -37.233 OFFCURVE",
"858 -27 QCURVE SMOOTH",
"839 -24 OFFCURVE"
);
},
{
closed = 1;
nodes = (
"318 877 OFFCURVE",
"319 768.5 QCURVE SMOOTH",
"320.824 570.587 OFFCURVE",
"474.902 245.774 OFFCURVE",
"751.546 47 OFFCURVE",
"934 47 QCURVE SMOOTH",
"1156.64 47 OFFCURVE",
"1453 396.286 OFFCURVE",
"1453 961.98 OFFCURVE",
"1307.5 1154 QCURVE SMOOTH",
"1146.94 1365.89 OFFCURVE",
"858 1383 QCURVE",
"615.543 1383 OFFCURVE",
"463 1194.5 QCURVE SMOOTH",
"393 1108 OFFCURVE"
);
}
);
width = 1767;
}
);
unicode = 0051;
},
{
glyphname = R;
lastChange = "2017-06-09 15:50:33 +0000";
layers = (
{
anchors = (
{
name = "Anchor-1";
position = "{180, 0}";
}
);
layerId = "CB1E75F3-3DD4-4E31-8468-5A6CAC277236";
paths = (
{
closed = 1;
nodes = (
"52 0 LINE SMOOTH",
"44 0 OFFCURVE",
"44 20 QCURVE SMOOTH",
"44 32 LINE SMOOTH",
"44 40 OFFCURVE",
"52 40 QCURVE SMOOTH",
"58 40 OFFCURVE",
"84 44 OFFCURVE",
"112 48 OFFCURVE",
"136 53 OFFCURVE",
"141 54 QCURVE SMOOTH",
"243 77.263 OFFCURVE",
"243 170 QCURVE SMOOTH",
"243 1226 LINE SMOOTH",
"243 1311.85 OFFCURVE",
"173.5 1348.5 QCURVE SMOOTH",
"132.724 1370 OFFCURVE",
"86 1370 QCURVE SMOOTH",
"48 1370 LINE SMOOTH",
"40 1370 OFFCURVE",
"40 1378 QCURVE SMOOTH",
"40 1402 LINE SMOOTH",
"40 1410 OFFCURVE",
"52.5 1410 QCURVE SMOOTH",
"601 1425 LINE",
"702 1425 LINE",
"878.701 1412.67 OFFCURVE",
"1118 1179.73 OFFCURVE",
"1118 839 OFFCURVE",
"975.5 744 QCURVE SMOOTH",
"932 715 OFFCURVE",
"881 692 QCURVE",
"1184 197 LINE SMOOTH",
"1262.71 66.508 OFFCURVE",
"1396 14 QCURVE",
"1407 11.25 OFFCURVE",
"1407 0 QCURVE SMOOTH",
"1407 -25 OFFCURVE",
"1374 -25 QCURVE SMOOTH",
"1148.63 -25 OFFCURVE",
"1016 146.5 QCURVE SMOOTH",
"987 184 OFFCURVE",
"958 231 QCURVE SMOOTH",
"699 637 LINE",
"461 648 LINE",
"453 648 LINE SMOOTH",
"438 648 OFFCURVE",
"438 634 QCURVE SMOOTH",
"438 173 LINE SMOOTH",
"438 118.303 OFFCURVE",
"499.757 64.032 OFFCURVE",
"576 54 QCURVE SMOOTH",
"596 50.667 OFFCURVE",
"653.6 40 OFFCURVE",
"675 40 OFFCURVE",
"675 32 QCURVE SMOOTH",
"675 8 LINE SMOOTH",
"675 0 OFFCURVE",
"667 0 QCURVE SMOOTH"
);
},
{
closed = 1;
nodes = (
"480 1371 OFFCURVE",
"438 1370 OFFCURVE",
"438 1354 QCURVE SMOOTH",
"438 748 LINE",
"440 718 LINE",
"442.563 697.494 OFFCURVE",
"459 696 QCURVE SMOOTH",
"561 690 LINE",
"842.378 690 OFFCURVE",
"900.5 889.5 QCURVE SMOOTH",
"919 953 OFFCURVE",
"919 1033.5 QCURVE SMOOTH",
"919 1192.02 OFFCURVE",
"722.379 1374 OFFCURVE",
"569 1374 QCURVE SMOOTH",
"555 1374 OFFCURVE",
"531 1373 OFFCURVE",
"507 1372 OFFCURVE"
);
}
);
width = 1419;
}
);
unicode = 0052;
},
{
glyphname = S;
lastChange = "2017-06-09 15:50:33 +0000";
layers = (
{
anchors = (
{
name = "Anchor-1";
position = "{-60, 0}";
}
);
layerId = "CB1E75F3-3DD4-4E31-8468-5A6CAC277236";
paths = (
{
closed = 1;
nodes = (
"844 1398 LINE",
"854 1398 OFFCURVE",
"854 1376 QCURVE",
"880 1163 LINE",
"884 1143 OFFCURVE",
"884 1132 OFFCURVE",
"853 1132 OFFCURVE",
"845 1140 OFFCURVE",
"837 1159 OFFCURVE",
"826 1183 OFFCURVE",
"820.5 1195 QCURVE SMOOTH",
"799.455 1240.92 OFFCURVE",
"753.5 1285.5 QCURVE SMOOTH",
"643.723 1392 OFFCURVE",
"506 1392 QCURVE SMOOTH",
"423.286 1392 OFFCURVE",
"275 1283.55 OFFCURVE",
"275 1137 OFFCURVE",
"330 1029 OFFCURVE",
"420 937 OFFCURVE",
"536 853 OFFCURVE",
"596.5 810.5 QCURVE SMOOTH",
"755.454 698.838 OFFCURVE",
"822.5 620.5 QCURVE SMOOTH",
"927.038 498.356 OFFCURVE",
"936 346 QCURVE",
"936 176.402 OFFCURVE",
"674.789 -27 OFFCURVE",
"502 -27 QCURVE SMOOTH",
"391.4 -27 OFFCURVE",
"260 18 OFFCURVE",
"210 38 OFFCURVE",
"187 38 OFFCURVE",
"184 37 QCURVE SMOOTH",
"135 27 LINE",
"122 27 OFFCURVE",
"119 48 QCURVE SMOOTH",
"90 295.818 OFFCURVE",
"90 327 OFFCURVE",
"95 338 OFFCURVE",
"105.5 338 QCURVE SMOOTH",
"134.143 338 OFFCURVE",
"157 258 QCURVE",
"262.405 33 OFFCURVE",
"506 33 QCURVE SMOOTH",
"618.156 33 OFFCURVE",
"777 168.547 OFFCURVE",
"777 278 QCURVE SMOOTH",
"777 451.669 OFFCURVE",
"569 601.5 QCURVE SMOOTH",
"510 644 OFFCURVE",
"288.009 794.381 OFFCURVE",
"222 869 QCURVE SMOOTH",
"119 985.435 OFFCURVE",
"119 1269.88 OFFCURVE",
"346.118 1452 OFFCURVE",
"493 1452 QCURVE SMOOTH",
"568.762 1452 OFFCURVE",
"752 1400 OFFCURVE",
"788 1391 QCURVE"
);
}
);
width = 1026;
}
);
unicode = 0053;
},
{
glyphname = T;
lastChange = "2017-06-09 15:50:33 +0000";
layers = (
{
anchors = (
{
name = "Anchor-1";
position = "{200, 0}";
}
);
layerId = "CB1E75F3-3DD4-4E31-8468-5A6CAC277236";
paths = (
{
closed = 1;
nodes = (
"399 32 LINE SMOOTH",
"399 40 OFFCURVE",
"408.5 40 QCURVE SMOOTH",
"435.5 40 LINE SMOOTH",
"533.75 40 OFFCURVE",
"653 124.176 OFFCURVE",
"653 180 QCURVE SMOOTH",
"653 1287 LINE SMOOTH",
"653 1308 OFFCURVE",
"636 1313 OFFCURVE",
"624 1315 QCURVE",
"240 1315 LINE",
"147.24 1294.94 OFFCURVE",
"118 1172.5 QCURVE SMOOTH",
"102.121 1106.01 OFFCURVE",
"96.2 1069 OFFCURVE",
"88 1069 QCURVE SMOOTH",
"70 1069 LINE SMOOTH",
"64 1069 OFFCURVE",
"64 1073 QCURVE SMOOTH",
"64 1106 LINE",
"101 1418 LINE",
"106.636 1449 OFFCURVE",
"135.455 1449 OFFCURVE",
"167.364 1410 OFFCURVE",
"212 1410 QCURVE SMOOTH",
"1290 1410 LINE SMOOTH",
"1333 1410 OFFCURVE",
"1351 1430 OFFCURVE",
"1366.55 1449 OFFCURVE",
"1392 1449 OFFCURVE",
"1399 1429 OFFCURVE",
"1401 1418 QCURVE SMOOTH",
"1438 1106 LINE",
"1438 1073 LINE SMOOTH",
"1438 1069 OFFCURVE",
"1432 1069 QCURVE SMOOTH",
"1414 1069 LINE SMOOTH",
"1405.8 1069 OFFCURVE",
"1403.4 1084 QCURVE SMOOTH",
"1387.41 1183.94 OFFCURVE",
"1326.88 1300.97 OFFCURVE",
"1262 1315 QCURVE",
"877 1315 LINE",
"865 1313 OFFCURVE",
"848 1308 OFFCURVE",
"848 1287 QCURVE SMOOTH",
"848 180 LINE SMOOTH",
"848 124.176 OFFCURVE",
"967.25 40 OFFCURVE",
"1065 40 QCURVE SMOOTH",
"1094 40 LINE SMOOTH",
"1102 40 OFFCURVE",
"1102 32 QCURVE SMOOTH",
"1102 8 LINE SMOOTH",
"1102 0 OFFCURVE",
"1094 0 QCURVE SMOOTH",
"407 0 LINE SMOOTH",
"399 0 OFFCURVE",
"399 8 QCURVE SMOOTH"
);
}
);
width = 1502;
}
);
unicode = 0054;
},
{
glyphname = Tbar;
lastChange = "2017-06-09 15:50:33 +0000";
layers = (
{
layerId = "CB1E75F3-3DD4-4E31-8468-5A6CAC277236";
paths = (
{
closed = 1;
nodes = (
"399 32 LINE SMOOTH",
"399 40 OFFCURVE",
"408.5 40 QCURVE SMOOTH",
"435.5 40 LINE SMOOTH",
"533.75 40 OFFCURVE",
"653 124.176 OFFCURVE",
"653 180 QCURVE SMOOTH",
"653 664 LINE",
"326 664 LINE SMOOTH",
"301 664 OFFCURVE",
"301 689 QCURVE SMOOTH",
"301 725 LINE SMOOTH",
"301 750 OFFCURVE",
"326 750 QCURVE SMOOTH",
"653 750 LINE",
"653 1287 LINE SMOOTH",
"653 1308 OFFCURVE",
"636 1313 OFFCURVE",
"624 1315 QCURVE",
"240 1315 LINE",
"147.24 1294.94 OFFCURVE",
"118 1172.5 QCURVE SMOOTH",
"102.121 1106.01 OFFCURVE",
"96.2 1069 OFFCURVE",
"88 1069 QCURVE SMOOTH",
"70 1069 LINE SMOOTH",
"64 1069 OFFCURVE",
"64 1073 QCURVE SMOOTH",
"64 1106 LINE",
"101 1418 LINE",
"106.636 1449 OFFCURVE",
"135.455 1449 OFFCURVE",
"167.364 1410 OFFCURVE",
"212 1410 QCURVE SMOOTH",
"1290 1410 LINE SMOOTH",
"1333 1410 OFFCURVE",
"1351 1430 OFFCURVE",
"1366.55 1449 OFFCURVE",
"1392 1449 OFFCURVE",
"1399 1429 OFFCURVE",
"1401 1418 QCURVE SMOOTH",
"1438 1106 LINE",
"1438 1073 LINE SMOOTH",
"1438 1069 OFFCURVE",
"1432 1069 QCURVE SMOOTH",
"1414 1069 LINE SMOOTH",
"1405.8 1069 OFFCURVE",
"1403.4 1084 QCURVE SMOOTH",
"1387.41 1183.94 OFFCURVE",
"1326.88 1300.97 OFFCURVE",
"1262 1315 QCURVE",
"877 1315 LINE",
"865 1313 OFFCURVE",
"848 1308 OFFCURVE",
"848 1287 QCURVE SMOOTH",
"848 750 LINE",
"1175 750 LINE SMOOTH",
"1200 750 OFFCURVE",
"1200 725 QCURVE SMOOTH",
"1200 689 LINE SMOOTH",
"1200 664 OFFCURVE",
"1175 664 QCURVE SMOOTH",
"848 664 LINE",
"848 180 LINE SMOOTH",
"848 124.176 OFFCURVE",
"967.25 40 OFFCURVE",
"1065 40 QCURVE SMOOTH",
"1094 40 LINE SMOOTH",
"1102 40 OFFCURVE",
"1102 32 QCURVE SMOOTH",
"1102 8 LINE SMOOTH",
"1102 0 OFFCURVE",
"1094 0 QCURVE SMOOTH",
"407 0 LINE SMOOTH",
"399 0 OFFCURVE",
"399 8 QCURVE SMOOTH"
);
}
);
width = 1502;
}
);
unicode = 0166;
},
{
glyphname = U;
lastChange = "2017-06-09 15:50:33 +0000";
layers = (
{
anchors = (
{
name = "Anchor-1";
position = "{275, 0}";
}
);
layerId = "CB1E75F3-3DD4-4E31-8468-5A6CAC277236";
paths = (
{
closed = 1;
nodes = (
"574 1370 QCURVE SMOOTH",
"406 1370 OFFCURVE",
"406 1236 QCURVE SMOOTH",
"406 520 LINE SMOOTH",
"406 322.177 OFFCURVE",
"667.731 71 OFFCURVE",
"873 71 QCURVE SMOOTH",
"1086.31 71 OFFCURVE",
"1359 299.977 OFFCURVE",
"1359 503 QCURVE SMOOTH",
"1359 1139 LINE SMOOTH",
"1359 1233.57 OFFCURVE",
"1342.5 1271.29 QCURVE SMOOTH",
"1299.31 1370 OFFCURVE",
"1148 1370 QCURVE SMOOTH",
"1140 1370 OFFCURVE",
"1140 1378 QCURVE SMOOTH",
"1140 1402 LINE SMOOTH",
"1140 1410 OFFCURVE",
"1148 1410 QCURVE SMOOTH",
"1640 1410 LINE SMOOTH",
"1648 1410 OFFCURVE",
"1648 1402 QCURVE SMOOTH",
"1648 1378 LINE SMOOTH",
"1648 1370 OFFCURVE",
"1626 1370 QCURVE SMOOTH",
"1495 1370 OFFCURVE",
"1466 1268.5 QCURVE SMOOTH",
"1461 1251 OFFCURVE",
"1461 1236 QCURVE SMOOTH",
"1461 581 LINE SMOOTH",
"1461 141.872 OFFCURVE",
"1125 15.5 QCURVE SMOOTH",
"1012 -27 OFFCURVE",
"900.5 -27 QCURVE SMOOTH",
"498.849 -27 OFFCURVE",
"309.02 182.603 QCURVE SMOOTH",
"211 290.833 OFFCURVE",
"211 450 QCURVE SMOOTH",
"211 1250 LINE SMOOTH",
"211 1334.53 OFFCURVE",
"108 1362 QCURVE SMOOTH",
"78 1370 OFFCURVE",
"36 1370 OFFCURVE",
"36 1378 QCURVE SMOOTH",
"36 1402 LINE SMOOTH",
"36 1410 OFFCURVE",
"43 1410 QCURVE SMOOTH",
"585 1410 LINE SMOOTH",
"593 1410 OFFCURVE",
"593 1402 QCURVE SMOOTH",
"593 1378 LINE SMOOTH",
"593 1370 OFFCURVE"
);
}
);
width = 1672;
}
);
unicode = 0055;
},
{
glyphname = V;
lastChange = "2017-06-09 15:50:33 +0000";
layers = (
{
anchors = (
{
name = "Anchor-1";
position = "{200, 0}";
}
);
layerId = "CB1E75F3-3DD4-4E31-8468-5A6CAC277236";
paths = (
{
closed = 1;
nodes = (
"1500 1378 LINE SMOOTH",
"1500 1370 OFFCURVE",
"1492 1370 QCURVE SMOOTH",
"1455 1370 LINE",
"1328.08 1344.62 OFFCURVE",
"1268 1162.5 QCURVE SMOOTH",
"1252 1114 OFFCURVE",
"1235 1069 QCURVE SMOOTH",
"842 8 LINE SMOOTH",
"833 -17 OFFCURVE",
"807 -27 OFFCURVE",
"784 -27 QCURVE SMOOTH",
"737 -27 LINE SMOOTH",
"713 -27 OFFCURVE",
"706 -5 QCURVE",
"179 1272 LINE SMOOTH",
"146.662 1351.05 OFFCURVE",
"21 1369 QCURVE SMOOTH",
"14 1370 OFFCURVE",
"5 1370 OFFCURVE",
"5 1378 QCURVE SMOOTH",
"5 1402 LINE SMOOTH",
"5 1410 OFFCURVE",
"13 1410 QCURVE SMOOTH",
"603 1410 LINE SMOOTH",
"611 1410 OFFCURVE",
"611 1402 QCURVE SMOOTH",
"611 1378 LINE SMOOTH",
"611 1370 OFFCURVE",
"603 1370 QCURVE SMOOTH",
"588 1370 LINE",
"563 1366 OFFCURVE",
"530.5 1362 QCURVE SMOOTH",
"402 1346.18 OFFCURVE",
"402 1260 QCURVE SMOOTH",
"402 1232.8 OFFCURVE",
"416 1202 QCURVE",
"795 280 LINE",
"804.783 260.435 OFFCURVE",
"816 281 QCURVE",
"1164 1223 LINE SMOOTH",
"1171 1243 OFFCURVE",
"1171 1298 OFFCURVE",
"1125 1349 OFFCURVE",
"1078 1357 OFFCURVE",
"1051 1361 OFFCURVE",
"997 1370 OFFCURVE",
"979 1370 OFFCURVE",
"979 1378 QCURVE SMOOTH",
"979 1402 LINE SMOOTH",
"979 1410 OFFCURVE",
"987 1410 QCURVE SMOOTH",
"1492 1410 LINE SMOOTH",
"1500 1410 OFFCURVE",
"1500 1402 QCURVE SMOOTH"
);
}
);
width = 1505;
}
);
unicode = 0056;
},
{
glyphname = W;
lastChange = "2017-06-09 15:50:33 +0000";
layers = (
{
anchors = (
{
name = "Anchor-1";
position = "{580, 0}";
}
);
layerId = "CB1E75F3-3DD4-4E31-8468-5A6CAC277236";
paths = (
{
closed = 1;
nodes = (
"552 1370 LINE SMOOTH",
"432 1370 OFFCURVE",
"432 1278 QCURVE SMOOTH",
"432 1261 OFFCURVE",
"445 1223 OFFCURVE",
"450 1202 QCURVE",
"833 280 LINE SMOOTH",
"838 270 OFFCURVE",
"860.4 270 OFFCURVE",
"867 281 QCURVE",
"1088 801 LINE",
"893 1272 LINE SMOOTH",
"874.825 1317.44 OFFCURVE",
"743 1358 QCURVE SMOOTH",
"704 1370 OFFCURVE",
"681 1370 OFFCURVE",
"681 1378 QCURVE SMOOTH",
"681 1402 LINE SMOOTH",
"681 1410 OFFCURVE",
"689 1410 QCURVE SMOOTH",
"1605 1410 LINE SMOOTH",
"1613 1410 OFFCURVE",
"1613 1402 QCURVE SMOOTH",
"1613 1378 LINE SMOOTH",
"1613 1370 OFFCURVE",
"1605 1370 QCURVE SMOOTH",
"1568 1370 LINE SMOOTH",
"1471.94 1370 OFFCURVE",
"1422 1276 QCURVE SMOOTH",
"1405 1244 OFFCURVE",
"1387 1201 QCURVE SMOOTH",
"1257 896 LINE",
"1513 280 LINE SMOOTH",
"1518 270 OFFCURVE",
"1540.4 270 OFFCURVE",
"1547 281 QCURVE",
"1970 1276 LINE SMOOTH",
"1982 1304 OFFCURVE",
"1982 1326.5 QCURVE SMOOTH",
"1982 1370 OFFCURVE",
"1867 1370 QCURVE SMOOTH",
"1805 1370 LINE SMOOTH",
"1797 1370 OFFCURVE",
"1797 1378 QCURVE SMOOTH",
"1797 1402 LINE SMOOTH",
"1797 1410 OFFCURVE",
"1805 1410 QCURVE SMOOTH",
"2250 1410 LINE SMOOTH",
"2258 1410 OFFCURVE",
"2258 1402 QCURVE SMOOTH",
"2258 1378 LINE SMOOTH",
"2258 1370 OFFCURVE",
"2250 1370 QCURVE SMOOTH",
"2203 1370 LINE SMOOTH",
"2159 1370 OFFCURVE",
"2113.86 1308.74 OFFCURVE",
"2073 1215 QCURVE SMOOTH",
"1559 8 LINE SMOOTH",
"1548 -16 OFFCURVE",
"1524 -27 OFFCURVE",
"1501 -27 QCURVE SMOOTH",
"1454 -27 LINE SMOOTH",
"1430 -27 OFFCURVE",
"1422 -5 QCURVE",
"1152 649 LINE",
"879 8 LINE SMOOTH",
"868 -16 OFFCURVE",
"844 -27 OFFCURVE",
"821 -27 QCURVE SMOOTH",
"774 -27 LINE SMOOTH",
"750 -27 OFFCURVE",
"743 -4 QCURVE",
"213 1272 LINE SMOOTH",
"197.477 1310.81 OFFCURVE",
"31 1370 OFFCURVE",
"-8 1370 OFFCURVE",
"-8 1378 QCURVE SMOOTH",
"-8 1402 LINE SMOOTH",
"-8 1410 OFFCURVE",
"0 1410 QCURVE SMOOTH",
"570 1410 LINE SMOOTH",
"578 1410 OFFCURVE",
"578 1402 QCURVE SMOOTH",
"578 1378 LINE SMOOTH",
"578 1370 OFFCURVE",
"570 1370 QCURVE SMOOTH"
);
},
{
closed = 1;
nodes = (
"1302 1323 QCURVE SMOOTH",
"1302 1365.26 OFFCURVE",
"1216 1369 QCURVE",
"1128.87 1363.87 OFFCURVE",
"1115.5 1308.5 QCURVE SMOOTH",
"1112 1294 OFFCURVE",
"1112 1261 OFFCURVE",
"1125 1223 OFFCURVE",
"1130 1202 QCURVE",
"1193 1049 LINE",
"1290 1276 LINE SMOOTH",
"1302 1304 OFFCURVE"
);
}
);
width = 2262;
}
);
unicode = 0057;
},
{
glyphname = X;
lastChange = "2017-06-09 15:50:33 +0000";
layers = (
{
anchors = (
{
name = "Anchor-1";
position = "{210, 0}";
}
);
layerId = "CB1E75F3-3DD4-4E31-8468-5A6CAC277236";
paths = (
{
closed = 1;
nodes = (
"390 100.167 QCURVE SMOOTH",
"390 40.364 OFFCURVE",
"517.5 45 QCURVE SMOOTH",
"564 46.691 OFFCURVE",
"564 32 QCURVE SMOOTH",
"564 8 LINE SMOOTH",
"564 0 OFFCURVE",
"556 0 QCURVE SMOOTH",
"13 0 LINE SMOOTH",
"5 0 OFFCURVE",
"5 8 QCURVE SMOOTH",
"5 32 LINE SMOOTH",
"5 40 OFFCURVE",
"13 40 QCURVE SMOOTH",
"52 40 LINE",
"183.692 56.173 OFFCURVE",
"314.5 223 QCURVE SMOOTH",
"349 267 OFFCURVE",
"383 305 QCURVE",
"698 720 LINE",
"393 1113 LINE SMOOTH",
"364 1150 OFFCURVE",
"337 1188 QCURVE SMOOTH",
"239.211 1325.63 OFFCURVE",
"121 1354 QCURVE",
"81 1370 OFFCURVE",
"13 1370 QCURVE SMOOTH",
"5 1370 OFFCURVE",
"5 1378 QCURVE SMOOTH",
"5 1402 LINE SMOOTH",
"5 1410 OFFCURVE",
"13 1410 QCURVE SMOOTH",
"672 1410 LINE SMOOTH",
"680 1410 OFFCURVE",
"680 1402 QCURVE SMOOTH",
"680 1378 LINE SMOOTH",
"680 1370 OFFCURVE",
"631.182 1370 QCURVE SMOOTH",
"582.364 1370 OFFCURVE",
"551 1362.5 QCURVE SMOOTH",
"502 1350.78 OFFCURVE",
"502 1309 QCURVE SMOOTH",
"502 1291.5 OFFCURVE",
"519 1266 QCURVE",
"797 897 LINE",
"803 891 OFFCURVE",
"805 887 OFFCURVE",
"821.875 887 OFFCURVE",
"842 910 QCURVE",
"1112 1256 LINE SMOOTH",
"1131 1279 OFFCURVE",
"1131 1305 QCURVE SMOOTH",
"1131 1370 OFFCURVE",
"981 1370 QCURVE SMOOTH",
"973 1370 OFFCURVE",
"973 1378 QCURVE SMOOTH",
"973 1403 LINE SMOOTH",
"973 1410 OFFCURVE",
"981 1410 QCURVE SMOOTH",
"1518 1410 LINE SMOOTH",
"1526 1410 OFFCURVE",
"1526 1402 QCURVE SMOOTH",
"1526 1378 LINE SMOOTH",
"1526 1370 OFFCURVE",
"1518 1370 QCURVE SMOOTH",
"1358.44 1370 OFFCURVE",
"1200 1186 QCURVE",
"890 781 LINE",
"891 780 OFFCURVE",
"897 769 OFFCURVE",
"928.938 724.516 QCURVE SMOOTH",
"960.875 680.031 OFFCURVE",
"1359.29 151.36 OFFCURVE",
"1384.65 128.18 QCURVE SMOOTH",
"1454.47 64.338 OFFCURVE",
"1514 53 QCURVE",
"1526 47 OFFCURVE",
"1557 45 OFFCURVE",
"1606 41.621 OFFCURVE",
"1606 23 QCURVE SMOOTH",
"1606 0 OFFCURVE",
"1567 0 QCURVE SMOOTH",
"1016 0 LINE SMOOTH",
"1008 0 OFFCURVE",
"1008 8 QCURVE SMOOTH",
"1008 32 LINE SMOOTH",
"1008 42.386 OFFCURVE",
"1038.5 41.693 QCURVE SMOOTH",
"1147 39.227 OFFCURVE",
"1147 100 QCURVE SMOOTH",
"1147 115 OFFCURVE",
"1135 135 QCURVE",
"783 600 LINE SMOOTH",
"775 610 OFFCURVE",
"757 610 OFFCURVE",
"749 600 QCURVE SMOOTH",
"404 145 LINE SMOOTH",
"390 126.333 OFFCURVE"
);
}
);
width = 1611;
}
);
unicode = 0058;
},
{
glyphname = Y;
lastChange = "2017-06-09 15:50:33 +0000";
layers = (
{
anchors = (
{
name = "Anchor-1";
position = "{220, 0}";
}
);
layerId = "CB1E75F3-3DD4-4E31-8468-5A6CAC277236";
paths = (
{
closed = 1;
nodes = (
"526 0 LINE SMOOTH",
"492 0 OFFCURVE",
"492 20 QCURVE SMOOTH",
"492 30 LINE SMOOTH",
"492 45.625 OFFCURVE",
"551 53 OFFCURVE",
"560 54 QCURVE SMOOTH",
"636 62 OFFCURVE",
"698 121 OFFCURVE",
"698 180 QCURVE SMOOTH",
"698 511 LINE SMOOTH",
"698 518.5 OFFCURVE",
"695 526 QCURVE",
"286 1178 LINE SMOOTH",
"189.978 1330.51 OFFCURVE",
"96 1354 QCURVE SMOOTH",
"91 1355 OFFCURVE",
"78.216 1357.91 QCURVE SMOOTH",
"65.432 1360.81 OFFCURVE",
"20.5 1368 QCURVE SMOOTH",
"4 1370.64 OFFCURVE",
"4 1410 OFFCURVE",
"19 1410 QCURVE SMOOTH",
"591 1410 LINE SMOOTH",
"608 1410 OFFCURVE",
"608 1370 OFFCURVE",
"591 1370 QCURVE",
"523.778 1363.28 OFFCURVE",
"502.389 1355.64 QCURVE SMOOTH",
"452 1337.64 OFFCURVE",
"452 1292 QCURVE SMOOTH",
"452 1268 OFFCURVE",
"464 1249 QCURVE SMOOTH",
"802 709 LINE SMOOTH",
"813 693 OFFCURVE",
"818 684 OFFCURVE",
"835.154 684 OFFCURVE",
"853 713 QCURVE SMOOTH",
"1123 1172 LINE",
"1135 1196 OFFCURVE",
"1166 1251 OFFCURVE",
"1166 1279.5 QCURVE SMOOTH",
"1166 1352.66 OFFCURVE",
"1065.6 1366.2 QCURVE SMOOTH",
"1030 1371 OFFCURVE",
"1024 1383 OFFCURVE",
"1024 1392 QCURVE SMOOTH",
"1024 1410 OFFCURVE",
"1041 1410 QCURVE SMOOTH",
"1508 1410 LINE SMOOTH",
"1522 1410 OFFCURVE",
"1522 1382 OFFCURVE",
"1513 1372 OFFCURVE",
"1498 1367 OFFCURVE",
"1480 1364 OFFCURVE",
"1450.5 1357 QCURVE SMOOTH",
"1379.89 1340.25 OFFCURVE",
"1298.5 1246 QCURVE SMOOTH",
"1289 1235 OFFCURVE",
"1288 1233 QCURVE SMOOTH",
"893 553 LINE",
"893 180 LINE SMOOTH",
"893 126 OFFCURVE",
"954.049 63.95 OFFCURVE",
"1099 45.043 OFFCURVE",
"1099 31 QCURVE SMOOTH",
"1099 20 LINE SMOOTH",
"1099 0 OFFCURVE",
"1065 0 QCURVE SMOOTH"
);
}
);
width = 1527;
}
);
unicode = 0059;
},
{
glyphname = Z;
lastChange = "2017-06-09 15:50:33 +0000";
layers = (
{
anchors = (
{
name = "Anchor-1";
position = "{180, 0}";
}
);
layerId = "CB1E75F3-3DD4-4E31-8468-5A6CAC277236";
paths = (
{
closed = 1;
nodes = (
"95 0 LINE SMOOTH",
"77 0 OFFCURVE",
"77 68 OFFCURVE",
"93 86 QCURVE",
"1028 1295 LINE SMOOTH",
"1032 1300 OFFCURVE",
"1032 1315 OFFCURVE",
"1012 1315 QCURVE SMOOTH",
"405 1315 LINE SMOOTH",
"322 1315 OFFCURVE",
"269.5 1258 QCURVE SMOOTH",
"252 1239 OFFCURVE",
"235.308 1190.31 OFFCURVE",
"212 1072 OFFCURVE",
"204 1063 OFFCURVE",
"175 1063 OFFCURVE",
"171 1069 QCURVE",
"186 1376 LINE",
"186 1410 OFFCURVE",
"209 1410 QCURVE SMOOTH",
"1295 1410 LINE SMOOTH",
"1311 1410 OFFCURVE",
"1311 1346 OFFCURVE",
"1298 1327 QCURVE",
"399 164 LINE SMOOTH",
"396 159 OFFCURVE",
"379 135 OFFCURVE",
"379 127 QCURVE SMOOTH",
"379 100 OFFCURVE",
"425 100 QCURVE SMOOTH",
"1130 100 LINE SMOOTH",
"1177.88 100 OFFCURVE",
"1227.06 140.595 QCURVE SMOOTH",
"1276.25 181.189 OFFCURVE",
"1318.99 316.823 OFFCURVE",
"1327 413 QCURVE",
"1329.73 428 OFFCURVE",
"1364 428 OFFCURVE",
"1364 416 QCURVE SMOOTH",
"1364 369 LINE",
"1343 59 LINE SMOOTH",
"1342 48 OFFCURVE",
"1342 37.5 QCURVE SMOOTH",
"1342 0 OFFCURVE",
"1314 0 QCURVE SMOOTH"
);
}
);
width = 1460;
}
);
unicode = 005A;
},
{
glyphname = uni0197;
lastChange = "2017-06-09 15:50:33 +0000";
layers = (
{
layerId = "CB1E75F3-3DD4-4E31-8468-5A6CAC277236";
paths = (
{
closed = 1;
nodes = (
"447 160 LINE SMOOTH",
"447 40 OFFCURVE",
"585.5 40 QCURVE SMOOTH",
"607 40 OFFCURVE",
"607 32 QCURVE SMOOTH",
"607 8 LINE SMOOTH",
"607 0 OFFCURVE",
"599 0 QCURVE SMOOTH",
"98 0 LINE SMOOTH",
"90 0 OFFCURVE",
"90 8 QCURVE SMOOTH",
"90 32 LINE SMOOTH",
"90 40 OFFCURVE",
"134 40 QCURVE SMOOTH",
"178 40 OFFCURVE",
"252 95.5 OFFCURVE",
"252 183 QCURVE SMOOTH",
"252 664 LINE",
"60 664 LINE SMOOTH",
"35 664 OFFCURVE",
"35 689 QCURVE SMOOTH",
"35 725 LINE SMOOTH",
"35 750 OFFCURVE",
"60 750 QCURVE SMOOTH",
"252 750 LINE",
"252 1250 LINE SMOOTH",
"252 1370 OFFCURVE",
"113.5 1370 QCURVE SMOOTH",
"92 1370 OFFCURVE",
"92 1378 QCURVE SMOOTH",
"92 1402 LINE SMOOTH",
"92 1410 OFFCURVE",
"100 1410 QCURVE SMOOTH",
"601 1410 LINE SMOOTH",
"609 1410 OFFCURVE",
"609 1402 QCURVE SMOOTH",
"609 1378 LINE SMOOTH",
"609 1370 OFFCURVE",
"565 1370 QCURVE SMOOTH",
"521 1370 OFFCURVE",
"447 1314.5 OFFCURVE",
"447 1227 QCURVE SMOOTH",
"447 750 LINE",
"635 750 LINE SMOOTH",
"660 750 OFFCURVE",
"660 725 QCURVE SMOOTH",
"660 689 LINE SMOOTH",
"660 664 OFFCURVE",
"635 664 QCURVE SMOOTH",
"447 664 LINE"
);
}
);
width = 701;
}
);
unicode = 0197;
},
{
glyphname = uni01A6;
lastChange = "2017-06-09 15:50:33 +0000";
layers = (
{
layerId = "CB1E75F3-3DD4-4E31-8468-5A6CAC277236";
paths = (
{
closed = 1;
nodes = (
"243 1485 LINE SMOOTH",
"243 1605 OFFCURVE",
"104.5 1605 QCURVE SMOOTH",
"83 1605 OFFCURVE",
"83 1613 QCURVE SMOOTH",
"83 1637 LINE SMOOTH",
"83 1645 OFFCURVE",
"91 1645 QCURVE SMOOTH",
"592 1645 LINE SMOOTH",
"600 1645 OFFCURVE",
"600 1637 QCURVE SMOOTH",
"600 1613 LINE SMOOTH",
"600 1605 OFFCURVE",
"556 1605 QCURVE SMOOTH",
"512 1605 OFFCURVE",
"438 1549.5 OFFCURVE",
"438 1462 QCURVE SMOOTH",
"438 1422 LINE",
"519 1425 OFFCURVE",
"601 1425 QCURVE SMOOTH",
"702 1425 LINE",
"878.701 1412.67 OFFCURVE",
"1118 1179.73 OFFCURVE",
"1118 839 OFFCURVE",
"975.5 744 QCURVE SMOOTH",
"932 715 OFFCURVE",
"881 692 QCURVE",
"892.455 678.909 OFFCURVE",
"1085 356 OFFCURVE",
"1109 318 OFFCURVE",
"1142 267 OFFCURVE",
"1176 214 OFFCURVE",
"1226 135 OFFCURVE",
"1330 40 OFFCURVE",
"1404 12 OFFCURVE",
"1407 5 OFFCURVE",
"1407 0 QCURVE SMOOTH",
"1407 -25 OFFCURVE",
"1369.5 -25 QCURVE SMOOTH",
"1232.4 -25 OFFCURVE",
"1077 80 QCURVE",
"1014.95 150.915 OFFCURVE",
"958 231 QCURVE",
"702 633 LINE SMOOTH",
"699 636 OFFCURVE",
"697 637 QCURVE SMOOTH",
"461 648 LINE",
"453 648 LINE SMOOTH",
"438 648 OFFCURVE",
"438 634 QCURVE SMOOTH",
"438 173 LINE SMOOTH",
"438 118.303 OFFCURVE",
"499.757 64.032 OFFCURVE",
"576 54 QCURVE SMOOTH",
"596 50.667 OFFCURVE",
"653.6 40 OFFCURVE",
"675 40 OFFCURVE",
"675 32 QCURVE SMOOTH",
"675 8 LINE SMOOTH",
"675 0 OFFCURVE",
"667 0 QCURVE SMOOTH",
"52 0 LINE SMOOTH",
"44 0 OFFCURVE",
"44 20 QCURVE SMOOTH",
"44 32 LINE SMOOTH",
"44 40 OFFCURVE",
"52 40 QCURVE SMOOTH",
"58 40 OFFCURVE",
"84 44 OFFCURVE",
"112 48 OFFCURVE",
"136 53 OFFCURVE",
"141 54 QCURVE SMOOTH",
"243 77.263 OFFCURVE",
"243 170 QCURVE SMOOTH",
"243 1226 LINE",
"244 1229 OFFCURVE",
"246 1237 QCURVE",
"243 1237 LINE"
);
},
{
closed = 1;
nodes = (
"480 1371 OFFCURVE",
"441.111 1370 OFFCURVE",
"438 1356 QCURVE",
"438 748 LINE",
"440 718 LINE",
"442.563 697.494 OFFCURVE",
"459 696 QCURVE SMOOTH",
"561 690 LINE",
"842.378 690 OFFCURVE",
"900.5 889.5 QCURVE SMOOTH",
"919 953 OFFCURVE",
"919 1033.5 QCURVE SMOOTH",
"919 1192.02 OFFCURVE",
"722.379 1374 OFFCURVE",
"569 1374 QCURVE SMOOTH",
"555 1374 OFFCURVE",
"531 1373 OFFCURVE",
"507 1372 OFFCURVE"
);
}
);
width = 1419;
}
);
unicode = 01A6;
},
{
glyphname = uni01B5;
lastChange = "2017-06-09 15:50:33 +0000";
layers = (
{
layerId = "CB1E75F3-3DD4-4E31-8468-5A6CAC277236";
paths = (
{
closed = 1;
nodes = (
"95 0 LINE SMOOTH",
"77 0 OFFCURVE",
"77 68 OFFCURVE",
"93 86 QCURVE",
"540 664 LINE",
"294 664 LINE SMOOTH",
"269 664 OFFCURVE",
"269 689 QCURVE SMOOTH",
"269 725 LINE SMOOTH",
"269 750 OFFCURVE",
"294 750 QCURVE SMOOTH",
"606 750 LINE",
"1028 1295 LINE SMOOTH",
"1032 1300 OFFCURVE",
"1032 1315 OFFCURVE",
"1012 1315 QCURVE SMOOTH",
"405 1315 LINE SMOOTH",
"322 1315 OFFCURVE",
"269.5 1258 QCURVE SMOOTH",
"252 1239 OFFCURVE",
"235.308 1190.31 OFFCURVE",
"212 1072 OFFCURVE",
"204 1063 OFFCURVE",
"175 1063 OFFCURVE",
"171 1069 QCURVE",
"186 1376 LINE",
"186 1410 OFFCURVE",
"209 1410 QCURVE SMOOTH",
"1295 1410 LINE SMOOTH",
"1311 1410 OFFCURVE",
"1311 1346 OFFCURVE",
"1298 1327 QCURVE",
"852 750 LINE",
"1143 750 LINE SMOOTH",
"1168 750 OFFCURVE",
"1168 725 QCURVE SMOOTH",
"1168 689 LINE SMOOTH",
"1168 664 OFFCURVE",
"1143 664 QCURVE SMOOTH",
"785 664 LINE",
"399 164 LINE SMOOTH",
"396 159 OFFCURVE",
"379 135 OFFCURVE",
"379 127 QCURVE SMOOTH",
"379 100 OFFCURVE",
"425 100 QCURVE SMOOTH",
"1130 100 LINE SMOOTH",
"1177.88 100 OFFCURVE",
"1227.06 140.595 QCURVE SMOOTH",
"1276.25 181.189 OFFCURVE",
"1318.99 316.823 OFFCURVE",
"1327 413 QCURVE",
"1329.73 428 OFFCURVE",
"1364 428 OFFCURVE",
"1364 416 QCURVE SMOOTH",
"1364 369 LINE",
"1343 59 LINE SMOOTH",
"1342 48 OFFCURVE",
"1342 37.5 QCURVE SMOOTH",
"1342 0 OFFCURVE",
"1314 0 QCURVE SMOOTH"
);
}
);
width = 1460;
}
);
unicode = 01B5;
},
{
glyphname = uni01B7;
lastChange = "2017-06-09 15:50:33 +0000";
layers = (
{
layerId = "CB1E75F3-3DD4-4E31-8468-5A6CAC277236";
paths = (
{
closed = 1;
nodes = (
"654 1305 QCURVE SMOOTH",
"262 1305 LINE SMOOTH",
"181.472 1305 OFFCURVE",
"147 1203.5 QCURVE SMOOTH",
"138 1177 OFFCURVE",
"114.667 1102 OFFCURVE",
"98 1102 QCURVE SMOOTH",
"88 1102 OFFCURVE",
"88 1106 QCURVE SMOOTH",
"145 1440 LINE SMOOTH",
"147.667 1452 OFFCURVE",
"174.8 1452 OFFCURVE",
"199.118 1411.47 OFFCURVE",
"215.559 1409.24 QCURVE SMOOTH",
"290.842 1399 OFFCURVE",
"599 1399 OFFCURVE",
"887 1405 QCURVE",
"897 1401.67 OFFCURVE",
"897 1362 OFFCURVE",
"881 1346 QCURVE",
"459 844 LINE SMOOTH",
"465 850 OFFCURVE",
"533.5 850 QCURVE SMOOTH",
"713.402 850 OFFCURVE",
"794.5 781.5 QCURVE SMOOTH",
"904 689.01 OFFCURVE",
"904 431 QCURVE SMOOTH",
"904 282.987 OFFCURVE",
"720.833 45.809 OFFCURVE",
"553.5 -2 QCURVE SMOOTH",
"466 -27 OFFCURVE",
"253.84 -27 OFFCURVE",
"50 83.783 OFFCURVE",
"50 171 QCURVE SMOOTH",
"50 200 OFFCURVE",
"92 240 OFFCURVE",
"119 240 QCURVE",
"155.266 233.693 OFFCURVE",
"220 159 OFFCURVE",
"241 134 QCURVE SMOOTH",
"321.64 38 OFFCURVE",
"411.605 38 QCURVE SMOOTH",
"611.186 38 OFFCURVE",
"707.5 289 QCURVE SMOOTH",
"740 373.697 OFFCURVE",
"740 440.848 QCURVE SMOOTH",
"740 708.328 OFFCURVE",
"620.423 759.869 QCURVE SMOOTH",
"566.76 783 OFFCURVE",
"414 783 OFFCURVE",
"304.941 753.74 OFFCURVE",
"236.129 691 OFFCURVE",
"207.962 691 OFFCURVE",
"173 751.6 OFFCURVE",
"173 766 OFFCURVE",
"174 767 QCURVE SMOOTH",
"263.192 828.512 OFFCURVE",
"575.799 1158.17 OFFCURVE",
"676.073 1305 OFFCURVE"
);
}
);
width = 1039;
}
);
unicode = 01B7;
},
{
glyphname = uni01F6;
lastChange = "2017-06-09 15:50:33 +0000";
layers = (
{
layerId = "CB1E75F3-3DD4-4E31-8468-5A6CAC277236";
paths = (
{
closed = 1;
nodes = (
"1605 1387 QCURVE SMOOTH",
"1457 1387 OFFCURVE",
"1457 1246 QCURVE SMOOTH",
"1457 244 LINE SMOOTH",
"1457 87.981 OFFCURVE",
"1646.5 68.5 QCURVE SMOOTH",
"1700 63 OFFCURVE",
"1750.5 63 QCURVE SMOOTH",
"1840.92 63 OFFCURVE",
"1958.85 170.584 OFFCURVE",
"2011 316.6 OFFCURVE",
"2011 378.3 QCURVE SMOOTH",
"2011 527.129 OFFCURVE",
"1988.5 591 QCURVE SMOOTH",
"1953.65 689.931 OFFCURVE",
"1836.5 744 QCURVE SMOOTH",
"1811 755.769 OFFCURVE",
"1811 782 OFFCURVE",
"1830 805.5 QCURVE SMOOTH",
"1882.15 870 OFFCURVE",
"1929 870 QCURVE SMOOTH",
"2048.8 870 OFFCURVE",
"2126.5 703.5 QCURVE SMOOTH",
"2182 584.571 OFFCURVE",
"2182 457.786 QCURVE SMOOTH",
"2182 218.033 OFFCURVE",
"1926.58 -27 OFFCURVE",
"1741 -27 QCURVE SMOOTH",
"1497 -27 OFFCURVE",
"1262 98 OFFCURVE",
"1262 210 QCURVE SMOOTH",
"1262 657 LINE SMOOTH",
"1262 667 OFFCURVE",
"1256 673 OFFCURVE",
"1246 673 QCURVE SMOOTH",
"458 673 LINE SMOOTH",
"448 673 OFFCURVE",
"442 667 OFFCURVE",
"442 657 QCURVE SMOOTH",
"442 170 LINE SMOOTH",
"442 50 OFFCURVE",
"619 50 QCURVE SMOOTH",
"627 50 OFFCURVE",
"627 42 QCURVE SMOOTH",
"627 18 LINE SMOOTH",
"627 10 OFFCURVE",
"620 10 QCURVE SMOOTH",
"68 10 LINE SMOOTH",
"60 10 OFFCURVE",
"60 18 QCURVE SMOOTH",
"60 42 LINE SMOOTH",
"60 50 OFFCURVE",
"79.5 50 QCURVE SMOOTH",
"247 50 OFFCURVE",
"247 193 QCURVE SMOOTH",
"247 1260 LINE SMOOTH",
"247 1377.38 OFFCURVE",
"108 1384 QCURVE SMOOTH",
"87 1385 OFFCURVE",
"87 1393 QCURVE SMOOTH",
"87 1412 LINE SMOOTH",
"87 1420 OFFCURVE",
"94 1420 QCURVE SMOOTH",
"596 1420 LINE SMOOTH",
"604 1420 OFFCURVE",
"604 1412 QCURVE SMOOTH",
"604 1393 LINE SMOOTH",
"604 1387 OFFCURVE",
"585 1387 QCURVE SMOOTH",
"442 1387 OFFCURVE",
"442 1246 QCURVE SMOOTH",
"442 784 LINE SMOOTH",
"442 774 OFFCURVE",
"448 768 OFFCURVE",
"458 768 QCURVE SMOOTH",
"1246 768 LINE SMOOTH",
"1256 768 OFFCURVE",
"1262 774 OFFCURVE",
"1262 784 QCURVE SMOOTH",
"1262 1262 LINE",
"1260 1271 OFFCURVE",
"1259 1286 OFFCURVE",
"1256 1301.5 QCURVE SMOOTH",
"1249.32 1336 OFFCURVE",
"1121.06 1379.41 OFFCURVE",
"1040 1385 QCURVE SMOOTH",
"1032 1385 OFFCURVE",
"1032 1393 QCURVE SMOOTH",
"1032 1412 LINE SMOOTH",
"1032 1420 OFFCURVE",
"1039 1420 QCURVE SMOOTH",
"1616 1420 LINE SMOOTH",
"1624 1420 OFFCURVE",
"1624 1412 QCURVE SMOOTH",
"1624 1393 LINE SMOOTH",
"1624 1387 OFFCURVE"
);
}
);
width = 2272;
}
);
unicode = 01F6;
},
{
glyphname = uni01F7;
lastChange = "2017-06-09 15:50:33 +0000";
layers = (
{
layerId = "CB1E75F3-3DD4-4E31-8468-5A6CAC277236";
paths = (
{
closed = 1;
nodes = (
"409 1218 LINE SMOOTH",
"409 1205 OFFCURVE",
"434.333 1205 OFFCURVE",
"507.583 1252.45 QCURVE SMOOTH",
"580.833 1299.89 OFFCURVE",
"725.756 1374 OFFCURVE",
"812.378 1374 QCURVE SMOOTH",
"982.823 1374 OFFCURVE",
"1166 1138.78 OFFCURVE",
"1166 963 QCURVE SMOOTH",
"1166 889.203 OFFCURVE",
"1059.53 701.214 OFFCURVE",
"849 400 OFFCURVE",
"736 280 OFFCURVE",
"627 180 OFFCURVE",
"528 96 OFFCURVE",
"490.5 58.5 QCURVE SMOOTH",
"409 -23 OFFCURVE",
"409 -85 QCURVE SMOOTH",
"409 -298 LINE SMOOTH",
"409 -389.71 OFFCURVE",
"291 -443 QCURVE SMOOTH",
"274 -451 OFFCURVE",
"224 -473 OFFCURVE",
"170 -499 OFFCURVE",
"115 -524 OFFCURVE",
"72 -544 OFFCURVE",
"44 -557 QCURVE",
"35 -557 OFFCURVE",
"35 -549 QCURVE SMOOTH",
"35 -499 LINE SMOOTH",
"35 -489 OFFCURVE",
"84.325 -469.06 QCURVE SMOOTH",
"133.65 -449.12 OFFCURVE",
"214 -370.556 OFFCURVE",
"214 -283 QCURVE SMOOTH",
"214 1159 LINE SMOOTH",
"214 1225.46 OFFCURVE",
"108 1242.5 QCURVE SMOOTH",
"63.79 1249.61 OFFCURVE",
"39 1262 OFFCURVE",
"39 1292.82 OFFCURVE",
"57 1301 QCURVE SMOOTH",
"370 1446 LINE SMOOTH",
"375 1448 OFFCURVE",
"386 1453 OFFCURVE",
"388 1453 QCURVE SMOOTH",
"409 1453 OFFCURVE",
"409 1425 QCURVE SMOOTH"
);
},
{
closed = 1;
nodes = (
"665 1249 LINE",
"586.453 1238.86 OFFCURVE",
"485.5 1167 QCURVE SMOOTH",
"456 1146 OFFCURVE",
"409 1111.61 OFFCURVE",
"409 1089 QCURVE SMOOTH",
"409 203 LINE SMOOTH",
"409 158 OFFCURVE",
"409.5 134.5 QCURVE SMOOTH",
"410 112 LINE",
"448.293 112 OFFCURVE",
"614.5 318.5 QCURVE SMOOTH",
"971 761.424 OFFCURVE",
"971 974 QCURVE SMOOTH",
"971 1103.86 OFFCURVE",
"830.973 1252 OFFCURVE",
"711 1252 QCURVE"
);
}
);
width = 1246;
}
);
unicode = 01F7;
},
{
glyphname = uni0222;
lastChange = "2017-06-09 15:50:33 +0000";
layers = (
{
layerId = "CB1E75F3-3DD4-4E31-8468-5A6CAC277236";
paths = (
{
closed = 1;
nodes = (
"153 221.39 OFFCURVE",
"153 404 QCURVE SMOOTH",
"153 554.737 OFFCURVE",
"356.368 766.322 OFFCURVE",
"529 810 QCURVE",
"350.186 862.889 OFFCURVE",
"300 1047.5 QCURVE SMOOTH",
"273.905 1143.49 OFFCURVE",
"266 1251 OFFCURVE",
"257.636 1348.02 OFFCURVE",
"239 1362 QCURVE",
"218.364 1375.27 OFFCURVE",
"164.182 1379.23 QCURVE SMOOTH",
"110 1383.2 OFFCURVE",
"110 1408.4 OFFCURVE",
"132 1415 QCURVE SMOOTH",
"364 1479 OFFCURVE",
"400 1479 OFFCURVE",
"424 1431 OFFCURVE",
"438 1351 OFFCURVE",
"448 1247 OFFCURVE",
"455 1191 QCURVE SMOOTH",
"483.165 965.681 OFFCURVE",
"572.5 882 QCURVE SMOOTH",
"612 845 OFFCURVE",
"670 832 QCURVE",
"704 835 OFFCURVE",
"771 835 OFFCURVE",
"803 832 QCURVE",
"944.457 861.924 OFFCURVE",
"988 1016 QCURVE SMOOTH",
"1025 1146.92 OFFCURVE",
"1025 1440 QCURVE SMOOTH",
"1025 1453 OFFCURVE",
"1053.5 1458.5 QCURVE SMOOTH",
"1164.91 1480 OFFCURVE",
"1231 1480 OFFCURVE",
"1231 1471 QCURVE SMOOTH",
"1231 1283.08 OFFCURVE",
"1153.04 993.054 OFFCURVE",
"1121.52 947.027 QCURVE SMOOTH",
"1056.28 851.761 OFFCURVE",
"937 812 QCURVE",
"1110.31 770.735 OFFCURVE",
"1319 553.782 OFFCURVE",
"1319 404 QCURVE SMOOTH",
"1319 220.923 OFFCURVE",
"985.586 -27 OFFCURVE",
"493.466 -27 OFFCURVE"
);
},
{
closed = 1;
nodes = (
"911.636 778 OFFCURVE",
"553.832 778 OFFCURVE",
"363 553.615 OFFCURVE",
"363 248.615 OFFCURVE",
"553.333 29 OFFCURVE",
"907.815 29 OFFCURVE",
"1109 260.149 OFFCURVE",
"1109 550.925 OFFCURVE"
);
}
);
width = 1429;
}
);
unicode = 0222;
},
{
glyphname = uni0224;
lastChange = "2017-06-09 15:50:33 +0000";
layers = (
{
layerId = "CB1E75F3-3DD4-4E31-8468-5A6CAC277236";
paths = (
{
closed = 1;
nodes = (
"379 127 QCURVE SMOOTH",
"379 100 OFFCURVE",
"425 100 QCURVE SMOOTH",
"1156 100 LINE SMOOTH",
"1319.67 100 OFFCURVE",
"1380 9.5 QCURVE SMOOTH",
"1403 -25 OFFCURVE",
"1403 -77.5 QCURVE SMOOTH",
"1403 -179.737 OFFCURVE",
"1281.96 -375.095 OFFCURVE",
"1195 -431 QCURVE",
"1113 -431 LINE",
"1269 -285.833 OFFCURVE",
"1269 -115 QCURVE SMOOTH",
"1269 0 OFFCURVE",
"1201 0 QCURVE SMOOTH",
"95 0 LINE SMOOTH",
"77 0 OFFCURVE",
"77 68 OFFCURVE",
"93 86 QCURVE",
"1028 1295 LINE SMOOTH",
"1032 1300 OFFCURVE",
"1032 1315 OFFCURVE",
"1012 1315 QCURVE SMOOTH",
"405 1315 LINE SMOOTH",
"322 1315 OFFCURVE",
"269.5 1258 QCURVE SMOOTH",
"252 1239 OFFCURVE",
"235.308 1190.31 OFFCURVE",
"212 1072 OFFCURVE",
"204 1063 OFFCURVE",
"175 1063 OFFCURVE",
"171 1069 QCURVE",
"186 1376 LINE",
"186 1410 OFFCURVE",
"209 1410 QCURVE SMOOTH",
"1295 1410 LINE SMOOTH",
"1311 1410 OFFCURVE",
"1311 1346 OFFCURVE",
"1298 1327 QCURVE",
"399 164 LINE SMOOTH",
"396 159 OFFCURVE",
"379 135 OFFCURVE"
);
}
);
width = 1503;
}
);
unicode = 0224;
},
{
glyphname = uni0248;
lastChange = "2017-06-09 15:50:33 +0000";
layers = (
{
layerId = "CB1E75F3-3DD4-4E31-8468-5A6CAC277236";
paths = (
{
closed = 1;
nodes = (
"603 1378 LINE SMOOTH",
"603 1370 OFFCURVE",
"520.6 1370 OFFCURVE",
"441 1313.14 OFFCURVE",
"441 1227 QCURVE SMOOTH",
"441 749 LINE",
"618 749 LINE SMOOTH",
"643 749 OFFCURVE",
"643 724 QCURVE SMOOTH",
"643 688 LINE SMOOTH",
"643 663 OFFCURVE",
"618 663 QCURVE SMOOTH",
"441 663 LINE",
"441 -10 LINE SMOOTH",
"441 -232.964 OFFCURVE",
"314.5 -425 QCURVE SMOOTH",
"226.968 -557.88 OFFCURVE",
"96.5 -612 QCURVE SMOOTH",
"29 -640 OFFCURVE",
"-113.714 -640 OFFCURVE",
"-250 -576.4 OFFCURVE",
"-250 -495.724 OFFCURVE",
"-186.292 -443 OFFCURVE",
"-118 -443 OFFCURVE",
"-74 -457 OFFCURVE",
"-41 -478 OFFCURVE",
"-16 -503 OFFCURVE",
"29 -538 OFFCURVE",
"67.5 -538 QCURVE SMOOTH",
"145.031 -538 OFFCURVE",
"226.151 -409.395 OFFCURVE",
"246 -234.364 OFFCURVE",
"246 -100 QCURVE SMOOTH",
"246 663 LINE",
"69 663 LINE SMOOTH",
"44 663 OFFCURVE",
"44 688 QCURVE SMOOTH",
"44 724 LINE SMOOTH",
"44 749 OFFCURVE",
"69 749 QCURVE SMOOTH",
"246 749 LINE",
"246 1250 LINE SMOOTH",
"246 1351.38 OFFCURVE",
"133 1365.5 QCURVE SMOOTH",
"97 1370 OFFCURVE",
"52 1370 QCURVE SMOOTH",
"44 1370 OFFCURVE",
"44 1378 QCURVE SMOOTH",
"44 1402 LINE SMOOTH",
"44 1410 OFFCURVE",
"52 1410 QCURVE SMOOTH",
"595 1410 LINE SMOOTH",
"603 1410 OFFCURVE",
"603 1402 QCURVE SMOOTH"
);
}
);
width = 693;
}
);
unicode = 0248;
},
{
glyphname = uni2C75;
lastChange = "2017-06-09 15:50:33 +0000";
layers = (
{
layerId = "CB1E75F3-3DD4-4E31-8468-5A6CAC277236";
paths = (
{
closed = 1;
nodes = (
"585 1377 QCURVE SMOOTH",
"442 1377 OFFCURVE",
"442 1236 QCURVE SMOOTH",
"442 774 LINE SMOOTH",
"442 764 OFFCURVE",
"448 758 OFFCURVE",
"458 758 QCURVE SMOOTH",
"956 758 LINE SMOOTH",
"966 758 OFFCURVE",
"972 764 OFFCURVE",
"972 774 QCURVE SMOOTH",
"972 893 LINE",
"1042 893 LINE",
"1042 498 LINE",
"972 498 LINE",
"972 647 LINE SMOOTH",
"972 657 OFFCURVE",
"966 663 OFFCURVE",
"956 663 QCURVE SMOOTH",
"458 663 LINE SMOOTH",
"448 663 OFFCURVE",
"442 657 OFFCURVE",
"442 647 QCURVE SMOOTH",
"442 160 LINE SMOOTH",
"442 40 OFFCURVE",
"619 40 QCURVE SMOOTH",
"627 40 OFFCURVE",
"627 32 QCURVE SMOOTH",
"627 8 LINE SMOOTH",
"627 0 OFFCURVE",
"620 0 QCURVE SMOOTH",
"68 0 LINE SMOOTH",
"60 0 OFFCURVE",
"60 8 QCURVE SMOOTH",
"60 32 LINE SMOOTH",
"60 40 OFFCURVE",
"79.5 40 QCURVE SMOOTH",
"247 40 OFFCURVE",
"247 183 QCURVE SMOOTH",
"247 1250 LINE SMOOTH",
"247 1367.38 OFFCURVE",
"108 1374 QCURVE SMOOTH",
"87 1375 OFFCURVE",
"87 1383 QCURVE SMOOTH",
"87 1402 LINE SMOOTH",
"87 1410 OFFCURVE",
"94 1410 QCURVE SMOOTH",
"596 1410 LINE SMOOTH",
"604 1410 OFFCURVE",
"604 1402 QCURVE SMOOTH",
"604 1383 LINE SMOOTH",
"604 1377 OFFCURVE"
);
}
);
width = 1077;
}
);
unicode = 2C75;
},
{
glyphname = uniA736;
lastChange = "2017-06-09 15:50:33 +0000";
layers = (
{
layerId = "CB1E75F3-3DD4-4E31-8468-5A6CAC277236";
paths = (
{
closed = 1;
nodes = (
"1314 1370 QCURVE SMOOTH",
"1146 1370 OFFCURVE",
"1146 1236 QCURVE SMOOTH",
"1146 520 LINE SMOOTH",
"1146 322.177 OFFCURVE",
"1407.73 71 OFFCURVE",
"1613 71 QCURVE SMOOTH",
"1826.31 71 OFFCURVE",
"2099 299.977 OFFCURVE",
"2099 503 QCURVE SMOOTH",
"2099 1139 LINE SMOOTH",
"2099 1233.57 OFFCURVE",
"2082.5 1271.29 QCURVE SMOOTH",
"2039.31 1370 OFFCURVE",
"1888 1370 QCURVE SMOOTH",
"1880 1370 OFFCURVE",
"1880 1378 QCURVE SMOOTH",
"1880 1402 LINE SMOOTH",
"1880 1410 OFFCURVE",
"1888 1410 QCURVE SMOOTH",
"2380 1410 LINE SMOOTH",
"2388 1410 OFFCURVE",
"2388 1402 QCURVE SMOOTH",
"2388 1378 LINE SMOOTH",
"2388 1370 OFFCURVE",
"2366 1370 QCURVE SMOOTH",
"2235 1370 OFFCURVE",
"2206 1268.5 QCURVE SMOOTH",
"2201 1251 OFFCURVE",
"2201 1236 QCURVE SMOOTH",
"2201 581 LINE SMOOTH",
"2201 141.872 OFFCURVE",
"1865 15.5 QCURVE SMOOTH",
"1752 -27 OFFCURVE",
"1439 -27 OFFCURVE",
"1195 58 OFFCURVE",
"1032 188 OFFCURVE",
"951 341 OFFCURVE",
"951 409 QCURVE SMOOTH",
"951 623 LINE",
"626 623 LINE",
"590.748 615.446 OFFCURVE",
"578.5 588.5 QCURVE SMOOTH",
"576 583 OFFCURVE",
"576 582 QCURVE SMOOTH",
"311 143 LINE",
"308 134 OFFCURVE",
"308 116 QCURVE SMOOTH",
"308 78.818 OFFCURVE",
"388 57 QCURVE SMOOTH",
"433.6 44.564 OFFCURVE",
"512 41 QCURVE",
"536 36.2 OFFCURVE",
"536 0 OFFCURVE",
"518 0 QCURVE SMOOTH",
"16 0 LINE SMOOTH",
"4 0 OFFCURVE",
"0 10 OFFCURVE",
"0 36.864 OFFCURVE",
"37.4 52.164 OFFCURVE",
"101 64 OFFCURVE",
"135 89 OFFCURVE",
"160 123 OFFCURVE",
"183 165 OFFCURVE",
"322 386 OFFCURVE",
"510 692 OFFCURVE",
"580 806 QCURVE SMOOTH",
"746.471 1077.11 OFFCURVE",
"864 1274.86 OFFCURVE",
"864 1335.67 OFFCURVE",
"808 1373 OFFCURVE",
"769 1373 QCURVE SMOOTH",
"661 1373 LINE SMOOTH",
"658 1373 OFFCURVE",
"648 1384 OFFCURVE",
"648 1390 QCURVE SMOOTH",
"648 1410 OFFCURVE",
"666 1410 QCURVE SMOOTH",
"1325 1410 LINE SMOOTH",
"1333 1410 OFFCURVE",
"1333 1402 QCURVE SMOOTH",
"1333 1378 LINE SMOOTH",
"1333 1370 OFFCURVE"
);
},
{
closed = 1;
nodes = (
"951 1166 LINE SMOOTH",
"951 1203 OFFCURVE",
"910.5 1203 OFFCURVE",
"897 1176 QCURVE",
"635 750 LINE",
"626 733.125 OFFCURVE",
"626 729 QCURVE SMOOTH",
"626 716 OFFCURVE",
"658 716 QCURVE SMOOTH",
"951 716 LINE"
);
}
);
width = 2412;
}
);
unicode = A736;
},
{
glyphname = uniA756;
lastChange = "2017-06-09 15:50:33 +0000";
layers = (
{
layerId = "CB1E75F3-3DD4-4E31-8468-5A6CAC277236";
paths = (
{
closed = 1;
nodes = (
"816 -22 QCURVE SMOOTH",
"658.148 -8.274 OFFCURVE",
"392 127 OFFCURVE",
"302.5 221.5 QCURVE SMOOTH",
"110 424.754 OFFCURVE",
"110 707 QCURVE SMOOTH",
"110 1032.43 OFFCURVE",
"555.127 1450 OFFCURVE",
"1218.51 1450 OFFCURVE",
"1656 1037.69 OFFCURVE",
"1656 717 QCURVE SMOOTH",
"1656 334.826 OFFCURVE",
"1267 77 QCURVE SMOOTH",
"1258.44 71.296 OFFCURVE",
"1123 4.902 OFFCURVE",
"1123 -4 OFFCURVE",
"1225.38 -73.258 OFFCURVE",
"1347 -170 QCURVE",
"1765 -170 LINE SMOOTH",
"1790 -170 OFFCURVE",
"1790 -195 QCURVE SMOOTH",
"1790 -231 LINE SMOOTH",
"1790 -256 OFFCURVE",
"1765 -256 QCURVE SMOOTH",
"1455 -256 LINE",
"1575.79 -351.357 OFFCURVE",
"1707 -377.6 OFFCURVE",
"1707 -391.3 QCURVE SMOOTH",
"1707 -415.528 OFFCURVE",
"1642.86 -428 OFFCURVE",
"1578.43 -428 QCURVE SMOOTH",
"1465.12 -428 OFFCURVE",
"1328 -354 QCURVE",
"1289 -328 OFFCURVE",
"1218 -281 OFFCURVE",
"1183 -256 QCURVE",
"686 -256 LINE SMOOTH",
"661 -256 OFFCURVE",
"661 -231 QCURVE SMOOTH",
"661 -195 LINE SMOOTH",
"661 -170 OFFCURVE",
"686 -170 QCURVE SMOOTH",
"1067 -170 LINE",
"1025.11 -136.486 OFFCURVE",
"987 -100 OFFCURVE",
"908.924 -35.214 OFFCURVE",
"839 -24 OFFCURVE"
);
},
{
closed = 1;
nodes = (
"318 877 OFFCURVE",
"319 768.5 QCURVE SMOOTH",
"320.824 570.587 OFFCURVE",
"474.902 245.774 OFFCURVE",
"751.546 47 OFFCURVE",
"934 47 QCURVE SMOOTH",
"1156.64 47 OFFCURVE",
"1453 396.286 OFFCURVE",
"1453 961.98 OFFCURVE",
"1307.5 1154 QCURVE SMOOTH",
"1146.94 1365.89 OFFCURVE",
"858 1383 QCURVE",
"615.543 1383 OFFCURVE",
"463 1194.5 QCURVE SMOOTH",
"393 1108 OFFCURVE"
);
}
);
width = 1767;
}
);
unicode = A756;
},
{
glyphname = uniA75E;
lastChange = "2017-06-09 15:50:33 +0000";
layers = (
{
layerId = "CB1E75F3-3DD4-4E31-8468-5A6CAC277236";
paths = (
{
closed = 1;
nodes = (
"1500 1378 LINE SMOOTH",
"1500 1370 OFFCURVE",
"1492 1370 QCURVE SMOOTH",
"1455 1370 LINE",
"1328.08 1344.62 OFFCURVE",
"1268 1162.5 QCURVE SMOOTH",
"1252 1114 OFFCURVE",
"1235 1069 QCURVE SMOOTH",
"842 8 LINE SMOOTH",
"833 -17 OFFCURVE",
"807 -27 OFFCURVE",
"784 -27 QCURVE SMOOTH",
"737 -27 LINE SMOOTH",
"713 -27 OFFCURVE",
"706 -5 QCURVE",
"519 448 LINE",
"355 -10 LINE",
"350.143 -27 OFFCURVE",
"331 -27 QCURVE SMOOTH",
"326 -27 OFFCURVE",
"323 -26 QCURVE SMOOTH",
"289 -13 LINE SMOOTH",
"272 -7.333 OFFCURVE",
"272 19.348 OFFCURVE",
"470 566 QCURVE",
"179 1272 LINE SMOOTH",
"146.662 1351.05 OFFCURVE",
"21 1369 QCURVE SMOOTH",
"14 1370 OFFCURVE",
"5 1370 OFFCURVE",
"5 1378 QCURVE SMOOTH",
"5 1402 LINE SMOOTH",
"5 1410 OFFCURVE",
"13 1410 QCURVE SMOOTH",
"603 1410 LINE SMOOTH",
"611 1410 OFFCURVE",
"611 1402 QCURVE SMOOTH",
"611 1378 LINE SMOOTH",
"611 1370 OFFCURVE",
"603 1370 QCURVE SMOOTH",
"588 1370 LINE",
"563 1366 OFFCURVE",
"530.5 1362 QCURVE SMOOTH",
"402 1346.18 OFFCURVE",
"402 1260 QCURVE SMOOTH",
"402 1232.8 OFFCURVE",
"416 1202 QCURVE",
"566 836 LINE",
"591 907 OFFCURVE",
"645 1055 OFFCURVE",
"704 1219 OFFCURVE",
"771 1405 OFFCURVE",
"810 1514 QCURVE",
"819.273 1531 OFFCURVE",
"825.136 1531 QCURVE SMOOTH",
"834 1531 LINE SMOOTH",
"838.545 1531 OFFCURVE",
"874 1516 QCURVE",
"892 1511 OFFCURVE",
"892 1492 QCURVE",
"615 717 LINE",
"795 280 LINE",
"804.783 260.435 OFFCURVE",
"816 281 QCURVE",
"1164 1223 LINE SMOOTH",
"1171 1243 OFFCURVE",
"1171 1298 OFFCURVE",
"1125 1349 OFFCURVE",
"1078 1357 OFFCURVE",
"1051 1361 OFFCURVE",
"997 1370 OFFCURVE",
"979 1370 OFFCURVE",
"979 1378 QCURVE SMOOTH",
"979 1402 LINE SMOOTH",
"979 1410 OFFCURVE",
"987 1410 QCURVE SMOOTH",
"1492 1410 LINE SMOOTH",
"1500 1410 OFFCURVE",
"1500 1402 QCURVE SMOOTH"
);
}
);
width = 1505;
}
);
unicode = A75E;
},
{
glyphname = uniA779;
lastChange = "2017-06-09 15:50:33 +0000";
layers = (
{
layerId = "CB1E75F3-3DD4-4E31-8468-5A6CAC277236";
paths = (
{
closed = 1;
nodes = (
"417.857 1415 QCURVE SMOOTH",
"56 1415 OFFCURVE",
"56 1551 QCURVE SMOOTH",
"56 1590.09 OFFCURVE",
"102 1657 QCURVE SMOOTH",
"113 1673 OFFCURVE",
"125 1687 OFFCURVE",
"134 1698 OFFCURVE",
"149 1698 OFFCURVE",
"158 1687 QCURVE SMOOTH",
"278.383 1539.03 OFFCURVE",
"562.5 1505.5 QCURVE SMOOTH",
"643 1496 OFFCURVE",
"934.599 1467.02 OFFCURVE",
"1024 1439 QCURVE",
"1309.46 1395.87 OFFCURVE",
"1687 997.246 OFFCURVE",
"1687 715 QCURVE SMOOTH",
"1687 389.571 OFFCURVE",
"1241.87 -28 OFFCURVE",
"578.489 -28 OFFCURVE",
"141 384.309 OFFCURVE",
"141 705 QCURVE SMOOTH",
"141 1087.17 OFFCURVE",
"530 1345 QCURVE SMOOTH",
"536 1349 OFFCURVE",
"582 1371 OFFCURVE",
"674 1417.9 OFFCURVE",
"674 1426 OFFCURVE",
"668 1428 QCURVE",
"528.714 1415 OFFCURVE"
);
},
{
closed = 1;
nodes = (
"1479 545 OFFCURVE",
"1478 653.5 QCURVE SMOOTH",
"1476.18 851.413 OFFCURVE",
"1322.1 1176.23 OFFCURVE",
"1045.45 1375 OFFCURVE",
"863 1375 QCURVE SMOOTH",
"640.364 1375 OFFCURVE",
"344 1025.71 OFFCURVE",
"344 460.02 OFFCURVE",
"489.5 268 QCURVE SMOOTH",
"650.057 56.109 OFFCURVE",
"939 39 QCURVE",
"1181.46 39 OFFCURVE",
"1334 227.5 QCURVE SMOOTH",
"1404 314 OFFCURVE"
);
}
);
width = 1770;
}
);
unicode = A779;
},
{
glyphname = uniA77E;
lastChange = "2017-06-09 15:50:33 +0000";
layers = (
{
layerId = "CB1E75F3-3DD4-4E31-8468-5A6CAC277236";
paths = (
{
closed = 1;
nodes = (
"1261 -296 LINE SMOOTH",
"1292 -296 OFFCURVE",
"1292 -355 QCURVE SMOOTH",
"1292 -377.667 OFFCURVE",
"1245 -479 OFFCURVE",
"1202 -582 OFFCURVE",
"1180 -630 OFFCURVE",
"1168 -640 OFFCURVE",
"1157.28 -640 QCURVE SMOOTH",
"1146.56 -640 OFFCURVE",
"1120 -601.364 OFFCURVE",
"1120 -588.455 QCURVE SMOOTH",
"1120 -575.545 OFFCURVE",
"1151 -499.455 OFFCURVE",
"1151 -466 QCURVE",
"90 -466 LINE SMOOTH",
"70 -466 OFFCURVE",
"70 -446 QCURVE",
"125 -303 LINE SMOOTH",
"127.333 -296 OFFCURVE",
"140 -296 QCURVE SMOOTH",
"590 -296 LINE",
"611 -272 OFFCURVE",
"675 -210 OFFCURVE",
"736.683 -147.436 QCURVE SMOOTH",
"798.366 -84.871 OFFCURVE",
"906 63.125 OFFCURVE",
"906 185 OFFCURVE",
"846 278 OFFCURVE",
"748 353 OFFCURVE",
"622 419 OFFCURVE",
"556.5 454.5 QCURVE SMOOTH",
"390.286 544.585 OFFCURVE",
"316 631 QCURVE SMOOTH",
"207 757.796 OFFCURVE",
"207 940 QCURVE SMOOTH",
"207 1160.93 OFFCURVE",
"519.63 1452 OFFCURVE",
"979.23 1452 OFFCURVE",
"1283 1154.65 OFFCURVE",
"1283 945 QCURVE SMOOTH",
"1283 813.733 OFFCURVE",
"1235.5 728.867 QCURVE SMOOTH",
"1104.97 495.661 OFFCURVE",
"858 445 QCURVE",
"988.415 396.56 OFFCURVE",
"1112 235.9 OFFCURVE",
"1112 165.45 QCURVE SMOOTH",
"1112 49.425 OFFCURVE",
"920.393 -195.179 OFFCURVE",
"801 -296 QCURVE"
);
},
{
closed = 1;
nodes = (
"1090 947.536 QCURVE SMOOTH",
"1090 1122.29 OFFCURVE",
"1010 1248 QCURVE SMOOTH",
"914.545 1398 OFFCURVE",
"745.598 1398 QCURVE SMOOTH",
"576.651 1398 OFFCURVE",
"411 1133.6 OFFCURVE",
"411 803.345 OFFCURVE",
"497 661 QCURVE SMOOTH",
"594.875 499 OFFCURVE",
"770 499 QCURVE SMOOTH",
"891.844 499 OFFCURVE",
"1060.18 690.778 OFFCURVE",
"1090 876.071 OFFCURVE"
);
}
);
width = 1382;
}
);
unicode = A77E;
},
{
glyphname = uniA780;
lastChange = "2017-06-09 15:50:33 +0000";
layers = (
{
layerId = "CB1E75F3-3DD4-4E31-8468-5A6CAC277236";
paths = (
{
closed = 1;
nodes = (
"1224 1410 LINE SMOOTH",
"1232 1410 OFFCURVE",
"1232 1402 QCURVE SMOOTH",
"1232 1378 LINE SMOOTH",
"1232 1370 OFFCURVE",
"1224 1370 QCURVE SMOOTH",
"1200 1370 LINE SMOOTH",
"1113.69 1370 OFFCURVE",
"1049.5 1333.5 QCURVE SMOOTH",
"1024 1319 OFFCURVE",
"990 1256 OFFCURVE",
"990 1217 QCURVE SMOOTH",
"990 159 LINE SMOOTH",
"990 96.828 OFFCURVE",
"1069 63.5 QCURVE SMOOTH",
"1124.7 40 OFFCURVE",
"1189 40 QCURVE SMOOTH",
"1211 40 LINE SMOOTH",
"1219 40 OFFCURVE",
"1219 32 QCURVE SMOOTH",
"1219 8 LINE SMOOTH",
"1219 0 OFFCURVE",
"1211 0 QCURVE SMOOTH",
"534 0 LINE SMOOTH",
"526 0 OFFCURVE",
"526 8 QCURVE SMOOTH",
"526 32 LINE SMOOTH",
"526 40 OFFCURVE",
"534 40 QCURVE SMOOTH",
"577 40 LINE SMOOTH",
"679.909 40 OFFCURVE",
"759 69 QCURVE SMOOTH",
"782 77 OFFCURVE",
"795 114 OFFCURVE",
"795 159 QCURVE SMOOTH",
"795 1268 LINE",
"793 1285 OFFCURVE",
"761 1315 OFFCURVE",
"741 1315 QCURVE SMOOTH",
"346 1315 LINE SMOOTH",
"257.25 1315 OFFCURVE",
"171 1210 QCURVE SMOOTH",
"141.429 1174 OFFCURVE",
"80 1088 OFFCURVE",
"55.273 1071 OFFCURVE",
"40 1071 OFFCURVE",
"40 1090 OFFCURVE",
"43 1096 QCURVE SMOOTH",
"194 1392 LINE SMOOTH",
"203 1410 OFFCURVE",
"215 1410 QCURVE SMOOTH"
);
}
);
width = 1239;
}
);
unicode = A780;
},
{
glyphname = uniA782;
lastChange = "2017-06-09 15:50:33 +0000";
layers = (
{
layerId = "CB1E75F3-3DD4-4E31-8468-5A6CAC277236";
paths = (
{
closed = 1;
nodes = (
"611 -603 QCURVE SMOOTH",
"611 -617 OFFCURVE",
"599 -620 QCURVE",
"102 -620 LINE",
"90 -617 OFFCURVE",
"90 -604.4 QCURVE SMOOTH",
"90 -585.48 OFFCURVE",
"143 -577 QCURVE SMOOTH",
"251 -559.72 OFFCURVE",
"251 -449 QCURVE SMOOTH",
"251 1193 LINE SMOOTH",
"251 1252.43 OFFCURVE",
"141 1269.5 QCURVE SMOOTH",
"85.778 1278.07 OFFCURVE",
"71 1291 OFFCURVE",
"71 1316.36 OFFCURVE",
"90 1325 QCURVE SMOOTH",
"406 1457 LINE SMOOTH",
"411 1459 OFFCURVE",
"422 1464 OFFCURVE",
"424 1464 QCURVE SMOOTH",
"445 1464 OFFCURVE",
"445 1437 QCURVE SMOOTH",
"445 1266 LINE",
"450 1255 OFFCURVE",
"461 1255 OFFCURVE",
"467 1257 OFFCURVE",
"523 1276 QCURVE SMOOTH",
"853.754 1388.22 OFFCURVE",
"972.333 1410 OFFCURVE",
"1021.17 1410 QCURVE SMOOTH",
"1121.08 1410 OFFCURVE",
"1188.5 1326 QCURVE SMOOTH",
"1284 1207.02 OFFCURVE",
"1284 947 QCURVE",
"1273 235 LINE",
"1273 172 LINE SMOOTH",
"1273 87.114 OFFCURVE",
"1354 59.5 QCURVE SMOOTH",
"1386.52 48.413 OFFCURVE",
"1455 37 OFFCURVE",
"1478 28.375 OFFCURVE",
"1478 3 OFFCURVE",
"1466 0 QCURVE",
"932 0 LINE",
"919 3 OFFCURVE",
"919 16 QCURVE SMOOTH",
"919 35.36 OFFCURVE",
"973 44 QCURVE SMOOTH",
"1079 60.96 OFFCURVE",
"1079 180 QCURVE",
"1089 238.333 OFFCURVE",
"1089 300.667 QCURVE SMOOTH",
"1089 409 LINE",
"1087 895.5 LINE",
"1087 969 LINE SMOOTH",
"1087 1111.17 OFFCURVE",
"1034 1226 OFFCURVE",
"949 1285 OFFCURVE",
"875 1285 QCURVE SMOOTH",
"700.457 1285 OFFCURVE",
"477 1186 QCURVE",
"447.472 1169.6 OFFCURVE",
"445 1156 QCURVE",
"445 -449 LINE SMOOTH",
"445 -559.769 OFFCURVE",
"557 -577 QCURVE SMOOTH",
"599.178 -583.489 OFFCURVE",
"611 -597 OFFCURVE"
);
}
);
width = 1543;
}
);
unicode = A782;
},
{
glyphname = uniA784;
lastChange = "2017-06-09 15:50:33 +0000";
layers = (
{
layerId = "CB1E75F3-3DD4-4E31-8468-5A6CAC277236";
paths = (
{
closed = 1;
nodes = (
"99 0 LINE",
"86 3.25 OFFCURVE",
"86 31.8 OFFCURVE",
"110 42 OFFCURVE",
"141 48 OFFCURVE",
"199.459 65.194 OFFCURVE",
"252 125.519 OFFCURVE",
"252 193 QCURVE SMOOTH",
"252 1120 LINE SMOOTH",
"252 1173.12 OFFCURVE",
"194 1194 QCURVE SMOOTH",
"169 1203 OFFCURVE",
"110 1214 OFFCURVE",
"76 1224 OFFCURVE",
"67 1233 OFFCURVE",
"67 1263.36 OFFCURVE",
"86 1272 QCURVE SMOOTH",
"406 1424 LINE SMOOTH",
"411 1426 OFFCURVE",
"422 1432 OFFCURVE",
"425 1432 QCURVE SMOOTH",
"446 1432 OFFCURVE",
"446 1402 QCURVE SMOOTH",
"446 1196 LINE SMOOTH",
"446 1181 OFFCURVE",
"459 1181 OFFCURVE",
"463 1185.5 QCURVE SMOOTH",
"480.263 1204.92 OFFCURVE",
"521 1261.5 QCURVE SMOOTH",
"627.92 1410 OFFCURVE",
"775.238 1410 OFFCURVE",
"887.5 1352.5 QCURVE SMOOTH",
"933 1329.2 OFFCURVE",
"933 1315.6 QCURVE SMOOTH",
"933 1284.25 OFFCURVE",
"876.24 1166 OFFCURVE",
"845 1166 QCURVE",
"827.698 1168.88 OFFCURVE",
"799.349 1182.44 QCURVE SMOOTH",
"699.909 1230 OFFCURVE",
"577.969 1230 OFFCURVE",
"446 1084.38 OFFCURVE",
"446 1023 QCURVE SMOOTH",
"446 193 LINE SMOOTH",
"446 97.44 OFFCURVE",
"537 66.5 QCURVE SMOOTH",
"577.526 52.721 OFFCURVE",
"649 42 OFFCURVE",
"672 31.938 OFFCURVE",
"672 3 OFFCURVE",
"660 0 QCURVE"
);
}
);
width = 934;
}
);
unicode = A784;
},
{
glyphname = D.01;
lastChange = "2017-06-09 15:50:33 +0000";
layers = (
{
layerId = "CB1E75F3-3DD4-4E31-8468-5A6CAC277236";
paths = (
{
closed = 1;
nodes = (
"77 44 LINE SMOOTH",
"259 44 OFFCURVE",
"259 160 QCURVE SMOOTH",
"259 664 LINE",
"60 664 LINE SMOOTH",
"39 664 OFFCURVE",
"39 689 QCURVE SMOOTH",
"39 725 LINE SMOOTH",
"39 750 OFFCURVE",
"60 750 QCURVE SMOOTH",
"259 750 LINE",
"259 1256 LINE SMOOTH",
"259 1312.22 OFFCURVE",
"215.889 1340.61 QCURVE SMOOTH",
"172.778 1369 OFFCURVE",
"119 1369 QCURVE SMOOTH",
"55 1369 LINE SMOOTH",
"47 1369 OFFCURVE",
"47 1377 QCURVE SMOOTH",
"47 1405 LINE SMOOTH",
"47 1413 OFFCURVE",
"55 1413 QCURVE SMOOTH",
"77 1413 LINE",
"398 1420 LINE SMOOTH",
"456 1422 OFFCURVE",
"523.5 1422 QCURVE SMOOTH",
"649 1422 LINE SMOOTH",
"823.429 1422 OFFCURVE",
"998 1396 OFFCURVE",
"1165 1361 OFFCURVE",
"1353 1240 OFFCURVE",
"1422.5 1154.5 QCURVE SMOOTH",
"1568.88 974.422 OFFCURVE",
"1575 750 QCURVE",
"1702 750 LINE SMOOTH",
"1723 750 OFFCURVE",
"1723 725 QCURVE SMOOTH",
"1723 689 LINE SMOOTH",
"1723 664 OFFCURVE",
"1702 664 QCURVE SMOOTH",
"1572 664 LINE",
"1542.85 378.34 OFFCURVE",
"1315.67 198.492 QCURVE SMOOTH",
"1088.5 18.643 OFFCURVE",
"784 0 QCURVE",
"55 0 LINE SMOOTH",
"47 0 OFFCURVE",
"47 8 QCURVE SMOOTH",
"47 36 LINE SMOOTH",
"47 44 OFFCURVE",
"55 44 QCURVE SMOOTH"
);
},
{
closed = 1;
nodes = (
"479 1375 LINE SMOOTH",
"454 1375 OFFCURVE",
"454 1348 QCURVE SMOOTH",
"454 750 LINE",
"1362 750 LINE",
"1351.8 1019.3 OFFCURVE",
"1185.52 1197.15 QCURVE SMOOTH",
"1019.25 1375 OFFCURVE",
"751 1375 QCURVE SMOOTH"
);
},
{
closed = 1;
nodes = (
"454 125 LINE SMOOTH",
"454 51.39 OFFCURVE",
"593 48 QCURVE SMOOTH",
"634 47 OFFCURVE",
"679 47 QCURVE SMOOTH",
"983.447 47 OFFCURVE",
"1164.21 211.235 QCURVE SMOOTH",
"1344.97 375.47 OFFCURVE",
"1361 664 QCURVE",
"454 664 LINE"
);
}
);
width = 1763;
}
);
unicode = F413;
},
{
glyphname = G.01_ins;
lastChange = "2017-06-09 15:50:33 +0000";
layers = (
{
layerId = "CB1E75F3-3DD4-4E31-8468-5A6CAC277236";
paths = (
{
closed = 1;
nodes = (
"7 36 LINE SMOOTH",
"7 44 OFFCURVE",
"15 44 QCURVE SMOOTH",
"37 44 LINE",
"79 47 OFFCURVE",
"167 48 OFFCURVE",
"203 58.5 QCURVE SMOOTH",
"285 82.417 OFFCURVE",
"285 178 QCURVE SMOOTH",
"285 1232 LINE SMOOTH",
"285 1330.91 OFFCURVE",
"168 1357.5 QCURVE SMOOTH",
"135 1365 OFFCURVE",
"101 1370 QCURVE",
"80 1370 LINE SMOOTH",
"72 1370 OFFCURVE",
"72 1378 QCURVE SMOOTH",
"72 1402 LINE SMOOTH",
"72 1410 OFFCURVE",
"80 1410 QCURVE SMOOTH",
"1091 1410 LINE SMOOTH",
"1109 1410 OFFCURVE",
"1125 1397 OFFCURVE",
"1127 1375 QCURVE SMOOTH",
"1145 1085 LINE SMOOTH",
"1145 1075 OFFCURVE",
"1115 1075 OFFCURVE",
"1108.5 1084 QCURVE SMOOTH",
"1101.61 1093.54 OFFCURVE",
"1083.19 1219.83 OFFCURVE",
"1033.37 1304.14 OFFCURVE",
"970 1315 QCURVE",
"493 1315 LINE SMOOTH",
"480 1315 OFFCURVE",
"480 1302 QCURVE SMOOTH",
"480 183 LINE SMOOTH",
"480 108.35 OFFCURVE",
"549 98 QCURVE SMOOTH",
"569 95 OFFCURVE",
"591 95 QCURVE SMOOTH",
"902 95 LINE SMOOTH",
"998.8 95 OFFCURVE",
"1042 179 QCURVE SMOOTH",
"1068.69 230.897 OFFCURVE",
"1078 324 QCURVE",
"1078 462 LINE SMOOTH",
"1078 551.037 OFFCURVE",
"977 566 QCURVE SMOOTH",
"950 570 OFFCURVE",
"856.898 575.371 OFFCURVE",
"838 588.854 OFFCURVE",
"838 619 OFFCURVE",
"848 619 QCURVE SMOOTH",
"1138 619 LINE",
"1160 617 OFFCURVE",
"1173 601 OFFCURVE",
"1173 583 QCURVE SMOOTH",
"1173 14 LINE SMOOTH",
"1173 9 OFFCURVE",
"1164 0 OFFCURVE",
"1159 0 QCURVE SMOOTH",
"15 0 LINE SMOOTH",
"7 0 OFFCURVE",
"7 8 QCURVE SMOOTH"
);
}
);
width = 1264;
}
);
unicode = F10E;
},
{
glyphname = L.01;
lastChange = "2017-06-09 15:50:33 +0000";
layers = (
{
layerId = "CB1E75F3-3DD4-4E31-8468-5A6CAC277236";
paths = (
{
closed = 1;
nodes = (
"539 1410 LINE",
"734 1410 LINE",
"734 285 LINE",
"1222 695 LINE",
"1222 463 LINE",
"636 -27 LINE",
"50 464 LINE",
"50 690 LINE",
"539 285 LINE"
);
}
);
width = 1272;
}
);
unicode = 2186;
},
{
glyphname = L.02;
lastChange = "2017-06-09 15:50:33 +0000";
layers = (
{
layerId = "CB1E75F3-3DD4-4E31-8468-5A6CAC277236";
paths = (
{
closed = 1;
nodes = (
"1236 573 LINE",
"1236 324 OFFCURVE",
"885 -27 OFFCURVE",
"636 -27 QCURVE SMOOTH",
"387 -27 OFFCURVE",
"36 324 OFFCURVE",
"36 573 QCURVE",
"231 573 LINE",
"231 430.639 OFFCURVE",
"318.064 321.546 QCURVE SMOOTH",
"405.128 212.454 OFFCURVE",
"539 180 QCURVE",
"539 1410 LINE",
"734 1410 LINE",
"734 180 LINE",
"865.083 211.778 OFFCURVE",
"953.041 320.931 QCURVE SMOOTH",
"1041 430.084 OFFCURVE",
"1041 573 QCURVE"
);
}
);
width = 1272;
}
);
unicode = F411;
},
{
glyphname = M.02;
lastChange = "2017-06-09 15:50:33 +0000";
layers = (
{
layerId = "CB1E75F3-3DD4-4E31-8468-5A6CAC277236";
paths = (
{
closed = 1;
nodes = (
"190 1274 QCURVE SMOOTH",
"190 1268 OFFCURVE",
"182 1268 QCURVE SMOOTH",
"158 1268 LINE SMOOTH",
"150 1268 OFFCURVE",
"150 1274 QCURVE SMOOTH",
"150 1741 LINE SMOOTH",
"150 1749 OFFCURVE",
"158 1749 QCURVE SMOOTH",
"182 1749 LINE SMOOTH",
"190 1749 OFFCURVE",
"190 1741 QCURVE SMOOTH",
"190 1576.76 OFFCURVE",
"331 1563 QCURVE SMOOTH",
"372 1559 OFFCURVE",
"562.699 1550.18 OFFCURVE",
"1194.24 1506 OFFCURVE",
"1389 1506 QCURVE SMOOTH",
"1426 1506 LINE SMOOTH",
"1466.44 1506 OFFCURVE",
"1520 1597.5 OFFCURVE",
"1520 1639 OFFCURVE",
"1528 1639 QCURVE SMOOTH",
"1552 1639 LINE SMOOTH",
"1560 1639 OFFCURVE",
"1560 1631 QCURVE SMOOTH",
"1560 1342 LINE",
"1556.62 1323.41 OFFCURVE",
"1538 1311 QCURVE",
"493 842 LINE",
"486 837 OFFCURVE",
"476 831 OFFCURVE",
"477.319 807.255 OFFCURVE",
"494 801 QCURVE",
"1520 338 LINE",
"1560 316.947 OFFCURVE",
"1560 299 QCURVE SMOOTH",
"1560 8 LINE SMOOTH",
"1560 0 OFFCURVE",
"1552 0 QCURVE SMOOTH",
"1528 0 LINE SMOOTH",
"1520 0 OFFCURVE",
"1520 5 QCURVE SMOOTH",
"1520 35.261 OFFCURVE",
"1500.5 78.5 QCURVE SMOOTH",
"1470.06 146 OFFCURVE",
"1411 146 QCURVE",
"306 86 LINE",
"254.471 84.223 OFFCURVE",
"190 -19.923 OFFCURVE",
"190 -105 QCURVE SMOOTH",
"190 -112 OFFCURVE",
"183 -112 QCURVE SMOOTH",
"159 -112 LINE SMOOTH",
"151.6 -112 OFFCURVE",
"150 -104 QCURVE",
"150 464 LINE SMOOTH",
"150 472 OFFCURVE",
"158 472 QCURVE SMOOTH",
"182 472 LINE SMOOTH",
"190 472 OFFCURVE",
"190 464 QCURVE SMOOTH",
"190 285 OFFCURVE",
"277 285 QCURVE",
"1232 338 LINE SMOOTH",
"1242 339 OFFCURVE",
"1242 348 OFFCURVE",
"1233 351 QCURVE",
"157 848 LINE SMOOTH",
"150 851 OFFCURVE",
"150 890.333 OFFCURVE",
"158 893 QCURVE SMOOTH",
"1236 1383 LINE SMOOTH",
"1250 1389 OFFCURVE",
"1250 1400 OFFCURVE",
"1228.5 1400 QCURVE SMOOTH",
"1182.27 1400 OFFCURVE",
"405.545 1448 OFFCURVE",
"310 1448 QCURVE SMOOTH",
"269 1448 LINE",
"211.681 1432.92 OFFCURVE",
"195 1334.5 QCURVE SMOOTH",
"190 1305 OFFCURVE"
);
}
);
width = 1710;
}
);
unicode = F445;
},
{
glyphname = Thorn.01;
lastChange = "2017-06-09 15:50:33 +0000";
layers = (
{
layerId = "CB1E75F3-3DD4-4E31-8468-5A6CAC277236";
paths = (
{
closed = 1;
nodes = (
"409 1218 LINE SMOOTH",
"409 1205 OFFCURVE",
"434.333 1205 OFFCURVE",
"507.583 1252.45 QCURVE SMOOTH",
"580.833 1299.89 OFFCURVE",
"725.756 1374 OFFCURVE",
"812.378 1374 QCURVE SMOOTH",
"982.823 1374 OFFCURVE",
"1166 1138.78 OFFCURVE",
"1166 963 QCURVE SMOOTH",
"1166 889.203 OFFCURVE",
"1059.53 701.214 OFFCURVE",
"849 400 OFFCURVE",
"736 280 OFFCURVE",
"627 180 OFFCURVE",
"528 96 OFFCURVE",
"490.5 58.5 QCURVE SMOOTH",
"409 -23 OFFCURVE",
"409 -85 QCURVE SMOOTH",
"409 -381 LINE SMOOTH",
"409 -472.71 OFFCURVE",
"291 -526 QCURVE",
"258.594 -539.344 OFFCURVE",
"170 -582 OFFCURVE",
"115 -607 OFFCURVE",
"72 -627 OFFCURVE",
"44 -640 QCURVE",
"35 -640 OFFCURVE",
"35 -632 QCURVE SMOOTH",
"35 -582 LINE SMOOTH",
"35 -572 OFFCURVE",
"84.325 -552.06 QCURVE SMOOTH",
"133.65 -532.12 OFFCURVE",
"214 -453.556 OFFCURVE",
"214 -366 QCURVE SMOOTH",
"214 1381 LINE SMOOTH",
"214 1447.46 OFFCURVE",
"108 1464.5 QCURVE SMOOTH",
"63.79 1471.61 OFFCURVE",
"39 1484 OFFCURVE",
"39 1514.82 OFFCURVE",
"57 1523 QCURVE SMOOTH",
"370 1668 LINE SMOOTH",
"375 1670 OFFCURVE",
"386 1675 OFFCURVE",
"388 1675 QCURVE SMOOTH",
"409 1675 OFFCURVE",
"409 1647 QCURVE SMOOTH"
);
},
{
closed = 1;
nodes = (
"410 112 LINE",
"448.293 112 OFFCURVE",
"614.5 318.5 QCURVE SMOOTH",
"971 761.424 OFFCURVE",
"971 974 QCURVE SMOOTH",
"971 1103.86 OFFCURVE",
"830.973 1252 OFFCURVE",
"711 1252 QCURVE",
"589.322 1239.33 OFFCURVE",
"415.438 1117.61 OFFCURVE",
"409 1094 OFFCURVE",
"409 1089 QCURVE SMOOTH",
"409 203 LINE SMOOTH",
"409 158 OFFCURVE",
"409.5 134.5 QCURVE SMOOTH"
);
}
);
width = 1216;
}
);
unicode = F340;
},
{
glyphname = Thorn.02;
lastChange = "2017-06-09 15:50:33 +0000";
layers = (
{
layerId = "CB1E75F3-3DD4-4E31-8468-5A6CAC277236";
paths = (
{
closed = 1;
nodes = (
"409 1218 LINE SMOOTH",
"409 1205 OFFCURVE",
"434.333 1205 OFFCURVE",
"580.833 1299.89 OFFCURVE",
"725.756 1374 OFFCURVE",
"812.378 1374 QCURVE SMOOTH",
"982.823 1374 OFFCURVE",
"1166 1138.78 OFFCURVE",
"1166 963 QCURVE SMOOTH",
"1166 889.203 OFFCURVE",
"1059.53 701.214 OFFCURVE",
"849 400 OFFCURVE",
"792.5 336 QCURVE SMOOTH",
"703.475 235.158 OFFCURVE",
"577.5 113 QCURVE SMOOTH",
"409 -50.394 OFFCURVE",
"409 -135 QCURVE SMOOTH",
"409 -381 LINE SMOOTH",
"409 -472.71 OFFCURVE",
"291 -526 QCURVE",
"258.594 -539.344 OFFCURVE",
"170 -582 OFFCURVE",
"115 -607 OFFCURVE",
"72 -627 OFFCURVE",
"44 -640 QCURVE",
"35 -640 OFFCURVE",
"35 -632 QCURVE SMOOTH",
"35 -582 LINE SMOOTH",
"35 -572 OFFCURVE",
"133.65 -532.12 OFFCURVE",
"214 -453.556 OFFCURVE",
"214 -366 QCURVE SMOOTH",
"214 1381 LINE SMOOTH",
"214 1447.46 OFFCURVE",
"108 1464.5 QCURVE SMOOTH",
"63.79 1471.61 OFFCURVE",
"39 1484 OFFCURVE",
"39 1514.82 OFFCURVE",
"57 1523 QCURVE SMOOTH",
"370 1668 LINE SMOOTH",
"375 1670 OFFCURVE",
"386 1675 OFFCURVE",
"388 1675 QCURVE SMOOTH",
"409 1675 OFFCURVE",
"409 1647 QCURVE SMOOTH"
);
},
{
closed = 1;
nodes = (
"410 62 LINE",
"446.351 62 OFFCURVE",
"614.5 284.5 QCURVE SMOOTH",
"867.719 619.567 OFFCURVE",
"949.5 853.5 QCURVE SMOOTH",
"971 915 OFFCURVE",
"971 974 QCURVE SMOOTH",
"971 1103.86 OFFCURVE",
"830.973 1252 OFFCURVE",
"711 1252 QCURVE",
"589.322 1239.33 OFFCURVE",
"415.438 1117.61 OFFCURVE",
"409 1094 OFFCURVE",
"409 1089 QCURVE SMOOTH",
"409 153 LINE SMOOTH",
"409 108 OFFCURVE",
"409.5 84.5 QCURVE SMOOTH"
);
}
);
width = 1216;
}
);
unicode = F342;
},
{
glyphname = V.01;
lastChange = "2017-06-09 15:50:33 +0000";
layers = (
{
layerId = "CB1E75F3-3DD4-4E31-8468-5A6CAC277236";
paths = (
{
closed = 1;
nodes = (
"1423 689 LINE SMOOTH",
"1423 664 OFFCURVE",
"1402 664 QCURVE SMOOTH",
"1085 664 LINE",
"842 8 LINE SMOOTH",
"833 -17 OFFCURVE",
"807 -27 OFFCURVE",
"784 -27 QCURVE SMOOTH",
"737 -27 LINE SMOOTH",
"713 -27 OFFCURVE",
"706 -5 QCURVE",
"430 664 LINE",
"100 664 LINE SMOOTH",
"79 664 OFFCURVE",
"79 689 QCURVE SMOOTH",
"79 725 LINE SMOOTH",
"79 750 OFFCURVE",
"100 750 QCURVE SMOOTH",
"394 750 LINE",
"179 1272 LINE SMOOTH",
"146.662 1351.05 OFFCURVE",
"21 1369 QCURVE SMOOTH",
"14 1370 OFFCURVE",
"5 1370 OFFCURVE",
"5 1378 QCURVE SMOOTH",
"5 1402 LINE SMOOTH",
"5 1410 OFFCURVE",
"13 1410 QCURVE SMOOTH",
"603 1410 LINE SMOOTH",
"611 1410 OFFCURVE",
"611 1402 QCURVE SMOOTH",
"611 1378 LINE SMOOTH",
"611 1370 OFFCURVE",
"603 1370 QCURVE SMOOTH",
"588 1370 LINE",
"563 1366 OFFCURVE",
"530.5 1362 QCURVE SMOOTH",
"402 1346.18 OFFCURVE",
"402 1260 QCURVE SMOOTH",
"402 1232.8 OFFCURVE",
"416 1202 QCURVE",
"602 750 LINE",
"989 750 LINE",
"1164 1223 LINE SMOOTH",
"1171 1243 OFFCURVE",
"1171 1298 OFFCURVE",
"1125 1349 OFFCURVE",
"1078 1357 OFFCURVE",
"1051 1361 OFFCURVE",
"997 1370 OFFCURVE",
"979 1370 OFFCURVE",
"979 1378 QCURVE SMOOTH",
"979 1402 LINE SMOOTH",
"979 1410 OFFCURVE",
"987 1410 QCURVE SMOOTH",
"1492 1410 LINE SMOOTH",
"1500 1410 OFFCURVE",
"1500 1402 QCURVE SMOOTH",
"1500 1378 LINE SMOOTH",
"1500 1370 OFFCURVE",
"1492 1370 QCURVE SMOOTH",
"1455 1370 LINE",
"1328.08 1344.62 OFFCURVE",
"1268 1162.5 QCURVE SMOOTH",
"1252 1114 OFFCURVE",
"1235 1069 QCURVE SMOOTH",
"1117 750 LINE",
"1402 750 LINE SMOOTH",
"1423 750 OFFCURVE",
"1423 725 QCURVE SMOOTH"
);
},
{
closed = 1;
nodes = (
"816 281 QCURVE",
"957 664 LINE",
"637 664 LINE",
"795 280 LINE",
"804.783 260.435 OFFCURVE"
);
}
);
width = 1505;
}
);
unicode = F415;
},
{
glyphname = X.01;
lastChange = "2017-06-09 15:50:33 +0000";
layers = (
{
layerId = "CB1E75F3-3DD4-4E31-8468-5A6CAC277236";
paths = (
{
closed = 1;
nodes = (
"390 100.167 QCURVE SMOOTH",
"390 40.364 OFFCURVE",
"517.5 45 QCURVE SMOOTH",
"564 46.691 OFFCURVE",
"564 32 QCURVE SMOOTH",
"564 8 LINE SMOOTH",
"564 0 OFFCURVE",
"556 0 QCURVE SMOOTH",
"13 0 LINE SMOOTH",
"5 0 OFFCURVE",
"5 8 QCURVE SMOOTH",
"5 32 LINE SMOOTH",
"5 40 OFFCURVE",
"13 40 QCURVE SMOOTH",
"52 40 LINE",
"183.692 56.173 OFFCURVE",
"314.5 223 QCURVE SMOOTH",
"349 267 OFFCURVE",
"383 305 QCURVE",
"655 664 LINE",
"160 664 LINE SMOOTH",
"139 664 OFFCURVE",
"139 689 QCURVE SMOOTH",
"139 725 LINE SMOOTH",
"139 750 OFFCURVE",
"160 750 QCURVE SMOOTH",
"674 750 LINE",
"393 1113 LINE SMOOTH",
"364 1150 OFFCURVE",
"337 1188 QCURVE SMOOTH",
"239.211 1325.63 OFFCURVE",
"121 1354 QCURVE",
"81 1370 OFFCURVE",
"13 1370 QCURVE SMOOTH",
"5 1370 OFFCURVE",
"5 1378 QCURVE SMOOTH",
"5 1402 LINE SMOOTH",
"5 1410 OFFCURVE",
"13 1410 QCURVE SMOOTH",
"672 1410 LINE SMOOTH",
"680 1410 OFFCURVE",
"680 1402 QCURVE SMOOTH",
"680 1378 LINE SMOOTH",
"680 1370 OFFCURVE",
"631.182 1370 QCURVE SMOOTH",
"582.364 1370 OFFCURVE",
"551 1362.5 QCURVE SMOOTH",
"502 1350.78 OFFCURVE",
"502 1309 QCURVE SMOOTH",
"502 1291.5 OFFCURVE",
"519 1266 QCURVE",
"797 897 LINE",
"803 891 OFFCURVE",
"805 887 OFFCURVE",
"821.875 887 OFFCURVE",
"842 910 QCURVE",
"1112 1256 LINE SMOOTH",
"1131 1279 OFFCURVE",
"1131 1305 QCURVE SMOOTH",
"1131 1370 OFFCURVE",
"981 1370 QCURVE SMOOTH",
"973 1370 OFFCURVE",
"973 1378 QCURVE SMOOTH",
"973 1403 LINE SMOOTH",
"973 1410 OFFCURVE",
"981 1410 QCURVE SMOOTH",
"1518 1410 LINE SMOOTH",
"1526 1410 OFFCURVE",
"1526 1402 QCURVE SMOOTH",
"1526 1378 LINE SMOOTH",
"1526 1370 OFFCURVE",
"1518 1370 QCURVE SMOOTH",
"1358.44 1370 OFFCURVE",
"1200 1186 QCURVE",
"890 781 LINE",
"896 769 OFFCURVE",
"910 750 QCURVE",
"1451 750 LINE SMOOTH",
"1472 750 OFFCURVE",
"1472 725 QCURVE SMOOTH",
"1472 689 LINE SMOOTH",
"1472 664 OFFCURVE",
"1451 664 QCURVE SMOOTH",
"973 664 LINE",
"997 631 OFFCURVE",
"1066 540 OFFCURVE",
"1160 415 OFFCURVE",
"1284 255 OFFCURVE",
"1375 137 OFFCURVE",
"1392.5 121 QCURVE SMOOTH",
"1454.47 64.338 OFFCURVE",
"1514 53 QCURVE",
"1526 47 OFFCURVE",
"1557 45 OFFCURVE",
"1606 41.621 OFFCURVE",
"1606 23 QCURVE SMOOTH",
"1606 0 OFFCURVE",
"1567 0 QCURVE SMOOTH",
"1016 0 LINE SMOOTH",
"1008 0 OFFCURVE",
"1008 8 QCURVE SMOOTH",
"1008 32 LINE SMOOTH",
"1008 42.386 OFFCURVE",
"1038.5 41.693 QCURVE SMOOTH",
"1147 39.227 OFFCURVE",
"1147 100 QCURVE SMOOTH",
"1147 115 OFFCURVE",
"1135 135 QCURVE",
"783 600 LINE SMOOTH",
"775 610 OFFCURVE",
"757 610 OFFCURVE",
"749 600 QCURVE SMOOTH",
"404 145 LINE SMOOTH",
"390 126.333 OFFCURVE"
);
}
);
width = 1611;
}
);
unicode = F414;
},
{
glyphname = A.ins;
lastChange = "2017-06-09 15:50:33 +0000";
layers = (
{
layerId = "CB1E75F3-3DD4-4E31-8468-5A6CAC277236";
paths = (
{
closed = 1;
nodes = (
"532 8 LINE SMOOTH",
"532 0 OFFCURVE",
"524 0 QCURVE SMOOTH",
"13 0 LINE SMOOTH",
"5 0 OFFCURVE",
"5 8 QCURVE SMOOTH",
"5 32 LINE SMOOTH",
"5 40 OFFCURVE",
"18.5 40.5 QCURVE SMOOTH",
"155.252 45.565 OFFCURVE",
"203 186 QCURVE SMOOTH",
"593 1315 LINE",
"257 1315 LINE SMOOTH",
"167.963 1315 OFFCURVE",
"153 1214 QCURVE SMOOTH",
"149 1187 OFFCURVE",
"143.629 1093.9 OFFCURVE",
"130.146 1075 OFFCURVE",
"100 1075 OFFCURVE",
"100 1085 QCURVE SMOOTH",
"100 1375 LINE",
"102 1397 OFFCURVE",
"118 1410 OFFCURVE",
"136 1410 QCURVE SMOOTH",
"1304 1410 LINE SMOOTH",
"1322 1410 OFFCURVE",
"1338 1397 OFFCURVE",
"1340 1375 QCURVE",
"1340 1085 LINE SMOOTH",
"1340 1075 OFFCURVE",
"1310 1075 OFFCURVE",
"1303.5 1084 QCURVE SMOOTH",
"1296.37 1093.87 OFFCURVE",
"1288.51 1230.23 OFFCURVE",
"1271.5 1263.5 QCURVE SMOOTH",
"1245.18 1315 OFFCURVE",
"1183 1315 QCURVE SMOOTH",
"847 1315 LINE",
"1239 215 LINE",
"1253 188 OFFCURVE",
"1270 144 OFFCURVE",
"1281 125.5 QCURVE SMOOTH",
"1304.84 85.41 OFFCURVE",
"1360 63 QCURVE",
"1406 40 OFFCURVE",
"1444 40 QCURVE SMOOTH",
"1452 40 OFFCURVE",
"1452 31 QCURVE SMOOTH",
"1452 8 LINE SMOOTH",
"1452 0 OFFCURVE",
"1444 0 QCURVE SMOOTH",
"832 0 LINE SMOOTH",
"824 0 OFFCURVE",
"824 8 QCURVE SMOOTH",
"824 32 LINE SMOOTH",
"824 40.39 OFFCURVE",
"898 44 OFFCURVE",
"922 46.5 QCURVE SMOOTH",
"1061 60.979 OFFCURVE",
"1061 140 QCURVE SMOOTH",
"1061 146 OFFCURVE",
"1059 154 QCURVE SMOOTH",
"908 580 LINE SMOOTH",
"907 582 OFFCURVE",
"904.5 589 QCURVE SMOOTH",
"892.357 623 OFFCURVE",
"862 623 QCURVE SMOOTH",
"507 623 LINE SMOOTH",
"477 623 OFFCURVE",
"460.5 590 QCURVE SMOOTH",
"457 583 OFFCURVE",
"457 582 QCURVE SMOOTH",
"307 143 LINE",
"307 134 LINE SMOOTH",
"307 107.674 OFFCURVE",
"333.5 87.337 QCURVE SMOOTH",
"395.182 40 OFFCURVE",
"498 40 QCURVE SMOOTH",
"524 40 LINE SMOOTH",
"532 40 OFFCURVE",
"532 32 QCURVE SMOOTH"
);
},
{
closed = 1;
nodes = (
"828 734 LINE SMOOTH",
"846 734 OFFCURVE",
"846 749 QCURVE SMOOTH",
"846 757 OFFCURVE",
"842 767 QCURVE SMOOTH",
"693 1177 LINE SMOOTH",
"683 1204 OFFCURVE",
"678 1204 QCURVE SMOOTH",
"672.769 1204 OFFCURVE",
"662 1176 QCURVE",
"522 767 LINE SMOOTH",
"518 757 OFFCURVE",
"518 734 OFFCURVE",
"533 734 QCURVE SMOOTH"
);
}
);
width = 1457;
}
);
unicode = F13A;
},
{
glyphname = C.ins;
lastChange = "2017-06-09 15:50:33 +0000";
layers = (
{
layerId = "CB1E75F3-3DD4-4E31-8468-5A6CAC277236";
paths = (
{
closed = 1;
nodes = (
"7 8 QCURVE SMOOTH",
"7 36 LINE SMOOTH",
"7 44 OFFCURVE",
"15 44 QCURVE SMOOTH",
"37 44 LINE",
"79 47 OFFCURVE",
"167 48 OFFCURVE",
"203 58.5 QCURVE SMOOTH",
"285 82.417 OFFCURVE",
"285 178 QCURVE SMOOTH",
"285 1232 LINE SMOOTH",
"285 1330.91 OFFCURVE",
"168 1357.5 QCURVE SMOOTH",
"135 1365 OFFCURVE",
"101 1370 QCURVE",
"80 1370 LINE SMOOTH",
"72 1370 OFFCURVE",
"72 1378 QCURVE SMOOTH",
"72 1402 LINE SMOOTH",
"72 1410 OFFCURVE",
"80 1410 QCURVE SMOOTH",
"1091 1410 LINE SMOOTH",
"1109 1410 OFFCURVE",
"1125 1397 OFFCURVE",
"1127 1375 QCURVE SMOOTH",
"1145 1085 LINE SMOOTH",
"1145 1075 OFFCURVE",
"1115 1075 OFFCURVE",
"1108.5 1084 QCURVE SMOOTH",
"1101.61 1093.54 OFFCURVE",
"1083.19 1219.83 OFFCURVE",
"1033.37 1304.14 OFFCURVE",
"970 1315 QCURVE",
"493 1315 LINE SMOOTH",
"480 1315 OFFCURVE",
"480 1302 QCURVE SMOOTH",
"480 183 LINE SMOOTH",
"480 108.35 OFFCURVE",
"549 98 QCURVE SMOOTH",
"569 95 OFFCURVE",
"591 95 QCURVE SMOOTH",
"924 95 LINE SMOOTH",
"1026.53 95 OFFCURVE",
"1084 186 QCURVE SMOOTH",
"1125.36 251.488 OFFCURVE",
"1134 335 QCURVE SMOOTH",
"1137 363 OFFCURVE",
"1164 363 QCURVE SMOOTH",
"1176 363 OFFCURVE",
"1176 350 QCURVE",
"1143 14 LINE",
"1137.4 0 OFFCURVE",
"1129 0 QCURVE SMOOTH",
"15 0 LINE SMOOTH",
"7 0 OFFCURVE"
);
}
);
width = 1264;
}
);
unicode = F106;
},
{
glyphname = E.ins;
lastChange = "2017-06-09 15:50:33 +0000";
layers = (
{
layerId = "CB1E75F3-3DD4-4E31-8468-5A6CAC277236";
paths = (
{
closed = 1;
nodes = (
"1345 38 LINE",
"1339.6 29.906 OFFCURVE",
"1301.33 39 OFFCURVE",
"1249 39 OFFCURVE",
"1154 18 OFFCURVE",
"949.625 -27 OFFCURVE",
"865.812 -27 QCURVE SMOOTH",
"676 -27 OFFCURVE",
"318.963 151.519 OFFCURVE",
"105 480.692 OFFCURVE",
"105 914.765 OFFCURVE",
"212 1091 QCURVE SMOOTH",
"368.4 1348.6 OFFCURVE",
"682 1427 QCURVE SMOOTH",
"782 1452 OFFCURVE",
"882.5 1452 QCURVE SMOOTH",
"1019.46 1452 OFFCURVE",
"1207 1406 QCURVE SMOOTH",
"1263.86 1392.05 OFFCURVE",
"1343.09 1362 OFFCURVE",
"1352 1362 QCURVE",
"1382 1370 LINE",
"1413 1370 LINE SMOOTH",
"1425 1370 OFFCURVE",
"1425 1353 QCURVE SMOOTH",
"1425 1042 LINE SMOOTH",
"1425 1032 OFFCURVE",
"1388.6 1032 OFFCURVE",
"1383 1041 OFFCURVE",
"1377 1054 OFFCURVE",
"1370 1068 OFFCURVE",
"1363 1080 OFFCURVE",
"1362 1083 QCURVE SMOOTH",
"1211.5 1384 OFFCURVE",
"907 1384 QCURVE SMOOTH",
"655.254 1384 OFFCURVE",
"351.579 1088.65 OFFCURVE",
"327 849 QCURVE",
"343.929 770 OFFCURVE",
"386 770 QCURVE SMOOTH",
"1392 770 LINE",
"1392 666 LINE",
"386 666 LINE SMOOTH",
"349.333 666 OFFCURVE",
"332 614 QCURVE",
"371.806 364.691 OFFCURVE",
"699.723 43 OFFCURVE",
"956 43 QCURVE SMOOTH",
"1115.7 43 OFFCURVE",
"1378.55 233.414 OFFCURVE",
"1454 371 QCURVE SMOOTH",
"1456.4 377 OFFCURVE",
"1466 377 QCURVE SMOOTH",
"1479 377 LINE SMOOTH",
"1489 377 OFFCURVE",
"1489 352.8 OFFCURVE",
"1483 342 QCURVE SMOOTH"
);
}
);
width = 1566;
}
);
unicode = F10A;
},
{
glyphname = F.ins;
lastChange = "2017-06-09 15:50:33 +0000";
layers = (
{
layerId = "CB1E75F3-3DD4-4E31-8468-5A6CAC277236";
paths = (
{
closed = 1;
nodes = (
"62 -620 LINE",
"50 -617 OFFCURVE",
"50 -588.8 OFFCURVE",
"73 -579 OFFCURVE",
"108 -573 OFFCURVE",
"179.935 -555.455 OFFCURVE",
"244 -495.273 OFFCURVE",
"244 -430 QCURVE SMOOTH",
"244 1104 LINE SMOOTH",
"244 1154.88 OFFCURVE",
"186.5 1176 QCURVE SMOOTH",
"162 1185 OFFCURVE",
"103 1196 OFFCURVE",
"69 1206 OFFCURVE",
"61 1215 OFFCURVE",
"61 1243.64 OFFCURVE",
"80 1254 QCURVE",
"399 1404 LINE SMOOTH",
"404 1406 OFFCURVE",
"415 1411 OFFCURVE",
"417 1411 QCURVE SMOOTH",
"439 1411 OFFCURVE",
"439 1381 QCURVE SMOOTH",
"439 1179 LINE SMOOTH",
"439 1164 OFFCURVE",
"452 1164 OFFCURVE",
"464 1176 QCURVE",
"606 1389 OFFCURVE",
"694 1389 QCURVE SMOOTH",
"773.763 1389 OFFCURVE",
"1039 1264.57 QCURVE SMOOTH",
"1106 1233.14 OFFCURVE",
"1106 1220.57 QCURVE SMOOTH",
"1106 1190.62 OFFCURVE",
"1048.88 1074 OFFCURVE",
"1020 1074 QCURVE SMOOTH",
"1017 1074 LINE",
"993.667 1082.33 OFFCURVE",
"688.323 1212 OFFCURVE",
"645.161 1212 QCURVE SMOOTH",
"568.222 1212 OFFCURVE",
"439 1066.62 OFFCURVE",
"439 1007 QCURVE SMOOTH",
"439 344 LINE",
"440.4 337 OFFCURVE",
"451 337 QCURVE SMOOTH",
"960 337 LINE SMOOTH",
"997 337 OFFCURVE",
"1022 319 OFFCURVE",
"1022 265 OFFCURVE",
"977.17 226.574 OFFCURVE",
"954 224 QCURVE",
"455 224 LINE SMOOTH",
"439 224 OFFCURVE",
"439 211 QCURVE SMOOTH",
"439 -405 LINE SMOOTH",
"439 -584 OFFCURVE",
"749 -584 QCURVE",
"771 -585 OFFCURVE",
"771 -600 QCURVE SMOOTH",
"771 -620 OFFCURVE",
"749 -620 QCURVE SMOOTH"
);
}
);
width = 1114;
}
);
unicode = F10C;
},
{
glyphname = G.ins;
lastChange = "2017-06-09 15:50:33 +0000";
layers = (
{
layerId = "CB1E75F3-3DD4-4E31-8468-5A6CAC277236";
paths = (
{
closed = 1;
nodes = (
"151 1121 LINE SMOOTH",
"120 1121 OFFCURVE",
"120 1180 QCURVE SMOOTH",
"120 1202.67 OFFCURVE",
"136.5 1237.83 QCURVE SMOOTH",
"154.65 1276.52 OFFCURVE",
"227.2 1445.8 OFFCURVE",
"240 1465 OFFCURVE",
"265.438 1465 OFFCURVE",
"292 1426.36 OFFCURVE",
"292 1400.55 OFFCURVE",
"261 1324.45 OFFCURVE",
"261 1291 QCURVE",
"1322 1291 LINE SMOOTH",
"1342 1291 OFFCURVE",
"1342 1271 QCURVE",
"1287 1128 LINE SMOOTH",
"1284.67 1121 OFFCURVE",
"1272 1121 QCURVE SMOOTH",
"832 1121 LINE",
"808.692 1095.57 OFFCURVE",
"601.587 904.606 OFFCURVE",
"486 763.333 OFFCURVE",
"486 642 OFFCURVE",
"546 548 OFFCURVE",
"644 470 OFFCURVE",
"770 402 OFFCURVE",
"835.5 365 QCURVE SMOOTH",
"1001 271.513 OFFCURVE",
"1076 183.5 QCURVE SMOOTH",
"1185 55.592 OFFCURVE",
"1185 -128 QCURVE SMOOTH",
"1185 -349.786 OFFCURVE",
"872.462 -640 OFFCURVE",
"412.77 -640 OFFCURVE",
"109 -342.648 OFFCURVE",
"109 -133 QCURVE SMOOTH",
"109 -1.733 OFFCURVE",
"156.5 83.133 QCURVE SMOOTH",
"285.007 312.732 OFFCURVE",
"534 367 QCURVE",
"405.513 414.724 OFFCURVE",
"280 588.35 OFFCURVE",
"280 673 QCURVE SMOOTH",
"280 826.027 OFFCURVE",
"554 1063 QCURVE SMOOTH",
"591 1095 OFFCURVE",
"621 1121 QCURVE"
);
},
{
closed = 1;
nodes = (
"302 -135.536 QCURVE SMOOTH",
"302 -310.286 OFFCURVE",
"382 -436 QCURVE SMOOTH",
"477.455 -586 OFFCURVE",
"815.349 -586 OFFCURVE",
"981 -321.596 OFFCURVE",
"981 8.655 OFFCURVE",
"895 151 QCURVE SMOOTH",
"797.125 313 OFFCURVE",
"622 313 QCURVE SMOOTH",
"500.156 313 OFFCURVE",
"331.817 121.222 OFFCURVE",
"302 -64.071 OFFCURVE"
);
}
);
width = 1382;
}
);
unicode = F10B;
},
{
glyphname = H.ins;
lastChange = "2017-06-09 15:50:33 +0000";
layers = (
{
layerId = "CB1E75F3-3DD4-4E31-8468-5A6CAC277236";
paths = (
{
closed = 1;
nodes = (
"585 1378 QCURVE SMOOTH",
"442 1378 OFFCURVE",
"442 1237 QCURVE SMOOTH",
"442 915 LINE SMOOTH",
"442 898 OFFCURVE",
"492 898 OFFCURVE",
"545 914 OFFCURVE",
"595 939 OFFCURVE",
"648 968 OFFCURVE",
"759.52 1009 OFFCURVE",
"864.26 1009 QCURVE SMOOTH",
"1058.69 1009 OFFCURVE",
"1273.02 836.345 OFFCURVE",
"1352 579.154 OFFCURVE",
"1352 448.577 QCURVE SMOOTH",
"1352 208.276 OFFCURVE",
"1174.33 -118.468 OFFCURVE",
"874.361 -289 OFFCURVE",
"694 -289 QCURVE SMOOTH",
"617.645 -289 OFFCURVE",
"589 -233.5 QCURVE SMOOTH",
"581 -218 OFFCURVE",
"581 -203 QCURVE SMOOTH",
"581 -158 OFFCURVE",
"615 -158 QCURVE SMOOTH",
"630 -158 OFFCURVE",
"639 -182 OFFCURVE",
"643.5 -196.5 QCURVE SMOOTH",
"655.448 -235 OFFCURVE",
"695 -235 QCURVE SMOOTH",
"1003.24 -235 OFFCURVE",
"1106 120 QCURVE SMOOTH",
"1147 261.636 OFFCURVE",
"1147 534 OFFCURVE",
"1104 701 OFFCURVE",
"1063 767 QCURVE SMOOTH",
"971.682 914 OFFCURVE",
"705 914 OFFCURVE",
"583.5 851 QCURVE SMOOTH",
"442 777.63 OFFCURVE",
"442 658 QCURVE SMOOTH",
"442 161 LINE SMOOTH",
"442 41 OFFCURVE",
"619 41 QCURVE SMOOTH",
"627 41 OFFCURVE",
"627 33 QCURVE SMOOTH",
"627 9 LINE SMOOTH",
"627 1 OFFCURVE",
"620 1 QCURVE SMOOTH",
"68 1 LINE SMOOTH",
"60 1 OFFCURVE",
"60 9 QCURVE SMOOTH",
"60 33 LINE SMOOTH",
"60 41 OFFCURVE",
"79.5 41 QCURVE SMOOTH",
"247 41 OFFCURVE",
"247 184 QCURVE SMOOTH",
"247 1251 LINE SMOOTH",
"247 1368.38 OFFCURVE",
"108 1375 QCURVE SMOOTH",
"87 1376 OFFCURVE",
"87 1384 QCURVE SMOOTH",
"87 1403 LINE SMOOTH",
"87 1411 OFFCURVE",
"94 1411 QCURVE SMOOTH",
"596 1411 LINE SMOOTH",
"604 1411 OFFCURVE",
"604 1403 QCURVE SMOOTH",
"604 1384 LINE SMOOTH",
"604 1378 OFFCURVE"
);
}
);
width = 1452;
}
);
unicode = F110;
},
{
glyphname = M.ins;
lastChange = "2017-06-09 15:50:33 +0000";
layers = (
{
layerId = "CB1E75F3-3DD4-4E31-8468-5A6CAC277236";
paths = (
{
closed = 1;
nodes = (
"947 101 QCURVE SMOOTH",
"979 101 OFFCURVE",
"979 22.931 OFFCURVE",
"957 3.966 QCURVE SMOOTH",
"884.105 -58.875 OFFCURVE",
"502.559 45.945 OFFCURVE",
"203.555 322.575 OFFCURVE",
"141.5 524.5 QCURVE SMOOTH",
"110 627 OFFCURVE",
"110 746.5 QCURVE SMOOTH",
"110 979.598 OFFCURVE",
"306.941 1298.36 OFFCURVE",
"624.467 1452 OFFCURVE",
"955.5 1452 OFFCURVE",
"1146.98 1287.87 OFFCURVE",
"1171 1187 QCURVE",
"1195.02 1287.87 OFFCURVE",
"1386.5 1452 OFFCURVE",
"1533 1452 QCURVE SMOOTH",
"1821.55 1452 OFFCURVE",
"2015 1282 QCURVE SMOOTH",
"2232 1091.3 OFFCURVE",
"2232 743 QCURVE SMOOTH",
"2232 521.413 OFFCURVE",
"2007.22 166.721 OFFCURVE",
"1655.64 -30 OFFCURVE",
"1474 -30 QCURVE SMOOTH",
"1397.65 -30 OFFCURVE",
"1369 25.5 QCURVE SMOOTH",
"1361 41 OFFCURVE",
"1361 56 QCURVE SMOOTH",
"1361 101 OFFCURVE",
"1395 101 QCURVE SMOOTH",
"1410 101 OFFCURVE",
"1419 77 OFFCURVE",
"1423.5 62.5 QCURVE SMOOTH",
"1435.45 24 OFFCURVE",
"1475 24 QCURVE SMOOTH",
"1718.89 24 OFFCURVE",
"2027 482.958 OFFCURVE",
"2027 758 QCURVE SMOOTH",
"2027 985.141 OFFCURVE",
"1915 1167.5 QCURVE SMOOTH",
"1833.39 1300.38 OFFCURVE",
"1698 1355.5 QCURVE SMOOTH",
"1628 1384 OFFCURVE",
"1543.5 1384 QCURVE SMOOTH",
"1394.38 1384 OFFCURVE",
"1314.5 1255.5 QCURVE SMOOTH",
"1250 1151.74 OFFCURVE",
"1250 1008 QCURVE SMOOTH",
"1250 0 LINE",
"1092 0 LINE",
"1092 1008 LINE SMOOTH",
"1092 1251.57 OFFCURVE",
"942 1348 QCURVE SMOOTH",
"886 1384 OFFCURVE",
"800 1384 QCURVE SMOOTH",
"638.125 1384 OFFCURVE",
"418.494 1188.77 OFFCURVE",
"315 901.06 OFFCURVE",
"315 787.03 QCURVE SMOOTH",
"315 580.97 OFFCURVE",
"452.224 242.067 OFFCURVE",
"703.208 24 OFFCURVE",
"867 24 QCURVE SMOOTH",
"906.552 24 OFFCURVE",
"918.5 62.5 QCURVE SMOOTH",
"923 77 OFFCURVE",
"932 101 OFFCURVE"
);
}
);
width = 2342;
}
);
unicode = F11A;
},
{
glyphname = T.ins;
lastChange = "2017-06-09 15:50:33 +0000";
layers = (
{
layerId = "CB1E75F3-3DD4-4E31-8468-5A6CAC277236";
paths = (
{
closed = 1;
nodes = (
"1516 38 LINE",
"1510.6 29.906 OFFCURVE",
"1472.33 39 OFFCURVE",
"1420 39 OFFCURVE",
"1325 18 OFFCURVE",
"1120.62 -27 OFFCURVE",
"1036.81 -27 QCURVE SMOOTH",
"847 -27 OFFCURVE",
"489.963 151.519 OFFCURVE",
"276 480.692 OFFCURVE",
"276 696 QCURVE SMOOTH",
"276 992.983 OFFCURVE",
"465.5 1200 QCURVE SMOOTH",
"525 1265 OFFCURVE",
"599 1315 QCURVE",
"240 1315 LINE",
"147.24 1294.94 OFFCURVE",
"118 1172.5 QCURVE SMOOTH",
"102.121 1106.01 OFFCURVE",
"96.2 1069 OFFCURVE",
"88 1069 QCURVE SMOOTH",
"70 1069 LINE SMOOTH",
"64 1069 OFFCURVE",
"64 1073 QCURVE SMOOTH",
"64 1106 LINE",
"101 1418 LINE",
"106.636 1449 OFFCURVE",
"135.455 1449 OFFCURVE",
"167.364 1410 OFFCURVE",
"212 1410 QCURVE SMOOTH",
"1480 1410 LINE SMOOTH",
"1523 1410 OFFCURVE",
"1541 1430 OFFCURVE",
"1556.55 1449 OFFCURVE",
"1582 1449 OFFCURVE",
"1589 1429 OFFCURVE",
"1591 1418 QCURVE SMOOTH",
"1628 1106 LINE",
"1628 1073 LINE SMOOTH",
"1628 1069 OFFCURVE",
"1622 1069 QCURVE SMOOTH",
"1604 1069 LINE SMOOTH",
"1595.8 1069 OFFCURVE",
"1593.4 1084 QCURVE SMOOTH",
"1577.41 1183.94 OFFCURVE",
"1516.88 1300.97 OFFCURVE",
"1452 1315 QCURVE",
"768 1315 LINE",
"756 1303 OFFCURVE",
"738 1288 QCURVE",
"493 1120.58 OFFCURVE",
"493 726.5 QCURVE SMOOTH",
"493 612 OFFCURVE",
"577 360 OFFCURVE",
"658 266 QCURVE SMOOTH",
"832.926 63 OFFCURVE",
"1127 63 QCURVE SMOOTH",
"1288.4 63 OFFCURVE",
"1551.54 237.041 OFFCURVE",
"1625 371 QCURVE SMOOTH",
"1627.4 377 OFFCURVE",
"1637 377 QCURVE SMOOTH",
"1650 377 LINE SMOOTH",
"1660 377 OFFCURVE",
"1660 352.8 OFFCURVE",
"1654 342 QCURVE SMOOTH"
);
}
);
width = 1735;
}
);
unicode = F22F;
},
{
glyphname = B.tall;
lastChange = "2017-06-09 15:50:33 +0000";
layers = (
{
layerId = "CB1E75F3-3DD4-4E31-8468-5A6CAC277236";
paths = (
{
closed = 1;
nodes = (
"9 0 LINE SMOOTH",
"1 0 OFFCURVE",
"1 11 QCURVE SMOOTH",
"1 43 LINE SMOOTH",
"1 53 OFFCURVE",
"14.5 53 QCURVE SMOOTH",
"58.143 53 OFFCURVE",
"195.722 82.632 OFFCURVE",
"302 164.385 OFFCURVE",
"302 234 QCURVE SMOOTH",
"302 1637 LINE",
"291.804 1807.78 OFFCURVE",
"185.5 1822.5 QCURVE SMOOTH",
"153 1827 OFFCURVE",
"114 1827 QCURVE SMOOTH",
"57 1827 LINE SMOOTH",
"49 1827 OFFCURVE",
"49 1838 QCURVE SMOOTH",
"49 1871 LINE SMOOTH",
"49 1882 OFFCURVE",
"57 1882 QCURVE SMOOTH",
"101 1883 LINE",
"273 1884 LINE",
"629 1899 LINE",
"1067.9 1899 OFFCURVE",
"1173 1625 QCURVE SMOOTH",
"1201 1552 OFFCURVE",
"1201 1470 QCURVE SMOOTH",
"1201 1338.91 OFFCURVE",
"1113.58 1185.43 OFFCURVE",
"1023.18 1107.09 OFFCURVE",
"995 1093 QCURVE",
"1278 884.474 OFFCURVE",
"1278 580 QCURVE SMOOTH",
"1278 218.296 OFFCURVE",
"1020 73.5 QCURVE SMOOTH",
"889.036 0 OFFCURVE",
"731 0 QCURVE SMOOTH"
);
},
{
closed = 1;
nodes = (
"515 1037 LINE SMOOTH",
"502 1037 OFFCURVE",
"502 1023 QCURVE SMOOTH",
"502 294 LINE SMOOTH",
"502 197.548 OFFCURVE",
"636.192 85 OFFCURVE",
"712.596 85 QCURVE SMOOTH",
"859.442 85 OFFCURVE",
"1068 365.25 OFFCURVE",
"1068 776.642 OFFCURVE",
"845.435 1037 OFFCURVE",
"674 1037 QCURVE SMOOTH"
);
},
{
closed = 1;
nodes = (
"500 1145 LINE SMOOTH",
"500 1120 OFFCURVE",
"523 1120 QCURVE SMOOTH",
"769 1120 LINE SMOOTH",
"864.943 1120 OFFCURVE",
"996 1306.92 OFFCURVE",
"996 1424.46 QCURVE SMOOTH",
"996 1633.62 OFFCURVE",
"819.774 1822 OFFCURVE",
"670 1822 QCURVE",
"623.778 1818.44 OFFCURVE",
"588.667 1818.44 OFFCURVE",
"552 1819 OFFCURVE",
"514 1811 OFFCURVE",
"500 1785 OFFCURVE",
"500 1754 QCURVE SMOOTH"
);
}
);
width = 1392;
}
);
unicode = F418;
},
{
glyphname = I.tall;
lastChange = "2017-06-09 15:50:33 +0000";
layers = (
{
layerId = "CB1E75F3-3DD4-4E31-8468-5A6CAC277236";
paths = (
{
closed = 1;
nodes = (
"447 160 LINE SMOOTH",
"447 40 OFFCURVE",
"585.5 40 QCURVE SMOOTH",
"607 40 OFFCURVE",
"607 32 QCURVE SMOOTH",
"607 8 LINE SMOOTH",
"607 0 OFFCURVE",
"599 0 QCURVE SMOOTH",
"98 0 LINE SMOOTH",
"90 0 OFFCURVE",
"90 8 QCURVE SMOOTH",
"90 32 LINE SMOOTH",
"90 40 OFFCURVE",
"134 40 QCURVE SMOOTH",
"178 40 OFFCURVE",
"252 95.5 OFFCURVE",
"252 183 QCURVE SMOOTH",
"252 1706 LINE SMOOTH",
"252 1774 OFFCURVE",
"171 1860 OFFCURVE",
"100 1860 QCURVE SMOOTH",
"92 1860 OFFCURVE",
"92 1868 QCURVE SMOOTH",
"92 1892 LINE SMOOTH",
"92 1900 OFFCURVE",
"100 1900 QCURVE SMOOTH",
"601 1900 LINE SMOOTH",
"609 1900 OFFCURVE",
"609 1892 QCURVE SMOOTH",
"609 1868 LINE SMOOTH",
"609 1860 OFFCURVE",
"601 1860 QCURVE SMOOTH",
"447 1860 OFFCURVE",
"447 1683 QCURVE SMOOTH"
);
}
);
width = 699;
}
);
unicode = F419;
},
{
glyphname = T.tall;
lastChange = "2017-06-09 15:50:33 +0000";
layers = (
{
layerId = "CB1E75F3-3DD4-4E31-8468-5A6CAC277236";
paths = (
{
closed = 1;
nodes = (
"60 32 LINE SMOOTH",
"60 40 OFFCURVE",
"69.5 40 QCURVE SMOOTH",
"96.5 40 LINE SMOOTH",
"194.75 40 OFFCURVE",
"314 124.176 OFFCURVE",
"314 180 QCURVE SMOOTH",
"314 1777 LINE SMOOTH",
"314 1798 OFFCURVE",
"297 1803 OFFCURVE",
"285 1805 QCURVE",
"-99 1805 LINE",
"-191.76 1784.94 OFFCURVE",
"-221 1662.5 QCURVE SMOOTH",
"-236.879 1596.01 OFFCURVE",
"-242.8 1559 OFFCURVE",
"-251 1559 QCURVE SMOOTH",
"-269 1559 LINE SMOOTH",
"-275 1559 OFFCURVE",
"-275 1563 QCURVE SMOOTH",
"-275 1596 LINE",
"-238 1908 LINE",
"-232.364 1939 OFFCURVE",
"-203.545 1939 OFFCURVE",
"-171.636 1900 OFFCURVE",
"-127 1900 QCURVE SMOOTH",
"951 1900 LINE SMOOTH",
"994 1900 OFFCURVE",
"1012 1920 OFFCURVE",
"1027.55 1939 OFFCURVE",
"1053 1939 OFFCURVE",
"1060 1919 OFFCURVE",
"1062 1908 QCURVE SMOOTH",
"1099 1596 LINE",
"1099 1563 LINE SMOOTH",
"1099 1559 OFFCURVE",
"1093 1559 QCURVE SMOOTH",
"1075 1559 LINE SMOOTH",
"1066.8 1559 OFFCURVE",
"1064.4 1574 QCURVE SMOOTH",
"1048.41 1673.94 OFFCURVE",
"987.876 1790.97 OFFCURVE",
"923 1805 QCURVE",
"538 1805 LINE",
"526 1803 OFFCURVE",
"509 1798 OFFCURVE",
"509 1777 QCURVE SMOOTH",
"509 180 LINE SMOOTH",
"509 124.176 OFFCURVE",
"628.25 40 OFFCURVE",
"726 40 QCURVE SMOOTH",
"755 40 LINE SMOOTH",
"763 40 OFFCURVE",
"763 32 QCURVE SMOOTH",
"763 8 LINE SMOOTH",
"763 0 OFFCURVE",
"755 0 QCURVE SMOOTH",
"68 0 LINE SMOOTH",
"60 0 OFFCURVE",
"60 8 QCURVE SMOOTH"
);
}
);
width = 824;
}
);
unicode = F420;
},
{
glyphname = a;
lastChange = "2017-06-09 15:50:33 +0000";
layers = (
{
anchors = (
{
name = "Anchor-1";
position = "{-100, 0}";
}
);
layerId = "CB1E75F3-3DD4-4E31-8468-5A6CAC277236";
paths = (
{
closed = 1;
nodes = (
"737 108 OFFCURVE",
"801.1 108 OFFCURVE",
"844 141 OFFCURVE",
"860 141 OFFCURVE",
"860 97.546 OFFCURVE",
"840 83 QCURVE SMOOTH",
"690.278 -27 OFFCURVE",
"637 -27 QCURVE SMOOTH",
"572.9 -27 OFFCURVE",
"533 106 QCURVE SMOOTH",
"530 116 OFFCURVE",
"528 115 QCURVE SMOOTH",
"403.556 21.667 OFFCURVE",
"371.778 3.333 QCURVE SMOOTH",
"290.297 -43.675 OFFCURVE",
"125.167 20.176 OFFCURVE",
"88.5 94.5 QCURVE SMOOTH",
"70 132 OFFCURVE",
"70 175 QCURVE SMOOTH",
"70 260.147 OFFCURVE",
"196.218 360.379 OFFCURVE",
"373 406 QCURVE SMOOTH",
"433.221 421.657 OFFCURVE",
"527 472 OFFCURVE",
"532 486 OFFCURVE",
"532 492 QCURVE SMOOTH",
"532 684 LINE SMOOTH",
"532 797.483 OFFCURVE",
"444 843 QCURVE SMOOTH",
"415 858 OFFCURVE",
"374.6 858 QCURVE SMOOTH",
"334.2 858 OFFCURVE",
"251 794 OFFCURVE",
"251 735 QCURVE",
"256 696 LINE",
"250.108 684.216 OFFCURVE",
"118 628 OFFCURVE",
"108 626 QCURVE",
"92 626 OFFCURVE",
"92 703 OFFCURVE",
"138 797 OFFCURVE",
"180.5 836.5 QCURVE SMOOTH",
"277.873 927 OFFCURVE",
"529.797 927 OFFCURVE",
"688 788.301 OFFCURVE",
"688 692 QCURVE SMOOTH",
"688 165 LINE SMOOTH",
"688 139 OFFCURVE"
);
},
{
closed = 1;
nodes = (
"300.545 75 OFFCURVE",
"348.073 75 QCURVE SMOOTH",
"395.6 75 OFFCURVE",
"532 155.915 OFFCURVE",
"532 199 QCURVE SMOOTH",
"532 402 LINE SMOOTH",
"532 413 OFFCURVE",
"522 413 OFFCURVE",
"520 412 QCURVE SMOOTH",
"288 304 LINE",
"251.79 278.136 OFFCURVE",
"239.395 260.318 QCURVE SMOOTH",
"227 242.5 OFFCURVE",
"227 146.382 OFFCURVE"
);
}
);
width = 885;
}
);
unicode = 0061;
},
{
glyphname = ae;
lastChange = "2017-06-09 15:50:33 +0000";
layers = (
{
anchors = (
{
name = "Anchor-1";
position = "{50, 0}";
}
);
layerId = "CB1E75F3-3DD4-4E31-8468-5A6CAC277236";
paths = (
{
closed = 1;
nodes = (
"704 577 LINE SMOOTH",
"688 577 OFFCURVE",
"688 536 QCURVE SMOOTH",
"688 491 LINE SMOOTH",
"688 184.783 OFFCURVE",
"918 104.5 QCURVE SMOOTH",
"971 86 OFFCURVE",
"1018 86 QCURVE SMOOTH",
"1106.26 86 OFFCURVE",
"1175 137 QCURVE",
"1193.86 145.083 OFFCURVE",
"1231.91 177.042 QCURVE SMOOTH",
"1269.95 209 OFFCURVE",
"1275 209 QCURVE SMOOTH",
"1280 209 LINE SMOOTH",
"1286 209 OFFCURVE",
"1295 197 OFFCURVE",
"1300 194 QCURVE",
"1300 172.6 OFFCURVE",
"1263 143 QCURVE",
"1239 113 OFFCURVE",
"1173 69 QCURVE",
"1043.4 -27 OFFCURVE",
"923 -27 QCURVE SMOOTH",
"770.054 -27 OFFCURVE",
"660.5 94 QCURVE SMOOTH",
"627 131 OFFCURVE",
"603 175 QCURVE",
"521.169 88.21 OFFCURVE",
"380 2.5 QCURVE SMOOTH",
"296.624 -48.121 OFFCURVE",
"125.167 18.176 OFFCURVE",
"88.5 92.5 QCURVE SMOOTH",
"70 130 OFFCURVE",
"70 173 QCURVE SMOOTH",
"70 258.147 OFFCURVE",
"196.218 358.379 OFFCURVE",
"373 404 QCURVE SMOOTH",
"433.221 419.657 OFFCURVE",
"527 470 OFFCURVE",
"532 484 OFFCURVE",
"532 490 QCURVE SMOOTH",
"532 682 LINE SMOOTH",
"532 790.466 OFFCURVE",
"448.512 835.088 QCURVE SMOOTH",
"365.024 879.711 OFFCURVE",
"296.5 827 QCURVE SMOOTH",
"251 792 OFFCURVE",
"251 733 QCURVE",
"256 694 LINE",
"250.108 682.216 OFFCURVE",
"118 626 OFFCURVE",
"108 624 QCURVE",
"92 624 OFFCURVE",
"92 663 QCURVE SMOOTH",
"92 740.973 OFFCURVE",
"256.404 892.047 OFFCURVE",
"383 925 OFFCURVE",
"451.5 925 QCURVE SMOOTH",
"549.109 925 OFFCURVE",
"630.5 829 QCURVE SMOOTH",
"650 806 OFFCURVE",
"664 778 QCURVE",
"784.515 927 OFFCURVE",
"976 927 QCURVE SMOOTH",
"1082.4 927 OFFCURVE",
"1148 886 QCURVE",
"1211.04 852.379 OFFCURVE",
"1280 706.5 QCURVE SMOOTH",
"1308 647.269 OFFCURVE",
"1308 577 OFFCURVE",
"1284 577 QCURVE SMOOTH"
);
},
{
closed = 1;
nodes = (
"715 643 LINE SMOOTH",
"715 624 OFFCURVE",
"733 624 QCURVE SMOOTH",
"1100 624 LINE SMOOTH",
"1126 624 OFFCURVE",
"1126 655 QCURVE SMOOTH",
"1126 728.13 OFFCURVE",
"1007.14 858 OFFCURVE",
"930 858 QCURVE SMOOTH",
"852.589 858 OFFCURVE",
"731.882 739.41 OFFCURVE",
"715 655 QCURVE"
);
},
{
closed = 1;
nodes = (
"300.545 73 OFFCURVE",
"348.073 73 QCURVE SMOOTH",
"395.6 73 OFFCURVE",
"532 153.915 OFFCURVE",
"532 197 QCURVE SMOOTH",
"532 400 LINE SMOOTH",
"532 411 OFFCURVE",
"522 411 OFFCURVE",
"520 410 QCURVE SMOOTH",
"288 302 LINE",
"251.79 276.136 OFFCURVE",
"239.395 258.318 QCURVE SMOOTH",
"227 240.5 OFFCURVE",
"227 144.382 OFFCURVE"
);
}
);
width = 1378;
}
);
unicode = 00E6;
},
{
glyphname = b;
lastChange = "2017-06-09 15:50:33 +0000";
layers = (
{
anchors = (
{
name = "Anchor-1";
position = "{-50, 0}";
}
);
layerId = "CB1E75F3-3DD4-4E31-8468-5A6CAC277236";
paths = (
{
closed = 1;
nodes = (
"314 837 LINE SMOOTH",
"314 806 OFFCURVE",
"343.105 806 OFFCURVE",
"456 871 QCURVE",
"587.765 927 OFFCURVE",
"726 927 OFFCURVE",
"852 847 OFFCURVE",
"896.5 782.5 QCURVE SMOOTH",
"989 648.427 OFFCURVE",
"989 265.864 OFFCURVE",
"723.725 -27 OFFCURVE",
"507 -27 QCURVE SMOOTH",
"366 -27 OFFCURVE",
"247 7 QCURVE SMOOTH",
"212 17 OFFCURVE",
"163 29 OFFCURVE",
"158 42 OFFCURVE",
"158 51 QCURVE SMOOTH",
"158 1399 LINE SMOOTH",
"158 1440.9 OFFCURVE",
"112 1457 QCURVE SMOOTH",
"92 1464 OFFCURVE",
"46 1473 OFFCURVE",
"19 1481 OFFCURVE",
"12 1488 OFFCURVE",
"12 1510.67 OFFCURVE",
"27 1519 QCURVE",
"282 1639 LINE SMOOTH",
"294 1645 OFFCURVE",
"297 1645 QCURVE SMOOTH",
"314 1645 OFFCURVE",
"314 1621 QCURVE SMOOTH"
);
},
{
closed = 1;
nodes = (
"526.204 805 QCURVE SMOOTH",
"437.407 805 OFFCURVE",
"326 741 QCURVE SMOOTH",
"314 733.5 OFFCURVE",
"314 717 QCURVE SMOOTH",
"314 244 LINE",
"323.629 153.488 OFFCURVE",
"461.673 51 OFFCURVE",
"544.337 51 QCURVE SMOOTH",
"688.17 51 OFFCURVE",
"845 278.726 OFFCURVE",
"845 571.421 OFFCURVE",
"685.072 805 OFFCURVE"
);
}
);
width = 1099;
}
);
unicode = 0062;
},
{
glyphname = c;
lastChange = "2017-06-09 15:50:33 +0000";
layers = (
{
anchors = (
{
name = "Anchor-1";
position = "{-75, 0}";
}
);
layerId = "CB1E75F3-3DD4-4E31-8468-5A6CAC277236";
paths = (
{
closed = 1;
nodes = (
"855 807 QCURVE SMOOTH",
"855 737 OFFCURVE",
"774 737 QCURVE SMOOTH",
"733.071 737 OFFCURVE",
"676 784 OFFCURVE",
"645 817 OFFCURVE",
"628 831 QCURVE SMOOTH",
"556.472 889.905 OFFCURVE",
"348.772 797.886 OFFCURVE",
"293 648 QCURVE SMOOTH",
"262 564.688 OFFCURVE",
"262 482.844 QCURVE SMOOTH",
"262 306.91 OFFCURVE",
"421.514 84 OFFCURVE",
"587 84 QCURVE SMOOTH",
"710.286 84 OFFCURVE",
"808.5 194 QCURVE SMOOTH",
"837.964 227 OFFCURVE",
"850 227 OFFCURVE",
"864 215 OFFCURVE",
"864 192 OFFCURVE",
"858 186 QCURVE",
"704.64 -27 OFFCURVE",
"473 -27 QCURVE SMOOTH",
"305.427 -27 OFFCURVE",
"90 222.554 OFFCURVE",
"90.5 384.277 QCURVE SMOOTH",
"91.419 681.578 OFFCURVE",
"234.5 813 QCURVE SMOOTH",
"359.702 928 OFFCURVE",
"593 928 QCURVE SMOOTH",
"736.686 928 OFFCURVE",
"830.531 870.376 OFFCURVE",
"850.5 826 QCURVE SMOOTH",
"855 816 OFFCURVE"
);
}
);
width = 934;
}
);
unicode = 0063;
},
{
glyphname = ccedilla;
lastChange = "2017-06-09 15:50:33 +0000";
layers = (
{
layerId = "CB1E75F3-3DD4-4E31-8468-5A6CAC277236";
paths = (
{
closed = 1;
nodes = (
"287 -532 QCURVE",
"231 -532 OFFCURVE",
"231 -489 QCURVE SMOOTH",
"231 -470 OFFCURVE",
"260 -460 OFFCURVE",
"307 -452 OFFCURVE",
"353.603 -443.207 QCURVE SMOOTH",
"400.207 -434.414 OFFCURVE",
"487 -379.182 OFFCURVE",
"487 -280.255 OFFCURVE",
"386.741 -220.527 OFFCURVE",
"337 -215 QCURVE",
"489 -27 LINE",
"473 -27 LINE SMOOTH",
"305.427 -27 OFFCURVE",
"90 222.554 OFFCURVE",
"90.5 384.277 QCURVE SMOOTH",
"91.419 681.578 OFFCURVE",
"234.5 813 QCURVE SMOOTH",
"359.702 928 OFFCURVE",
"593 928 QCURVE SMOOTH",
"736.686 928 OFFCURVE",
"830.531 870.376 OFFCURVE",
"850.5 826 QCURVE SMOOTH",
"855 816 OFFCURVE",
"855 807 QCURVE SMOOTH",
"855 737 OFFCURVE",
"774 737 QCURVE SMOOTH",
"733.071 737 OFFCURVE",
"676 784 OFFCURVE",
"645 817 OFFCURVE",
"628 831 QCURVE SMOOTH",
"545.237 899.158 OFFCURVE",
"440 829 QCURVE",
"262 728.875 OFFCURVE",
"262 208.234 OFFCURVE",
"437 116.5 QCURVE SMOOTH",
"499 84 OFFCURVE",
"565.5 84 QCURVE SMOOTH",
"710.286 84 OFFCURVE",
"808.5 194 QCURVE SMOOTH",
"837.964 227 OFFCURVE",
"850 227 OFFCURVE",
"864 215 OFFCURVE",
"864 192 OFFCURVE",
"858 186 QCURVE",
"751.394 37.587 OFFCURVE",
"606 -7 QCURVE",
"480 -154 LINE",
"551.702 -173.237 OFFCURVE",
"620 -269.281 OFFCURVE",
"620 -305 QCURVE",
"603.538 -499.255 OFFCURVE"
);
}
);
width = 934;
}
);
unicode = 00E7;
},
{
glyphname = d;
lastChange = "2017-06-09 15:50:33 +0000";
layers = (
{
anchors = (
{
name = "Anchor-1";
position = "{0, 0}";
}
);
layerId = "CB1E75F3-3DD4-4E31-8468-5A6CAC277236";
paths = (
{
closed = 1;
nodes = (
"751 870 OFFCURVE",
"755.636 871 OFFCURVE",
"760 883 QCURVE",
"760 1399 LINE SMOOTH",
"760 1440.9 OFFCURVE",
"714 1457 QCURVE SMOOTH",
"694 1464 OFFCURVE",
"648 1473 OFFCURVE",
"621 1481 OFFCURVE",
"614 1488 OFFCURVE",
"614 1510.67 OFFCURVE",
"629 1519 QCURVE",
"884 1639 LINE SMOOTH",
"896 1645 OFFCURVE",
"899 1645 QCURVE SMOOTH",
"916 1645 OFFCURVE",
"916 1621 QCURVE SMOOTH",
"916 197 LINE",
"921 153 OFFCURVE",
"961 115 OFFCURVE",
"1006 115 QCURVE",
"1064 119 LINE SMOOTH",
"1070 119 OFFCURVE",
"1070 96.5 OFFCURVE",
"1055 89 QCURVE",
"789 -21 LINE SMOOTH",
"777 -27 OFFCURVE",
"760 -27 OFFCURVE",
"760 -2 QCURVE SMOOTH",
"760 89 LINE SMOOTH",
"760 99 OFFCURVE",
"755 99 QCURVE SMOOTH",
"747.682 99 OFFCURVE",
"672 54 QCURVE SMOOTH",
"439.475 -84.258 OFFCURVE",
"279 13 QCURVE SMOOTH",
"150.549 90.849 OFFCURVE",
"106 259.5 QCURVE SMOOTH",
"85 339 OFFCURVE",
"85 516 OFFCURVE",
"158 691 OFFCURVE",
"222.5 757 QCURVE SMOOTH",
"363.227 901 OFFCURVE",
"562 901 QCURVE SMOOTH",
"643.167 901 OFFCURVE",
"731 870 OFFCURVE"
);
},
{
closed = 1;
nodes = (
"403.889 78 OFFCURVE",
"554 78 QCURVE SMOOTH",
"619.632 78 OFFCURVE",
"760 143.049 OFFCURVE",
"760 160 QCURVE SMOOTH",
"760 676 LINE SMOOTH",
"760 695 OFFCURVE",
"734 721 QCURVE",
"654.196 831 OFFCURVE",
"389.257 831 OFFCURVE",
"236 607.5 OFFCURVE",
"236 304.65 OFFCURVE"
);
}
);
width = 1090;
}
);
unicode = 0064;
},
{
glyphname = eth;
lastChange = "2017-06-09 15:50:33 +0000";
layers = (
{
anchors = (
{
name = "Anchor-1";
position = "{0, 0}";
}
);
layerId = "CB1E75F3-3DD4-4E31-8468-5A6CAC277236";
paths = (
{
closed = 1;
nodes = (
"322 1645 LINE",
"444.924 1576.45 OFFCURVE",
"603 1393 QCURVE",
"836 1576 LINE",
"895 1498 LINE",
"664 1318 LINE",
"897.503 1017.28 OFFCURVE",
"975.5 687.5 QCURVE SMOOTH",
"1004 567 OFFCURVE",
"1004 454.5 QCURVE SMOOTH",
"1004 242.129 OFFCURVE",
"739.143 -27 OFFCURVE",
"338.669 -27 OFFCURVE",
"75 245.244 OFFCURVE",
"75 628 OFFCURVE",
"348 901 OFFCURVE",
"529 901 QCURVE SMOOTH",
"531 901 LINE SMOOTH",
"676.5 901 OFFCURVE",
"789 826 QCURVE SMOOTH",
"791 825 OFFCURVE",
"791 839 QCURVE SMOOTH",
"791 876.5 LINE SMOOTH",
"791 928.655 OFFCURVE",
"678.419 1137.44 OFFCURVE",
"588 1258 QCURVE",
"367 1085 LINE",
"308 1162 LINE",
"527 1334 LINE",
"363.485 1535.99 OFFCURVE",
"250.5 1619.5 QCURVE SMOOTH",
"216 1645 OFFCURVE",
"199 1645 QCURVE SMOOTH"
);
},
{
closed = 1;
nodes = (
"309.546 171.187 OFFCURVE",
"464.958 26 OFFCURVE",
"707.442 26 OFFCURVE",
"838 241.524 OFFCURVE",
"838 537.828 OFFCURVE",
"648.13 839 OFFCURVE",
"489 839 QCURVE SMOOTH",
"372 839 OFFCURVE",
"236 635 OFFCURVE",
"236 396.029 OFFCURVE"
);
}
);
width = 1089;
}
);
unicode = 00F0;
},
{
glyphname = dcroat;
lastChange = "2017-06-09 15:50:33 +0000";
layers = (
{
layerId = "CB1E75F3-3DD4-4E31-8468-5A6CAC277236";
paths = (
{
closed = 1;
nodes = (
"751 870 OFFCURVE",
"755.636 871 OFFCURVE",
"760 883 QCURVE",
"760 1144 LINE",
"462 1144 LINE SMOOTH",
"437 1144 OFFCURVE",
"437 1169 QCURVE SMOOTH",
"437 1205 LINE SMOOTH",
"437 1230 OFFCURVE",
"462 1230 QCURVE SMOOTH",
"760 1230 LINE",
"760 1399 LINE SMOOTH",
"760 1440.9 OFFCURVE",
"714 1457 QCURVE SMOOTH",
"694 1464 OFFCURVE",
"648 1473 OFFCURVE",
"621 1481 OFFCURVE",
"614 1488 OFFCURVE",
"614 1510.67 OFFCURVE",
"629 1519 QCURVE",
"884 1639 LINE SMOOTH",
"896 1645 OFFCURVE",
"899 1645 QCURVE SMOOTH",
"916 1645 OFFCURVE",
"916 1621 QCURVE SMOOTH",
"916 1230 LINE",
"1037 1230 LINE SMOOTH",
"1062 1230 OFFCURVE",
"1062 1205 QCURVE SMOOTH",
"1062 1169 LINE SMOOTH",
"1062 1144 OFFCURVE",
"1037 1144 QCURVE SMOOTH",
"916 1144 LINE",
"916 197 LINE",
"921 153 OFFCURVE",
"961 115 OFFCURVE",
"1006 115 QCURVE",
"1064 119 LINE SMOOTH",
"1070 119 OFFCURVE",
"1070 96.5 OFFCURVE",
"1055 89 QCURVE",
"789 -21 LINE SMOOTH",
"777 -27 OFFCURVE",
"760 -27 OFFCURVE",
"760 -2 QCURVE SMOOTH",
"760 89 LINE SMOOTH",
"760 99 OFFCURVE",
"755 99 QCURVE SMOOTH",
"747.682 99 OFFCURVE",
"672 54 QCURVE SMOOTH",
"439.475 -84.258 OFFCURVE",
"279 13 QCURVE SMOOTH",
"150.549 90.849 OFFCURVE",
"106 259.5 QCURVE SMOOTH",
"85 339 OFFCURVE",
"85 516 OFFCURVE",
"158 691 OFFCURVE",
"222.5 757 QCURVE SMOOTH",
"363.227 901 OFFCURVE",
"562 901 QCURVE SMOOTH",
"643.167 901 OFFCURVE",
"731 870 OFFCURVE"
);
},
{
closed = 1;
nodes = (
"403.889 78 OFFCURVE",
"554 78 QCURVE SMOOTH",
"619.632 78 OFFCURVE",
"760 143.049 OFFCURVE",
"760 160 QCURVE SMOOTH",
"760 676 LINE SMOOTH",
"760 695 OFFCURVE",
"734 721 QCURVE",
"654.196 831 OFFCURVE",
"389.257 831 OFFCURVE",
"236 607.5 OFFCURVE",
"236 304.65 OFFCURVE"
);
}
);
width = 1090;
}
);
unicode = 0111;
},
{
glyphname = e;
lastChange = "2017-06-09 15:50:33 +0000";
layers = (
{
anchors = (
{
name = "Anchor-1";
position = "{-90, 0}";
}
);
layerId = "CB1E75F3-3DD4-4E31-8468-5A6CAC277236";
paths = (
{
closed = 1;
nodes = (
"231 527 LINE SMOOTH",
"214 527 OFFCURVE",
"214 454 QCURVE SMOOTH",
"214 298.897 OFFCURVE",
"398.455 89 OFFCURVE",
"671.387 89 OFFCURVE",
"797 207 QCURVE SMOOTH",
"799 209 OFFCURVE",
"802 209 QCURVE SMOOTH",
"807 209 LINE SMOOTH",
"813 209 OFFCURVE",
"824 190 OFFCURVE",
"829 187 QCURVE",
"713.387 46.096 OFFCURVE",
"555.5 -8.5 QCURVE SMOOTH",
"502 -27 OFFCURVE",
"366 -27 OFFCURVE",
"226 48 OFFCURVE",
"175.5 109 QCURVE SMOOTH",
"70 236.436 OFFCURVE",
"70 615.477 OFFCURVE",
"300.993 927 OFFCURVE",
"503 927 QCURVE SMOOTH",
"648.114 927 OFFCURVE",
"832 667.589 OFFCURVE",
"832 570 QCURVE SMOOTH",
"832 527 OFFCURVE",
"811 527 QCURVE SMOOTH"
);
},
{
closed = 1;
nodes = (
"242 623 LINE SMOOTH",
"242 604 OFFCURVE",
"260 604 QCURVE SMOOTH",
"637 604 LINE SMOOTH",
"663 604 OFFCURVE",
"663 635 QCURVE SMOOTH",
"663 706.86 OFFCURVE",
"534.418 858 OFFCURVE",
"457 858 QCURVE SMOOTH",
"382.19 858 OFFCURVE",
"259.473 722.365 OFFCURVE",
"242 635 QCURVE"
);
}
);
width = 930;
}
);
unicode = 0065;
},
{
glyphname = uni0259;
lastChange = "2017-06-09 15:50:33 +0000";
layers = (
{
layerId = "CB1E75F3-3DD4-4E31-8468-5A6CAC277236";
paths = (
{
closed = 1;
nodes = (
"674 323 LINE SMOOTH",
"690 323 OFFCURVE",
"690 383.5 QCURVE SMOOTH",
"690 571.032 OFFCURVE",
"566.456 758.341 OFFCURVE",
"460 795.5 QCURVE SMOOTH",
"407 814 OFFCURVE",
"360 814 QCURVE SMOOTH",
"271.739 814 OFFCURVE",
"203 763 QCURVE",
"184.139 754.917 OFFCURVE",
"146.093 722.958 QCURVE SMOOTH",
"108.048 691 OFFCURVE",
"103 691 QCURVE SMOOTH",
"98 691 LINE SMOOTH",
"92 691 OFFCURVE",
"83 703 OFFCURVE",
"78 706 QCURVE",
"78 727.4 OFFCURVE",
"115 757 QCURVE",
"139 787 OFFCURVE",
"205 831 QCURVE",
"334.6 927 OFFCURVE",
"455 927 QCURVE SMOOTH",
"616.91 927 OFFCURVE",
"835 663.564 OFFCURVE",
"835 495 QCURVE SMOOTH",
"835 284.523 OFFCURVE",
"604.007 -27 OFFCURVE",
"402 -27 QCURVE SMOOTH",
"295.6 -27 OFFCURVE",
"230 14 QCURVE",
"166.961 47.621 OFFCURVE",
"98 193.5 QCURVE SMOOTH",
"70 252.731 OFFCURVE",
"70 323 OFFCURVE",
"94 323 QCURVE SMOOTH"
);
},
{
closed = 1;
nodes = (
"663 257 LINE SMOOTH",
"663 276 OFFCURVE",
"645 276 QCURVE SMOOTH",
"278 276 LINE SMOOTH",
"252 276 OFFCURVE",
"252 245 QCURVE SMOOTH",
"252 171.87 OFFCURVE",
"370.864 42 OFFCURVE",
"448 42 QCURVE SMOOTH",
"525.411 42 OFFCURVE",
"646.118 160.59 OFFCURVE",
"663 245 QCURVE"
);
}
);
width = 930;
}
);
unicode = 0259;
},
{
glyphname = uni025A;
lastChange = "2017-06-09 15:50:33 +0000";
layers = (
{
layerId = "CB1E75F3-3DD4-4E31-8468-5A6CAC277236";
paths = (
{
closed = 1;
nodes = (
"797 272 LINE",
"687.841 -27 OFFCURVE",
"386.3 -27 QCURVE SMOOTH",
"295.6 -27 OFFCURVE",
"230 14 QCURVE",
"166.961 47.621 OFFCURVE",
"98 193.5 QCURVE SMOOTH",
"70 252.731 OFFCURVE",
"70 323 OFFCURVE",
"94 323 QCURVE SMOOTH",
"674 323 LINE SMOOTH",
"690 323 OFFCURVE",
"690 383.5 QCURVE SMOOTH",
"690 571.032 OFFCURVE",
"566.456 758.341 OFFCURVE",
"460 795.5 QCURVE SMOOTH",
"407 814 OFFCURVE",
"360 814 QCURVE SMOOTH",
"271.739 814 OFFCURVE",
"203 763 QCURVE",
"184.139 754.917 OFFCURVE",
"108.048 691 OFFCURVE",
"103 691 QCURVE SMOOTH",
"98 691 LINE SMOOTH",
"92 691 OFFCURVE",
"83 703 OFFCURVE",
"78 706 QCURVE",
"78 727.4 OFFCURVE",
"115 757 QCURVE",
"139 787 OFFCURVE",
"205 831 QCURVE",
"334.6 927 OFFCURVE",
"455 927 QCURVE SMOOTH",
"616.91 927 OFFCURVE",
"729.5 791 QCURVE SMOOTH",
"780 730 OFFCURVE",
"835 575 OFFCURVE",
"835 434.333 OFFCURVE",
"822 365 QCURVE",
"1012 365 LINE",
"983 22 LINE",
"983 -14.522 OFFCURVE",
"1031.5 -33.5 QCURVE SMOOTH",
"1043 -38 OFFCURVE",
"1083 -38 OFFCURVE",
"1120 -1 OFFCURVE",
"1125 24 QCURVE",
"1137 102 LINE",
"1202 102 LINE",
"1202 30 LINE SMOOTH",
"1202 -14.875 OFFCURVE",
"1097.23 -100 OFFCURVE",
"970 -100 OFFCURVE",
"878 -31 OFFCURVE",
"877 52 OFFCURVE",
"877 102 QCURVE SMOOTH",
"877 272 LINE"
);
},
{
closed = 1;
nodes = (
"663 257 LINE SMOOTH",
"663 276 OFFCURVE",
"645 276 QCURVE SMOOTH",
"278 276 LINE SMOOTH",
"252 276 OFFCURVE",
"252 245 QCURVE SMOOTH",
"252 171.87 OFFCURVE",
"370.864 42 OFFCURVE",
"448 42 QCURVE SMOOTH",
"525.411 42 OFFCURVE",
"646.118 160.59 OFFCURVE",
"663 245 QCURVE"
);
}
);
width = 1247;
}
);
unicode = 025A;
},
{
glyphname = f;
lastChange = "2017-06-09 15:50:33 +0000";
layers = (
{
anchors = (
{
name = "Anchor-1";
position = "{-250, 0}";
}
);
layerId = "CB1E75F3-3DD4-4E31-8468-5A6CAC277236";
paths = (
{
closed = 1;
nodes = (
"617 16 QCURVE SMOOTH",
"617 0 OFFCURVE",
"599 0 QCURVE SMOOTH",
"50 0 LINE",
"40 2 OFFCURVE",
"40 13.5 QCURVE SMOOTH",
"40 31.646 OFFCURVE",
"87 38.5 QCURVE SMOOTH",
"195 54.25 OFFCURVE",
"195 152 QCURVE SMOOTH",
"195 758 LINE SMOOTH",
"195 769 OFFCURVE",
"183 769 QCURVE SMOOTH",
"74 769 LINE SMOOTH",
"62 769 OFFCURVE",
"40 784 OFFCURVE",
"40 809 OFFCURVE",
"51.5 816 QCURVE SMOOTH",
"68.517 826.358 OFFCURVE",
"195 860.293 OFFCURVE",
"195 899 QCURVE SMOOTH",
"195 932 LINE SMOOTH",
"195 1292.16 OFFCURVE",
"351 1486.5 QCURVE SMOOTH",
"437.765 1594.59 OFFCURVE",
"616 1654 QCURVE SMOOTH",
"670 1672 OFFCURVE",
"776.417 1672 OFFCURVE",
"918 1617.19 OFFCURVE",
"918 1578 QCURVE SMOOTH",
"918 1570 OFFCURVE",
"913 1558 OFFCURVE",
"910 1549 QCURVE",
"869 1461 LINE SMOOTH",
"861 1445 OFFCURVE",
"850 1445 QCURVE SMOOTH",
"846.75 1445 OFFCURVE",
"766.548 1508.29 OFFCURVE",
"678.129 1561 OFFCURVE",
"617.565 1561 QCURVE SMOOTH",
"501 1561 OFFCURVE",
"380.831 1440.83 OFFCURVE",
"351 1289.81 OFFCURVE",
"351 1199 QCURVE SMOOTH",
"351 908 LINE SMOOTH",
"351 900 OFFCURVE",
"361 900 QCURVE SMOOTH",
"556 900 LINE SMOOTH",
"584 900 OFFCURVE",
"601 889 OFFCURVE",
"617 828.2 OFFCURVE",
"617 777 OFFCURVE",
"607 769 OFFCURVE",
"591 769 QCURVE SMOOTH",
"364 769 LINE SMOOTH",
"351 769 OFFCURVE",
"351 759 QCURVE SMOOTH",
"351 172 LINE SMOOTH",
"351 29 OFFCURVE",
"599 29 QCURVE",
"617 27 OFFCURVE"
);
}
);
width = 624;
}
);
unicode = 0066;
},
{
glyphname = g;
lastChange = "2017-06-09 15:50:33 +0000";
layers = (
{
anchors = (
{
name = "Anchor-1";
position = "{0, 0}";
}
);
layerId = "CB1E75F3-3DD4-4E31-8468-5A6CAC277236";
paths = (
{
closed = 1;
nodes = (
"819 831 QCURVE",
"1087 843 LINE",
"1110 843 OFFCURVE",
"1124 833 OFFCURVE",
"1140 773.8 OFFCURVE",
"1140 722 OFFCURVE",
"1130 714 OFFCURVE",
"1115 714 QCURVE SMOOTH",
"893 714 LINE",
"899 703 OFFCURVE",
"913 679 OFFCURVE",
"935 623.154 OFFCURVE",
"935 506 OFFCURVE",
"878 379 OFFCURVE",
"823 329.5 QCURVE SMOOTH",
"701.333 220 OFFCURVE",
"507 220 QCURVE SMOOTH",
"455.8 220 OFFCURVE",
"395 239 QCURVE",
"380 223 OFFCURVE",
"330 196 OFFCURVE",
"305.5 182 QCURVE SMOOTH",
"246 148 OFFCURVE",
"246 114 QCURVE SMOOTH",
"246 29.146 OFFCURVE",
"527.771 27.189 QCURVE SMOOTH",
"809.542 25.232 OFFCURVE",
"986.783 -7.783 OFFCURVE",
"1035.89 -56.892 QCURVE SMOOTH",
"1113 -134 OFFCURVE",
"1113 -233 QCURVE SMOOTH",
"1113 -318.123 OFFCURVE",
"1040.5 -408.5 QCURVE SMOOTH",
"913.359 -566.991 OFFCURVE",
"652.5 -620 QCURVE SMOOTH",
"559 -639 OFFCURVE",
"455 -639 QCURVE SMOOTH",
"266.231 -639 OFFCURVE",
"70 -501.849 OFFCURVE",
"70 -405 QCURVE SMOOTH",
"70 -352 OFFCURVE",
"120 -283 OFFCURVE",
"197 -222 OFFCURVE",
"289 -155 OFFCURVE",
"331 -103 QCURVE",
"235.182 -95.335 OFFCURVE",
"98 10.871 OFFCURVE",
"98 113 OFFCURVE",
"152 162 OFFCURVE",
"230 197 OFFCURVE",
"316 227 OFFCURVE",
"348 251 QCURVE",
"236 295 OFFCURVE",
"114 450 OFFCURVE",
"114 541.5 QCURVE SMOOTH",
"114 712.534 OFFCURVE",
"362.614 929 OFFCURVE",
"714.875 929 OFFCURVE"
);
},
{
closed = 1;
nodes = (
"222 -287 OFFCURVE",
"222 -366 OFFCURVE",
"279 -453 OFFCURVE",
"327.5 -488.5 QCURVE SMOOTH",
"436.113 -568 OFFCURVE",
"739.8 -568 OFFCURVE",
"987 -391.429 OFFCURVE",
"987 -180.2 OFFCURVE",
"885 -144.5 QCURVE SMOOTH",
"837.468 -127.864 OFFCURVE",
"638.273 -123.714 QCURVE SMOOTH",
"439.077 -119.564 OFFCURVE",
"380 -113 QCURVE",
"354 -143 OFFCURVE",
"299 -189 OFFCURVE",
"252 -235 OFFCURVE"
);
},
{
closed = 1;
nodes = (
"629.8 883 OFFCURVE",
"514 883 QCURVE SMOOTH",
"363.872 883 OFFCURVE",
"302 742.5 QCURVE SMOOTH",
"278 688 OFFCURVE",
"278 618.5 QCURVE SMOOTH",
"278 474.71 OFFCURVE",
"337 380.5 QCURVE SMOOTH",
"408.707 266 OFFCURVE",
"642.84 266 OFFCURVE",
"771 423.574 OFFCURVE",
"771 706.5 OFFCURVE"
);
}
);
width = 1148;
}
);
unicode = 0067;
},
{
glyphname = gbar;
lastChange = "2017-06-09 15:50:33 +0000";
layers = (
{
layerId = "CB1E75F3-3DD4-4E31-8468-5A6CAC277236";
paths = (
{
closed = 1;
nodes = (
"819 831 QCURVE",
"1087 843 LINE",
"1110 843 OFFCURVE",
"1124 833 OFFCURVE",
"1140 773.8 OFFCURVE",
"1140 722 OFFCURVE",
"1130 714 OFFCURVE",
"1115 714 QCURVE SMOOTH",
"893 714 LINE",
"899 703 OFFCURVE",
"913 679 OFFCURVE",
"935 623.154 OFFCURVE",
"935 506 OFFCURVE",
"878 379 OFFCURVE",
"823 329.5 QCURVE SMOOTH",
"701.333 220 OFFCURVE",
"507 220 QCURVE SMOOTH",
"455.8 220 OFFCURVE",
"395 239 QCURVE",
"380 223 OFFCURVE",
"330 196 OFFCURVE",
"305.5 182 QCURVE SMOOTH",
"246 148 OFFCURVE",
"246 114 QCURVE SMOOTH",
"246 29.146 OFFCURVE",
"809.542 25.232 OFFCURVE",
"986.783 -7.783 OFFCURVE",
"1035.89 -56.892 QCURVE SMOOTH",
"1113 -134 OFFCURVE",
"1113 -233 QCURVE",
"1112 -250 LINE",
"1158 -250 LINE SMOOTH",
"1183 -250 OFFCURVE",
"1183 -275 QCURVE SMOOTH",
"1183 -311 LINE SMOOTH",
"1183 -336 OFFCURVE",
"1158 -336 QCURVE SMOOTH",
"1087 -336 LINE",
"1028.31 -457.884 OFFCURVE",
"697.31 -639 OFFCURVE",
"446 -639 QCURVE SMOOTH",
"266.231 -639 OFFCURVE",
"70 -501.849 OFFCURVE",
"70 -405 QCURVE SMOOTH",
"70 -367 OFFCURVE",
"84 -336 QCURVE",
"23 -336 LINE SMOOTH",
"-2 -336 OFFCURVE",
"-2 -311 QCURVE SMOOTH",
"-2 -275 LINE SMOOTH",
"-2 -250 OFFCURVE",
"23 -250 QCURVE SMOOTH",
"161 -250 LINE",
"199 -220 OFFCURVE",
"289 -154 OFFCURVE",
"331 -103 QCURVE",
"235.182 -95.335 OFFCURVE",
"98 10.871 OFFCURVE",
"98 113 OFFCURVE",
"152 162 OFFCURVE",
"230 197 OFFCURVE",
"316 227 OFFCURVE",
"348 251 QCURVE",
"236 295 OFFCURVE",
"114 450 OFFCURVE",
"114 541.5 QCURVE SMOOTH",
"114 712.534 OFFCURVE",
"362.614 929 OFFCURVE",
"714.875 929 OFFCURVE"
);
},
{
closed = 1;
nodes = (
"629.8 883 OFFCURVE",
"514 883 QCURVE SMOOTH",
"363.872 883 OFFCURVE",
"302 742.5 QCURVE SMOOTH",
"278 688 OFFCURVE",
"278 618.5 QCURVE SMOOTH",
"278 474.71 OFFCURVE",
"337 380.5 QCURVE SMOOTH",
"408.707 266 OFFCURVE",
"642.84 266 OFFCURVE",
"771 423.574 OFFCURVE",
"771 706.5 OFFCURVE"
);
},
{
closed = 1;
nodes = (
"944.443 -433.671 OFFCURVE",
"977 -336 QCURVE",
"222 -336 LINE",
"230.295 -423.098 OFFCURVE",
"443.258 -568 OFFCURVE",
"718.429 -568 OFFCURVE"
);
},
{
closed = 1;
nodes = (
"380 -113 QCURVE",
"361.2 -134.933 OFFCURVE",
"261.818 -223.273 OFFCURVE",
"244 -250 QCURVE",
"984 -250 LINE",
"973 -194 OFFCURVE",
"882 -136 OFFCURVE",
"806 -130 OFFCURVE",
"772 -128.5 QCURVE SMOOTH",
"686.105 -124.711 OFFCURVE",
"439.077 -119.564 OFFCURVE"
);
}
);
width = 1148;
}
);
unicode = 01E5;
},
{
glyphname = uni021D;
lastChange = "2017-06-09 15:50:33 +0000";
layers = (
{
layerId = "CB1E75F3-3DD4-4E31-8468-5A6CAC277236";
paths = (
{
closed = 1;
nodes = (
"297.5 -640 QCURVE SMOOTH",
"25 -640 OFFCURVE",
"25 -530 QCURVE SMOOTH",
"25 -467 OFFCURVE",
"110 -467 QCURVE SMOOTH",
"129.389 -467 OFFCURVE",
"163.569 -493.75 QCURVE SMOOTH",
"197.75 -520.5 OFFCURVE",
"276.5 -552 OFFCURVE",
"348.25 -552 QCURVE SMOOTH",
"484.164 -552 OFFCURVE",
"699 -281.794 OFFCURVE",
"699 52.389 OFFCURVE",
"515.781 201 OFFCURVE",
"381 201 QCURVE SMOOTH",
"308.556 201 OFFCURVE",
"241 182 QCURVE",
"172 167 LINE",
"161 167 OFFCURVE",
"149 190 OFFCURVE",
"149 205 OFFCURVE",
"155 215 OFFCURVE",
"211.5 238.5 QCURVE SMOOTH",
"373.464 305.866 OFFCURVE",
"587 499.63 OFFCURVE",
"587 729 OFFCURVE",
"490 850 OFFCURVE",
"432.5 852.5 QCURVE SMOOTH",
"338.222 856.599 OFFCURVE",
"230.407 808.467 OFFCURVE",
"155 722 OFFCURVE",
"138 652 OFFCURVE",
"127 587 OFFCURVE",
"111 542 OFFCURVE",
"77.333 542 OFFCURVE",
"76 546 QCURVE",
"76 911 LINE SMOOTH",
"76 923 OFFCURVE",
"102 923 QCURVE SMOOTH",
"111 923 OFFCURVE",
"120 899 OFFCURVE",
"138.889 844.222 OFFCURVE",
"160 840 QCURVE",
"166 840 LINE",
"278.643 923 OFFCURVE",
"604.067 923 OFFCURVE",
"682.5 832.5 QCURVE SMOOTH",
"742 763.846 OFFCURVE",
"742 618 OFFCURVE",
"696 525 OFFCURVE",
"622 446 OFFCURVE",
"528 368 OFFCURVE",
"474 314 OFFCURVE",
"474 307 OFFCURVE",
"569 307 OFFCURVE",
"638.5 287 QCURVE SMOOTH",
"858 223.835 OFFCURVE",
"858 -128 QCURVE SMOOTH",
"858 -252.506 OFFCURVE",
"774.5 -373 QCURVE SMOOTH",
"647.069 -556.888 OFFCURVE",
"418 -619.5 QCURVE SMOOTH",
"343 -640 OFFCURVE"
);
}
);
width = 958;
}
);
unicode = 021D;
},
{
glyphname = h;
lastChange = "2017-06-09 15:50:33 +0000";
layers = (
{
anchors = (
{
name = "Anchor-1";
position = "{0, 0}";
}
);
layerId = "CB1E75F3-3DD4-4E31-8468-5A6CAC277236";
paths = (
{
closed = 1;
nodes = (
"341 774 LINE SMOOTH",
"341 750 OFFCURVE",
"355 750 OFFCURVE",
"361 757 OFFCURVE",
"399.8 800.235 QCURVE SMOOTH",
"512.667 926 OFFCURVE",
"628.989 926 QCURVE SMOOTH",
"781.266 926 OFFCURVE",
"851.5 857.5 QCURVE SMOOTH",
"939 772.16 OFFCURVE",
"939 569 QCURVE SMOOTH",
"939 152 LINE SMOOTH",
"939 54.25 OFFCURVE",
"1047 38.5 QCURVE SMOOTH",
"1094 31.646 OFFCURVE",
"1094 2 OFFCURVE",
"1084 0 QCURVE",
"638 0 LINE",
"628 2 OFFCURVE",
"628 13.5 QCURVE SMOOTH",
"628 31.646 OFFCURVE",
"675 38.5 QCURVE SMOOTH",
"783 54.25 OFFCURVE",
"783 152 QCURVE SMOOTH",
"783 559 LINE SMOOTH",
"783 705.971 OFFCURVE",
"762.5 750.486 QCURVE SMOOTH",
"722.197 838 OFFCURVE",
"595 838 QCURVE SMOOTH",
"517.271 838 OFFCURVE",
"341 704.667 OFFCURVE",
"341 625 QCURVE SMOOTH",
"341 152 LINE SMOOTH",
"341 54.25 OFFCURVE",
"449 38.5 QCURVE SMOOTH",
"496 31.646 OFFCURVE",
"496 2 OFFCURVE",
"486 0 QCURVE",
"40 0 LINE",
"30 2 OFFCURVE",
"30 13.5 QCURVE SMOOTH",
"30 31.646 OFFCURVE",
"77 38.5 QCURVE SMOOTH",
"185 54.25 OFFCURVE",
"185 152 QCURVE SMOOTH",
"185 1399 LINE SMOOTH",
"185 1440.9 OFFCURVE",
"139 1457 QCURVE SMOOTH",
"119 1464 OFFCURVE",
"73 1473 OFFCURVE",
"46 1481 OFFCURVE",
"39 1488 OFFCURVE",
"39 1510.67 OFFCURVE",
"54 1519 QCURVE",
"309 1639 LINE SMOOTH",
"321 1645 OFFCURVE",
"324 1645 QCURVE SMOOTH",
"341 1645 OFFCURVE",
"341 1621 QCURVE SMOOTH"
);
}
);
width = 1124;
}
);
unicode = 0068;
},
{
glyphname = hbar;
lastChange = "2017-06-09 15:50:33 +0000";
layers = (
{
layerId = "CB1E75F3-3DD4-4E31-8468-5A6CAC277236";
paths = (
{
closed = 1;
nodes = (
"341 774 LINE SMOOTH",
"341 750 OFFCURVE",
"355 750 OFFCURVE",
"361 757 OFFCURVE",
"399.8 800.235 QCURVE SMOOTH",
"512.667 926 OFFCURVE",
"628.989 926 QCURVE SMOOTH",
"781.266 926 OFFCURVE",
"851.5 857.5 QCURVE SMOOTH",
"939 772.16 OFFCURVE",
"939 569 QCURVE SMOOTH",
"939 152 LINE SMOOTH",
"939 54.25 OFFCURVE",
"1047 38.5 QCURVE SMOOTH",
"1094 31.646 OFFCURVE",
"1094 2 OFFCURVE",
"1084 0 QCURVE",
"638 0 LINE",
"628 2 OFFCURVE",
"628 13.5 QCURVE SMOOTH",
"628 31.646 OFFCURVE",
"675 38.5 QCURVE SMOOTH",
"783 54.25 OFFCURVE",
"783 152 QCURVE SMOOTH",
"783 559 LINE SMOOTH",
"783 705.971 OFFCURVE",
"762.5 750.486 QCURVE SMOOTH",
"722.197 838 OFFCURVE",
"595 838 QCURVE SMOOTH",
"517.271 838 OFFCURVE",
"341 704.667 OFFCURVE",
"341 625 QCURVE SMOOTH",
"341 152 LINE SMOOTH",
"341 54.25 OFFCURVE",
"449 38.5 QCURVE SMOOTH",
"496 31.646 OFFCURVE",
"496 2 OFFCURVE",
"486 0 QCURVE",
"40 0 LINE",
"30 2 OFFCURVE",
"30 13.5 QCURVE SMOOTH",
"30 31.646 OFFCURVE",
"77 38.5 QCURVE SMOOTH",
"185 54.25 OFFCURVE",
"185 152 QCURVE SMOOTH",
"185 1144 LINE",
"73 1144 LINE SMOOTH",
"48 1144 OFFCURVE",
"48 1169 QCURVE SMOOTH",
"48 1205 LINE SMOOTH",
"48 1230 OFFCURVE",
"73 1230 QCURVE SMOOTH",
"185 1230 LINE",
"185 1399 LINE SMOOTH",
"185 1440.9 OFFCURVE",
"139 1457 QCURVE SMOOTH",
"119 1464 OFFCURVE",
"73 1473 OFFCURVE",
"46 1481 OFFCURVE",
"39 1488 OFFCURVE",
"39 1510.67 OFFCURVE",
"54 1519 QCURVE",
"309 1639 LINE SMOOTH",
"321 1645 OFFCURVE",
"324 1645 QCURVE SMOOTH",
"341 1645 OFFCURVE",
"341 1621 QCURVE SMOOTH",
"341 1230 LINE",
"648 1230 LINE SMOOTH",
"673 1230 OFFCURVE",
"673 1205 QCURVE SMOOTH",
"673 1169 LINE SMOOTH",
"673 1144 OFFCURVE",
"648 1144 QCURVE SMOOTH",
"341 1144 LINE"
);
}
);
width = 1124;
}
);
unicode = 0127;
},
{
glyphname = hcircumflex;
lastChange = "2017-06-09 15:50:33 +0000";
layers = (
{
layerId = "CB1E75F3-3DD4-4E31-8468-5A6CAC277236";
paths = (
{
closed = 1;
nodes = (
"565 1903 LINE",
"563.286 1903 OFFCURVE",
"544 1885 OFFCURVE",
"514 1858 OFFCURVE",
"462 1812 OFFCURVE",
"423.5 1777.5 QCURVE SMOOTH",
"326.971 1691 OFFCURVE",
"316.222 1691 OFFCURVE",
"296 1713.75 OFFCURVE",
"296 1724 OFFCURVE",
"303 1731 QCURVE SMOOTH",
"541 2005 LINE",
"547 2010 OFFCURVE",
"560 2022 OFFCURVE",
"565 2022 QCURVE SMOOTH",
"573 2022 OFFCURVE",
"591 2004 QCURVE",
"839 1731 LINE SMOOTH",
"846 1722 OFFCURVE",
"846 1713.75 OFFCURVE",
"825.778 1691 OFFCURVE",
"817 1691 OFFCURVE",
"813 1695 QCURVE SMOOTH"
);
},
{
closed = 1;
nodes = (
"341 774 LINE SMOOTH",
"341 750 OFFCURVE",
"355 750 OFFCURVE",
"361 757 OFFCURVE",
"399.8 800.235 QCURVE SMOOTH",
"512.667 926 OFFCURVE",
"628.989 926 QCURVE SMOOTH",
"781.266 926 OFFCURVE",
"851.5 857.5 QCURVE SMOOTH",
"939 772.16 OFFCURVE",
"939 569 QCURVE SMOOTH",
"939 152 LINE SMOOTH",
"939 54.25 OFFCURVE",
"1047 38.5 QCURVE SMOOTH",
"1094 31.646 OFFCURVE",
"1094 2 OFFCURVE",
"1084 0 QCURVE",
"638 0 LINE",
"628 2 OFFCURVE",
"628 13.5 QCURVE SMOOTH",
"628 31.646 OFFCURVE",
"675 38.5 QCURVE SMOOTH",
"783 54.25 OFFCURVE",
"783 152 QCURVE SMOOTH",
"783 559 LINE SMOOTH",
"783 705.971 OFFCURVE",
"762.5 750.486 QCURVE SMOOTH",
"722.197 838 OFFCURVE",
"595 838 QCURVE SMOOTH",
"517.271 838 OFFCURVE",
"341 704.667 OFFCURVE",
"341 625 QCURVE SMOOTH",
"341 152 LINE SMOOTH",
"341 54.25 OFFCURVE",
"449 38.5 QCURVE SMOOTH",
"496 31.646 OFFCURVE",
"496 2 OFFCURVE",
"486 0 QCURVE",
"40 0 LINE",
"30 2 OFFCURVE",
"30 13.5 QCURVE SMOOTH",
"30 31.646 OFFCURVE",
"77 38.5 QCURVE SMOOTH",
"185 54.25 OFFCURVE",
"185 152 QCURVE SMOOTH",
"185 1399 LINE SMOOTH",
"185 1440.9 OFFCURVE",
"139 1457 QCURVE SMOOTH",
"119 1464 OFFCURVE",
"73 1473 OFFCURVE",
"46 1481 OFFCURVE",
"39 1488 OFFCURVE",
"39 1510.67 OFFCURVE",
"54 1519 QCURVE",
"309 1639 LINE SMOOTH",
"321 1645 OFFCURVE",
"324 1645 QCURVE SMOOTH",
"341 1645 OFFCURVE",
"341 1621 QCURVE SMOOTH"
);
}
);
width = 1124;
}
);
unicode = 0125;
},
{
glyphname = i;
lastChange = "2017-06-09 15:50:33 +0000";
layers = (
{
anchors = (
{
name = "Anchor-1";
position = "{-265, 0}";
}
);
layerId = "CB1E75F3-3DD4-4E31-8468-5A6CAC277236";
paths = (
{
closed = 1;
nodes = (
"70 0 LINE",
"60 2 OFFCURVE",
"60 13.5 QCURVE SMOOTH",
"60 31.646 OFFCURVE",
"107 38.5 QCURVE SMOOTH",
"215 54.25 OFFCURVE",
"215 152 QCURVE SMOOTH",
"215 681 LINE SMOOTH",
"215 722.9 OFFCURVE",
"169 739 QCURVE SMOOTH",
"149 746 OFFCURVE",
"103 755 OFFCURVE",
"76 763 OFFCURVE",
"69 770 OFFCURVE",
"69 792.667 OFFCURVE",
"84 801 QCURVE",
"339 921 LINE SMOOTH",
"351 927 OFFCURVE",
"354 927 QCURVE SMOOTH",
"371 927 OFFCURVE",
"371 903 QCURVE SMOOTH",
"371 152 LINE SMOOTH",
"371 54.25 OFFCURVE",
"479 38.5 QCURVE SMOOTH",
"526 31.646 OFFCURVE",
"526 2 OFFCURVE",
"516 0 QCURVE"
);
},
{
closed = 1;
nodes = (
"174 1260 OFFCURVE",
"174 1353 OFFCURVE",
"234 1407 OFFCURVE",
"316.862 1407 OFFCURVE",
"374 1343.27 OFFCURVE",
"374 1268.8 OFFCURVE",
"319.714 1208 OFFCURVE",
"237 1208 OFFCURVE"
);
}
);
width = 576;
}
);
unicode = 0069;
},
{
glyphname = dotlessi;
lastChange = "2017-06-09 15:50:33 +0000";
layers = (
{
anchors = (
{
name = "Anchor-2";
position = "{300, 0}";
}
);
layerId = "CB1E75F3-3DD4-4E31-8468-5A6CAC277236";
paths = (
{
closed = 1;
nodes = (
"479 38.5 QCURVE SMOOTH",
"526 31.646 OFFCURVE",
"526 13.5 QCURVE SMOOTH",
"526 2 OFFCURVE",
"516 0 QCURVE",
"70 0 LINE",
"60 2 OFFCURVE",
"60 13.5 QCURVE SMOOTH",
"60 31.646 OFFCURVE",
"107 38.5 QCURVE SMOOTH",
"215 54.25 OFFCURVE",
"215 152 QCURVE SMOOTH",
"215 681 LINE SMOOTH",
"215 722.9 OFFCURVE",
"169 739 QCURVE SMOOTH",
"149 746 OFFCURVE",
"103 755 OFFCURVE",
"76 763 OFFCURVE",
"69 770 OFFCURVE",
"69 792.667 OFFCURVE",
"84 801 QCURVE",
"339 921 LINE SMOOTH",
"351 927 OFFCURVE",
"354 927 QCURVE SMOOTH",
"371 927 OFFCURVE",
"371 903 QCURVE SMOOTH",
"371 152 LINE SMOOTH",
"371 54.25 OFFCURVE"
);
}
);
width = 576;
}
);
unicode = 0131;
},
{
glyphname = j;
lastChange = "2017-06-09 15:50:33 +0000";
layers = (
{
anchors = (
{
name = "Anchor-1";
position = "{0, 0}";
}
);
layerId = "CB1E75F3-3DD4-4E31-8468-5A6CAC277236";
paths = (
{
closed = 1;
nodes = (
"109 -543 QCURVE",
"215 -518.059 OFFCURVE",
"215 -317 QCURVE SMOOTH",
"215 681 LINE SMOOTH",
"215 722.9 OFFCURVE",
"169 739 QCURVE SMOOTH",
"149 746 OFFCURVE",
"103 755 OFFCURVE",
"76 763 OFFCURVE",
"69 770 OFFCURVE",
"69 792.667 OFFCURVE",
"84 801 QCURVE",
"339 921 LINE SMOOTH",
"351 927 OFFCURVE",
"354 927 QCURVE SMOOTH",
"371 927 OFFCURVE",
"371 903 QCURVE SMOOTH",
"371 -127 LINE SMOOTH",
"371 -286.935 OFFCURVE",
"305 -417.5 QCURVE SMOOTH",
"282 -463 OFFCURVE",
"250 -500 QCURVE",
"162.019 -618.225 OFFCURVE",
"18.5 -634.5 QCURVE SMOOTH",
"-30 -640 OFFCURVE",
"-137.278 -640 OFFCURVE",
"-243.087 -558.955 OFFCURVE",
"-247 -512 QCURVE",
"-247 -457.939 OFFCURVE",
"-193.5 -432 QCURVE SMOOTH",
"-177 -424 OFFCURVE",
"-164.031 -424 QCURVE SMOOTH",
"-140.667 -424 OFFCURVE",
"-26 -512 QCURVE SMOOTH",
"15.333 -543 OFFCURVE"
);
},
{
closed = 1;
nodes = (
"160 1260 OFFCURVE",
"160 1353 OFFCURVE",
"220 1407 OFFCURVE",
"303.862 1407 OFFCURVE",
"361 1343.27 OFFCURVE",
"361 1268.8 OFFCURVE",
"306.714 1208 OFFCURVE",
"224 1208 OFFCURVE"
);
}
);
width = 577;
}
);
unicode = 006A;
},
{
glyphname = dotlessj;
lastChange = "2017-06-09 15:50:33 +0000";
layers = (
{
anchors = (
{
name = "Anchor-2";
position = "{295, 0}";
}
);
layerId = "CB1E75F3-3DD4-4E31-8468-5A6CAC277236";
paths = (
{
closed = 1;
nodes = (
"109 -543 QCURVE",
"215 -518.059 OFFCURVE",
"215 -317 QCURVE SMOOTH",
"215 681 LINE SMOOTH",
"215 722.9 OFFCURVE",
"169 739 QCURVE SMOOTH",
"149 746 OFFCURVE",
"103 755 OFFCURVE",
"76 763 OFFCURVE",
"69 770 OFFCURVE",
"69 792.667 OFFCURVE",
"84 801 QCURVE",
"339 921 LINE SMOOTH",
"351 927 OFFCURVE",
"354 927 QCURVE SMOOTH",
"371 927 OFFCURVE",
"371 903 QCURVE SMOOTH",
"371 -127 LINE SMOOTH",
"371 -286.935 OFFCURVE",
"305 -417.5 QCURVE SMOOTH",
"282 -463 OFFCURVE",
"250 -500 QCURVE",
"162.019 -618.225 OFFCURVE",
"18.5 -634.5 QCURVE SMOOTH",
"-30 -640 OFFCURVE",
"-137.278 -640 OFFCURVE",
"-243.087 -558.955 OFFCURVE",
"-247 -512 QCURVE",
"-247 -457.939 OFFCURVE",
"-193.5 -432 QCURVE SMOOTH",
"-177 -424 OFFCURVE",
"-164.031 -424 QCURVE SMOOTH",
"-140.667 -424 OFFCURVE",
"-26 -512 QCURVE SMOOTH",
"15.333 -543 OFFCURVE"
);
}
);
width = 577;
}
);
unicode = F6BE;
},
{
glyphname = uni0237;
lastChange = "2017-06-09 15:50:33 +0000";
layers = (
{
layerId = "CB1E75F3-3DD4-4E31-8468-5A6CAC277236";
paths = (
{
closed = 1;
nodes = (
"109 -543 QCURVE",
"215 -518.059 OFFCURVE",
"215 -317 QCURVE SMOOTH",
"215 681 LINE SMOOTH",
"215 722.9 OFFCURVE",
"169 739 QCURVE SMOOTH",
"149 746 OFFCURVE",
"103 755 OFFCURVE",
"76 763 OFFCURVE",
"69 770 OFFCURVE",
"69 792.667 OFFCURVE",
"84 801 QCURVE",
"339 921 LINE SMOOTH",
"351 927 OFFCURVE",
"354 927 QCURVE SMOOTH",
"371 927 OFFCURVE",
"371 903 QCURVE SMOOTH",
"371 -127 LINE SMOOTH",
"371 -286.935 OFFCURVE",
"305 -417.5 QCURVE SMOOTH",
"282 -463 OFFCURVE",
"250 -500 QCURVE",
"162.019 -618.225 OFFCURVE",
"18.5 -634.5 QCURVE SMOOTH",
"-30 -640 OFFCURVE",
"-137.278 -640 OFFCURVE",
"-243.087 -558.955 OFFCURVE",
"-247 -512 QCURVE",
"-247 -457.939 OFFCURVE",
"-193.5 -432 QCURVE SMOOTH",
"-177 -424 OFFCURVE",
"-164.031 -424 QCURVE SMOOTH",
"-140.667 -424 OFFCURVE",
"-26 -512 QCURVE SMOOTH",
"15.333 -543 OFFCURVE"
);
}
);
width = 577;
}
);
unicode = 0237;
},
{
glyphname = k;
lastChange = "2017-06-09 15:50:33 +0000";
layers = (
{
anchors = (
{
name = "Anchor-1";
position = "{0, 0}";
}
);
layerId = "CB1E75F3-3DD4-4E31-8468-5A6CAC277236";
paths = (
{
closed = 1;
nodes = (
"367 479 LINE SMOOTH",
"355 479 OFFCURVE",
"355 430 QCURVE SMOOTH",
"355 152 LINE SMOOTH",
"355 54.25 OFFCURVE",
"463 38.5 QCURVE SMOOTH",
"510 31.646 OFFCURVE",
"510 0 OFFCURVE",
"500 0 QCURVE SMOOTH",
"54 0 LINE",
"44 2 OFFCURVE",
"44 13.5 QCURVE SMOOTH",
"44 31.646 OFFCURVE",
"91 38.5 QCURVE SMOOTH",
"199 54.25 OFFCURVE",
"199 152 QCURVE SMOOTH",
"199 1399 LINE SMOOTH",
"199 1440.9 OFFCURVE",
"153 1457 QCURVE SMOOTH",
"133 1464 OFFCURVE",
"87 1473 OFFCURVE",
"60 1481 OFFCURVE",
"53 1488 OFFCURVE",
"53 1510.67 OFFCURVE",
"68 1519 QCURVE",
"323 1639 LINE SMOOTH",
"335 1645 OFFCURVE",
"338 1645 QCURVE SMOOTH",
"355 1645 OFFCURVE",
"355 1621 QCURVE SMOOTH",
"355 623 LINE",
"363 594 OFFCURVE",
"389 584 OFFCURVE",
"404 584 QCURVE SMOOTH",
"432.786 584 OFFCURVE",
"565.614 675.456 OFFCURVE",
"674 788.265 OFFCURVE",
"674 831 OFFCURVE",
"636 842 OFFCURVE",
"589 847 OFFCURVE",
"551 858 OFFCURVE",
"551 900 OFFCURVE",
"592 900 QCURVE SMOOTH",
"973 900 LINE SMOOTH",
"1008 900 OFFCURVE",
"1008 877 QCURVE SMOOTH",
"1008 865 OFFCURVE",
"962 851 OFFCURVE",
"830.424 821.976 OFFCURVE",
"791 791 QCURVE SMOOTH",
"504 567 LINE",
"504 554 OFFCURVE",
"523 535 QCURVE SMOOTH",
"934 102 LINE SMOOTH",
"973.52 60.96 OFFCURVE",
"1058 36 OFFCURVE",
"1086 28 OFFCURVE",
"1086 18 QCURVE SMOOTH",
"1086 0 OFFCURVE",
"1070 0 QCURVE SMOOTH",
"631 0 LINE SMOOTH",
"621 0 OFFCURVE",
"621 12 QCURVE SMOOTH",
"621 30.129 OFFCURVE",
"646.5 35.064 QCURVE SMOOTH",
"721 49.484 OFFCURVE",
"721 86 QCURVE SMOOTH",
"721 97 OFFCURVE",
"691 133 OFFCURVE",
"678 150 QCURVE",
"369 477 LINE SMOOTH",
"369 478 OFFCURVE",
"368 479 QCURVE"
);
}
);
width = 1096;
}
);
unicode = 006B;
},
{
glyphname = kgreenlandic;
lastChange = "2017-06-09 15:50:33 +0000";
layers = (
{
layerId = "CB1E75F3-3DD4-4E31-8468-5A6CAC277236";
paths = (
{
closed = 1;
nodes = (
"367 479 LINE SMOOTH",
"355 479 OFFCURVE",
"355 430 QCURVE SMOOTH",
"355 152 LINE SMOOTH",
"355 54.25 OFFCURVE",
"463 38.5 QCURVE SMOOTH",
"510 31.646 OFFCURVE",
"510 3.333 OFFCURVE",
"500 0 QCURVE",
"54 0 LINE",
"44 2 OFFCURVE",
"44 13.5 QCURVE SMOOTH",
"44 31.646 OFFCURVE",
"91 38.5 QCURVE SMOOTH",
"199 54.25 OFFCURVE",
"199 152 QCURVE SMOOTH",
"199 730 LINE SMOOTH",
"199 771.9 OFFCURVE",
"153 788 QCURVE SMOOTH",
"133 795 OFFCURVE",
"87 804 OFFCURVE",
"60 812 OFFCURVE",
"53 819 OFFCURVE",
"53 841.667 OFFCURVE",
"68 850 QCURVE",
"323 970 LINE SMOOTH",
"335 976 OFFCURVE",
"338 976 QCURVE SMOOTH",
"355 976 OFFCURVE",
"355 952 QCURVE SMOOTH",
"355 623 LINE",
"363 594 OFFCURVE",
"389 584 OFFCURVE",
"404 584 QCURVE SMOOTH",
"432.786 584 OFFCURVE",
"565.614 675.456 OFFCURVE",
"674 788.265 OFFCURVE",
"674 831 OFFCURVE",
"636 842 OFFCURVE",
"589 847 OFFCURVE",
"551 858 OFFCURVE",
"551 900 OFFCURVE",
"592 900 QCURVE SMOOTH",
"973 900 LINE SMOOTH",
"1008 900 OFFCURVE",
"1008 877 QCURVE SMOOTH",
"1008 865 OFFCURVE",
"962 851 OFFCURVE",
"830.424 821.976 OFFCURVE",
"791 791 QCURVE SMOOTH",
"504 567 LINE",
"504 554 OFFCURVE",
"523 535 QCURVE SMOOTH",
"934 102 LINE SMOOTH",
"973.52 60.96 OFFCURVE",
"1058 36 OFFCURVE",
"1086 28 OFFCURVE",
"1086 18 QCURVE SMOOTH",
"1086 0 OFFCURVE",
"1070 0 QCURVE SMOOTH",
"641 0 LINE SMOOTH",
"621 0 OFFCURVE",
"621 18 QCURVE SMOOTH",
"621 29 OFFCURVE",
"652 41 OFFCURVE",
"671 47 QCURVE SMOOTH",
"721 62.79 OFFCURVE",
"721 86 QCURVE SMOOTH",
"721 100 OFFCURVE",
"691 133 OFFCURVE",
"678 150 QCURVE",
"369 477 LINE SMOOTH",
"369 478 OFFCURVE",
"368 479 QCURVE"
);
}
);
width = 1096;
}
);
unicode = 0138;
},
{
glyphname = l;
lastChange = "2017-06-09 15:50:33 +0000";
layers = (
{
anchors = (
{
name = "Anchor-1";
position = "{-300, 0}";
}
);
layerId = "CB1E75F3-3DD4-4E31-8468-5A6CAC277236";
paths = (
{
closed = 1;
nodes = (
"439 38.5 QCURVE SMOOTH",
"486 31.646 OFFCURVE",
"486 13.5 QCURVE SMOOTH",
"486 2 OFFCURVE",
"476 0 QCURVE",
"30 0 LINE",
"20 2 OFFCURVE",
"20 13.5 QCURVE SMOOTH",
"20 31.646 OFFCURVE",
"67 38.5 QCURVE SMOOTH",
"175 54.25 OFFCURVE",
"175 152 QCURVE SMOOTH",
"175 1399 LINE SMOOTH",
"175 1440.9 OFFCURVE",
"129 1457 QCURVE SMOOTH",
"109 1464 OFFCURVE",
"63 1473 OFFCURVE",
"36 1481 OFFCURVE",
"29 1488 OFFCURVE",
"29 1510.67 OFFCURVE",
"44 1519 QCURVE",
"299 1639 LINE SMOOTH",
"311 1645 OFFCURVE",
"314 1645 QCURVE SMOOTH",
"331 1645 OFFCURVE",
"331 1621 QCURVE SMOOTH",
"331 152 LINE SMOOTH",
"331 54.25 OFFCURVE"
);
}
);
width = 521;
}
);
unicode = 006C;
},
{
glyphname = lslash;
lastChange = "2017-06-09 15:50:33 +0000";
layers = (
{
layerId = "CB1E75F3-3DD4-4E31-8468-5A6CAC277236";
paths = (
{
closed = 1;
nodes = (
"74 555 LINE SMOOTH",
"66.5 549 OFFCURVE",
"45 552 OFFCURVE",
"39 560 QCURVE SMOOTH",
"17 590 LINE",
"13 600 OFFCURVE",
"13 618 OFFCURVE",
"24 625 QCURVE SMOOTH",
"223 764 LINE",
"223 1399 LINE SMOOTH",
"223 1440.9 OFFCURVE",
"177 1457 QCURVE SMOOTH",
"157 1464 OFFCURVE",
"111 1473 OFFCURVE",
"84 1481 OFFCURVE",
"77 1488 OFFCURVE",
"77 1510.67 OFFCURVE",
"92 1519 QCURVE",
"347 1639 LINE SMOOTH",
"359 1645 OFFCURVE",
"362 1645 QCURVE SMOOTH",
"379 1645 OFFCURVE",
"379 1621 QCURVE SMOOTH",
"379 874 LINE",
"557 999 LINE",
"578.5 1011.9 OFFCURVE",
"592 993 QCURVE SMOOTH",
"612 964 LINE SMOOTH",
"618 956 OFFCURVE",
"618 937 OFFCURVE",
"608 929 QCURVE SMOOTH",
"379 768 LINE",
"379 152 LINE SMOOTH",
"379 54.25 OFFCURVE",
"487 38.5 QCURVE SMOOTH",
"534 31.646 OFFCURVE",
"534 2 OFFCURVE",
"524 0 QCURVE",
"78 0 LINE",
"68 2 OFFCURVE",
"68 13.5 QCURVE SMOOTH",
"68 31.646 OFFCURVE",
"115 38.5 QCURVE SMOOTH",
"223 54.25 OFFCURVE",
"223 152 QCURVE SMOOTH",
"223 659 LINE"
);
}
);
width = 569;
}
);
unicode = 0142;
},
{
glyphname = m;
lastChange = "2017-06-09 15:50:33 +0000";
layers = (
{
anchors = (
{
name = "Anchor-1";
position = "{300, 0}";
}
);
layerId = "CB1E75F3-3DD4-4E31-8468-5A6CAC277236";
paths = (
{
closed = 1;
nodes = (
"1388 315 QCURVE SMOOTH",
"1386 526 LINE",
"1386 654.657 OFFCURVE",
"1342 759 OFFCURVE",
"1274 812 OFFCURVE",
"1158.81 812 OFFCURVE",
"973 722 QCURVE",
"948.253 706.533 OFFCURVE",
"947 694 QCURVE",
"947 156 LINE SMOOTH",
"947 55.25 OFFCURVE",
"1055 39.5 QCURVE SMOOTH",
"1102 32.646 OFFCURVE",
"1102 2 OFFCURVE",
"1092 0 QCURVE",
"646 0 LINE",
"636 2 OFFCURVE",
"636 14 QCURVE SMOOTH",
"636 32.646 OFFCURVE",
"683 39.5 QCURVE SMOOTH",
"791 55.25 OFFCURVE",
"791 156 QCURVE SMOOTH",
"791 654 LINE SMOOTH",
"791 811 OFFCURVE",
"597 811 QCURVE SMOOTH",
"525.5 811 OFFCURVE",
"399.5 727 QCURVE SMOOTH",
"368 706 OFFCURVE",
"353 688 QCURVE",
"353 156 LINE SMOOTH",
"353 55.25 OFFCURVE",
"461 39.5 QCURVE SMOOTH",
"508 32.646 OFFCURVE",
"508 2 OFFCURVE",
"498 0 QCURVE",
"52 0 LINE",
"42 2 OFFCURVE",
"42 14 QCURVE SMOOTH",
"42 32.646 OFFCURVE",
"89 39.5 QCURVE SMOOTH",
"197 55.25 OFFCURVE",
"197 154 QCURVE SMOOTH",
"197 730 LINE SMOOTH",
"197 771.9 OFFCURVE",
"151 788 QCURVE SMOOTH",
"131 795 OFFCURVE",
"85 804 OFFCURVE",
"58 812 OFFCURVE",
"51 819 OFFCURVE",
"51 841.667 OFFCURVE",
"66 850 QCURVE",
"321 970 LINE SMOOTH",
"333 976 OFFCURVE",
"336 976 QCURVE SMOOTH",
"353 976 OFFCURVE",
"353 952 QCURVE SMOOTH",
"353 786 LINE",
"354 780 OFFCURVE",
"367 780 OFFCURVE",
"420 808 OFFCURVE",
"506 859 OFFCURVE",
"646.857 927 OFFCURVE",
"726 927 QCURVE SMOOTH",
"853 927 OFFCURVE",
"907.5 818 QCURVE SMOOTH",
"929.452 774.097 OFFCURVE",
"963 787 OFFCURVE",
"999 805 QCURVE SMOOTH",
"1083.67 847.333 OFFCURVE",
"1258.42 927 OFFCURVE",
"1315.21 927 QCURVE SMOOTH",
"1546 927 OFFCURVE",
"1546 506 QCURVE",
"1537 214 LINE",
"1537 156 LINE SMOOTH",
"1537 77.643 OFFCURVE",
"1615 53.5 QCURVE SMOOTH",
"1648.27 43.201 OFFCURVE",
"1709 34 OFFCURVE",
"1728 26 OFFCURVE",
"1728 2 OFFCURVE",
"1718 0 QCURVE",
"1236 0 LINE",
"1226 2 OFFCURVE",
"1226 14 QCURVE SMOOTH",
"1226 32.646 OFFCURVE",
"1273 39.5 QCURVE SMOOTH",
"1380 55.104 OFFCURVE",
"1380 164 QCURVE",
"1388 213.6 OFFCURVE"
);
}
);
width = 1732;
}
);
unicode = 006D;
},
{
glyphname = n;
lastChange = "2017-06-09 15:50:33 +0000";
layers = (
{
anchors = (
{
name = "Anchor-1";
position = "{0, 0}";
}
);
layerId = "CB1E75F3-3DD4-4E31-8468-5A6CAC277236";
paths = (
{
closed = 1;
nodes = (
"804 315 QCURVE SMOOTH",
"802 526 LINE",
"802 654.657 OFFCURVE",
"758 759 OFFCURVE",
"690 812 OFFCURVE",
"574.806 812 OFFCURVE",
"389 722 QCURVE",
"364.253 706.533 OFFCURVE",
"363 694 QCURVE",
"363 156 LINE SMOOTH",
"363 55.25 OFFCURVE",
"471 39.5 QCURVE SMOOTH",
"518 32.646 OFFCURVE",
"518 2 OFFCURVE",
"508 0 QCURVE",
"62 0 LINE",
"52 2 OFFCURVE",
"52 14 QCURVE SMOOTH",
"52 32.646 OFFCURVE",
"99 39.5 QCURVE SMOOTH",
"207 55.25 OFFCURVE",
"207 156 QCURVE SMOOTH",
"207 730 LINE SMOOTH",
"207 771.9 OFFCURVE",
"161 788 QCURVE SMOOTH",
"141 795 OFFCURVE",
"95 804 OFFCURVE",
"68 812 OFFCURVE",
"61 819 OFFCURVE",
"61 841.667 OFFCURVE",
"76 850 QCURVE",
"331 970 LINE SMOOTH",
"343 976 OFFCURVE",
"346 976 QCURVE SMOOTH",
"363 976 OFFCURVE",
"363 952 QCURVE SMOOTH",
"363 796 LINE",
"366 786 OFFCURVE",
"371 786 QCURVE SMOOTH",
"377 786 OFFCURVE",
"414 804.5 QCURVE SMOOTH",
"499.667 847.333 OFFCURVE",
"674.419 927 OFFCURVE",
"731.21 927 QCURVE SMOOTH",
"962 927 OFFCURVE",
"962 506 QCURVE",
"953 214 LINE",
"953 156 LINE SMOOTH",
"953 77.643 OFFCURVE",
"1031 53.5 QCURVE SMOOTH",
"1064.27 43.201 OFFCURVE",
"1125 34 OFFCURVE",
"1144 26 OFFCURVE",
"1144 2 OFFCURVE",
"1134 0 QCURVE",
"652 0 LINE",
"642 2 OFFCURVE",
"642 14 QCURVE SMOOTH",
"642 32.646 OFFCURVE",
"689 39.5 QCURVE SMOOTH",
"796 55.104 OFFCURVE",
"796 164 QCURVE",
"804 213.6 OFFCURVE"
);
}
);
width = 1164;
}
);
unicode = 006E;
},
{
glyphname = eng;
lastChange = "2017-06-09 15:50:33 +0000";
layers = (
{
layerId = "CB1E75F3-3DD4-4E31-8468-5A6CAC277236";
paths = (
{
closed = 1;
nodes = (
"698 -543 QCURVE",
"804 -518.059 OFFCURVE",
"804 -317 QCURVE SMOOTH",
"804 351 LINE",
"802 526 LINE",
"802 655.409 OFFCURVE",
"765 758 OFFCURVE",
"745.5 781.5 QCURVE SMOOTH",
"703.596 832 OFFCURVE",
"574.806 832 OFFCURVE",
"389 742 QCURVE",
"364.253 726.533 OFFCURVE",
"363 714 QCURVE",
"363 156 LINE SMOOTH",
"363 55.25 OFFCURVE",
"471 39.5 QCURVE SMOOTH",
"518 32.646 OFFCURVE",
"518 2 OFFCURVE",
"508 0 QCURVE",
"62 0 LINE",
"52 2 OFFCURVE",
"52 14 QCURVE SMOOTH",
"52 32.646 OFFCURVE",
"99 39.5 QCURVE SMOOTH",
"207 55.25 OFFCURVE",
"207 156 QCURVE SMOOTH",
"207 730 LINE SMOOTH",
"207 771.9 OFFCURVE",
"161 788 QCURVE SMOOTH",
"141 795 OFFCURVE",
"95 804 OFFCURVE",
"68 812 OFFCURVE",
"61 819 OFFCURVE",
"61 841.667 OFFCURVE",
"76 850 QCURVE",
"331 970 LINE SMOOTH",
"343 976 OFFCURVE",
"346 976 QCURVE SMOOTH",
"363 976 OFFCURVE",
"363 952 QCURVE SMOOTH",
"363 796 LINE",
"366 786 OFFCURVE",
"371 786 QCURVE SMOOTH",
"376 786 OFFCURVE",
"381 788 OFFCURVE",
"387 790 QCURVE SMOOTH",
"606 900 LINE SMOOTH",
"658.2 927 OFFCURVE",
"723.1 927 QCURVE SMOOTH",
"830.174 927 OFFCURVE",
"884.5 850.5 QCURVE SMOOTH",
"962 741.367 OFFCURVE",
"962 506 QCURVE",
"960 214 LINE",
"960 -127 LINE SMOOTH",
"960 -286.935 OFFCURVE",
"894 -417.5 QCURVE SMOOTH",
"871 -463 OFFCURVE",
"839 -500 QCURVE",
"751.019 -618.225 OFFCURVE",
"607.5 -634.5 QCURVE SMOOTH",
"559 -640 OFFCURVE",
"451.722 -640 OFFCURVE",
"345.913 -558.955 OFFCURVE",
"342 -512 QCURVE",
"342 -457.939 OFFCURVE",
"395.5 -432 QCURVE SMOOTH",
"412 -424 OFFCURVE",
"424.969 -424 QCURVE SMOOTH",
"448.333 -424 OFFCURVE",
"563 -512 QCURVE SMOOTH",
"604.333 -543 OFFCURVE"
);
}
);
width = 1157;
}
);
unicode = 014B;
},
{
glyphname = o;
lastChange = "2017-06-09 15:50:33 +0000";
layers = (
{
anchors = (
{
name = "Anchor-1";
position = "{0, 0}";
}
);
layerId = "CB1E75F3-3DD4-4E31-8468-5A6CAC277236";
paths = (
{
closed = 1;
nodes = (
"353.815 929 OFFCURVE",
"743.625 929 OFFCURVE",
"1032 653.537 OFFCURVE",
"1032 250.125 OFFCURVE",
"759.138 -27 OFFCURVE",
"346.679 -27 OFFCURVE",
"75 253.236 OFFCURVE",
"75 645.828 OFFCURVE"
);
},
{
closed = 1;
nodes = (
"324.5 192.5 QCURVE SMOOTH",
"421.517 27 OFFCURVE",
"591 27 QCURVE SMOOTH",
"722.42 27 OFFCURVE",
"861 236.97 OFFCURVE",
"861 542.7 OFFCURVE",
"763.333 703.85 QCURVE SMOOTH",
"665.667 865 OFFCURVE",
"501 865 QCURVE SMOOTH",
"380.333 865 OFFCURVE",
"310.667 760.5 QCURVE SMOOTH",
"241 656 OFFCURVE",
"241 334.941 OFFCURVE"
);
}
);
width = 1107;
}
);
unicode = 006F;
},
{
glyphname = oslash;
lastChange = "2017-06-09 15:50:33 +0000";
layers = (
{
anchors = (
{
name = "Anchor-1";
position = "{0, 0}";
}
);
layerId = "CB1E75F3-3DD4-4E31-8468-5A6CAC277236";
paths = (
{
closed = 1;
nodes = (
"579 -27 QCURVE SMOOTH",
"419.524 -27 OFFCURVE",
"298 61 QCURVE",
"123 -115 LINE",
"60 -50 LINE",
"230 122 LINE",
"103 261.7 OFFCURVE",
"103 453.764 QCURVE SMOOTH",
"103 645.828 OFFCURVE",
"242.408 787.414 QCURVE SMOOTH",
"381.815 929 OFFCURVE",
"741.2 929 OFFCURVE",
"879 823 QCURVE",
"1018 962 LINE",
"1085 900 LINE",
"945 760 LINE",
"1060 627.963 OFFCURVE",
"1060 439.044 QCURVE SMOOTH",
"1060 250.125 OFFCURVE",
"923.569 111.562 QCURVE SMOOTH",
"787.138 -27 OFFCURVE"
);
},
{
closed = 1;
nodes = (
"782 718 LINE",
"678.641 865 OFFCURVE",
"543.487 865 QCURVE SMOOTH",
"408.333 865 OFFCURVE",
"338.667 760.5 QCURVE SMOOTH",
"269 656 OFFCURVE",
"269 508.906 QCURVE SMOOTH",
"269 361.812 OFFCURVE",
"331 232 QCURVE"
);
},
{
closed = 1;
nodes = (
"380 150 LINE",
"472.25 27 OFFCURVE",
"611.335 27 QCURVE SMOOTH",
"750.42 27 OFFCURVE",
"819.71 131.985 QCURVE SMOOTH",
"889 236.97 OFFCURVE",
"889 371.985 QCURVE SMOOTH",
"889 507 OFFCURVE",
"829 635 QCURVE"
);
}
);
width = 1155;
}
);
unicode = 00F8;
},
{
glyphname = oe;
lastChange = "2017-06-09 15:50:33 +0000";
layers = (
{
anchors = (
{
name = "Anchor-1";
position = "{300, 0}";
}
);
layerId = "CB1E75F3-3DD4-4E31-8468-5A6CAC277236";
paths = (
{
closed = 1;
nodes = (
"899 138 QCURVE",
"764 -27 OFFCURVE",
"338.669 -27 OFFCURVE",
"75 245.244 OFFCURVE",
"75 628 OFFCURVE",
"348 901 OFFCURVE",
"521.758 901 QCURVE SMOOTH",
"758.275 901 OFFCURVE",
"901 728 QCURVE",
"1023.11 927 OFFCURVE",
"1248 927 QCURVE SMOOTH",
"1354.4 927 OFFCURVE",
"1420 886 QCURVE",
"1483.04 852.379 OFFCURVE",
"1552 706.5 QCURVE SMOOTH",
"1580 647.269 OFFCURVE",
"1580 577 OFFCURVE",
"1556 577 QCURVE SMOOTH",
"976 577 LINE SMOOTH",
"960 577 OFFCURVE",
"960 536 QCURVE SMOOTH",
"960 491 LINE SMOOTH",
"960 184.783 OFFCURVE",
"1190 104.5 QCURVE SMOOTH",
"1243 86 OFFCURVE",
"1290 86 QCURVE SMOOTH",
"1378.26 86 OFFCURVE",
"1447 137 QCURVE",
"1465.86 145.083 OFFCURVE",
"1541.95 209 OFFCURVE",
"1547 209 QCURVE SMOOTH",
"1552 209 LINE SMOOTH",
"1558 209 OFFCURVE",
"1567 197 OFFCURVE",
"1572 194 QCURVE",
"1572 172.6 OFFCURVE",
"1535 143 QCURVE",
"1511 113 OFFCURVE",
"1445 69 QCURVE",
"1315.4 -27 OFFCURVE",
"1195 -27 QCURVE SMOOTH",
"1014.27 -27 OFFCURVE"
);
},
{
closed = 1;
nodes = (
"309.546 171.187 OFFCURVE",
"464.958 26 OFFCURVE",
"704.969 26 OFFCURVE",
"838 228.714 OFFCURVE",
"838 526.69 OFFCURVE",
"649.312 839 OFFCURVE",
"489 839 QCURVE SMOOTH",
"372 839 OFFCURVE",
"236 635 OFFCURVE",
"236 396.029 OFFCURVE"
);
},
{
closed = 1;
nodes = (
"987 643 LINE SMOOTH",
"987 624 OFFCURVE",
"1005 624 QCURVE SMOOTH",
"1372 624 LINE SMOOTH",
"1398 624 OFFCURVE",
"1398 655 QCURVE SMOOTH",
"1398 728.13 OFFCURVE",
"1279.14 858 OFFCURVE",
"1202 858 QCURVE SMOOTH",
"1124.59 858 OFFCURVE",
"1003.88 739.41 OFFCURVE",
"987 655 QCURVE"
);
}
);
width = 1650;
}
);
unicode = 0153;
},
{
glyphname = p;
lastChange = "2017-06-09 15:50:33 +0000";
layers = (
{
anchors = (
{
name = "Anchor-1";
position = "{100, 0}";
}
);
layerId = "CB1E75F3-3DD4-4E31-8468-5A6CAC277236";
paths = (
{
closed = 1;
nodes = (
"823 105 QCURVE SMOOTH",
"685.383 -27 OFFCURVE",
"512.818 -27 QCURVE SMOOTH",
"450.636 -27 OFFCURVE",
"344 -4 QCURVE",
"327 -4 OFFCURVE",
"324 -28 OFFCURVE",
"323 -41 QCURVE",
"323 -468 LINE SMOOTH",
"323 -543.298 OFFCURVE",
"410.5 -567.5 QCURVE SMOOTH",
"447.717 -577.794 OFFCURVE",
"514 -587 OFFCURVE",
"533 -595 OFFCURVE",
"533 -618 OFFCURVE",
"523 -620 QCURVE",
"22 -620 LINE",
"12 -618 OFFCURVE",
"12 -606.5 QCURVE SMOOTH",
"12 -588.354 OFFCURVE",
"59 -581.5 QCURVE SMOOTH",
"167 -565.75 OFFCURVE",
"167 -468 QCURVE SMOOTH",
"167 731 LINE SMOOTH",
"167 772.9 OFFCURVE",
"121 789 QCURVE SMOOTH",
"101 796 OFFCURVE",
"55 805 OFFCURVE",
"28 813 OFFCURVE",
"21 820 OFFCURVE",
"21 842.667 OFFCURVE",
"36 851 QCURVE",
"291 973 LINE SMOOTH",
"299 977 OFFCURVE",
"307 977 QCURVE SMOOTH",
"323 977 OFFCURVE",
"323 953 QCURVE SMOOTH",
"323 826 LINE SMOOTH",
"323 815 OFFCURVE",
"346 815 OFFCURVE",
"390 843.5 QCURVE SMOOTH",
"517.368 926 OFFCURVE",
"654 926 QCURVE SMOOTH",
"749.789 926 OFFCURVE",
"830.5 847.5 QCURVE SMOOTH",
"935.032 745.831 OFFCURVE",
"970 564 QCURVE SMOOTH",
"980 512 OFFCURVE",
"980 395 OFFCURVE",
"961 330 QCURVE SMOOTH",
"923.373 201.276 OFFCURVE"
);
},
{
closed = 1;
nodes = (
"537 822 QCURVE",
"401 822 OFFCURVE",
"323 744 QCURVE",
"323 182 LINE SMOOTH",
"323 132.172 OFFCURVE",
"340.5 117.086 QCURVE SMOOTH",
"384.367 79.27 OFFCURVE",
"475 58.5 QCURVE SMOOTH",
"654.929 17.266 OFFCURVE",
"755 144.5 QCURVE SMOOTH",
"826 234.771 OFFCURVE",
"826 364 QCURVE SMOOTH",
"826 615.141 OFFCURVE",
"713 740.5 QCURVE SMOOTH",
"644.642 816.335 OFFCURVE"
);
}
);
width = 1090;
}
);
unicode = 0070;
},
{
glyphname = thorn;
lastChange = "2017-06-09 15:50:33 +0000";
layers = (
{
anchors = (
{
name = "Anchor-1";
position = "{125, 0}";
}
);
layerId = "CB1E75F3-3DD4-4E31-8468-5A6CAC277236";
paths = (
{
closed = 1;
nodes = (
"823 105 QCURVE SMOOTH",
"685.383 -27 OFFCURVE",
"512.818 -27 QCURVE SMOOTH",
"450.636 -27 OFFCURVE",
"344 -4 QCURVE",
"327 -4 OFFCURVE",
"324 -28 OFFCURVE",
"323 -41 QCURVE",
"323 -468 LINE SMOOTH",
"323 -543.298 OFFCURVE",
"410.5 -567.5 QCURVE SMOOTH",
"447.717 -577.794 OFFCURVE",
"514 -587 OFFCURVE",
"533 -595 OFFCURVE",
"533 -618 OFFCURVE",
"523 -620 QCURVE",
"22 -620 LINE",
"12 -618 OFFCURVE",
"12 -606.5 QCURVE SMOOTH",
"12 -588.354 OFFCURVE",
"59 -581.5 QCURVE SMOOTH",
"167 -565.75 OFFCURVE",
"167 -468 QCURVE SMOOTH",
"167 1399 LINE SMOOTH",
"167 1440.9 OFFCURVE",
"121 1457 QCURVE SMOOTH",
"101 1464 OFFCURVE",
"55 1473 OFFCURVE",
"28 1481 OFFCURVE",
"21 1488 OFFCURVE",
"21 1510.67 OFFCURVE",
"36 1519 QCURVE",
"291 1639 LINE SMOOTH",
"303 1645 OFFCURVE",
"306 1645 QCURVE SMOOTH",
"323 1645 OFFCURVE",
"323 1621 QCURVE SMOOTH",
"323 826 LINE SMOOTH",
"323 815 OFFCURVE",
"346 815 OFFCURVE",
"390 843.5 QCURVE SMOOTH",
"517.368 926 OFFCURVE",
"654 926 QCURVE SMOOTH",
"749.789 926 OFFCURVE",
"830.5 847.5 QCURVE SMOOTH",
"935.032 745.831 OFFCURVE",
"970 564 QCURVE SMOOTH",
"980 512 OFFCURVE",
"980 395 OFFCURVE",
"961 330 QCURVE SMOOTH",
"923.373 201.276 OFFCURVE"
);
},
{
closed = 1;
nodes = (
"537 822 QCURVE",
"401 822 OFFCURVE",
"323 744 QCURVE",
"323 182 LINE SMOOTH",
"323 132.172 OFFCURVE",
"340.5 117.086 QCURVE SMOOTH",
"384.367 79.27 OFFCURVE",
"475 58.5 QCURVE SMOOTH",
"654.929 17.266 OFFCURVE",
"755 144.5 QCURVE SMOOTH",
"826 234.771 OFFCURVE",
"826 364 QCURVE SMOOTH",
"826 615.141 OFFCURVE",
"713 740.5 QCURVE SMOOTH",
"644.642 816.335 OFFCURVE"
);
}
);
width = 1089;
}
);
unicode = 00FE;
},
{
glyphname = q;
lastChange = "2017-06-09 15:50:33 +0000";
layers = (
{
anchors = (
{
name = "Anchor-1";
position = "{-125, 0}";
}
);
layerId = "CB1E75F3-3DD4-4E31-8468-5A6CAC277236";
paths = (
{
closed = 1;
nodes = (
"927 935 LINE SMOOTH",
"933 935 OFFCURVE",
"933 929 QCURVE SMOOTH",
"933 -468 LINE SMOOTH",
"933 -565.75 OFFCURVE",
"1041 -581.5 QCURVE SMOOTH",
"1088 -588.354 OFFCURVE",
"1088 -618 OFFCURVE",
"1078 -620 QCURVE",
"542 -620 LINE",
"532 -618 OFFCURVE",
"532 -595 OFFCURVE",
"551 -587 OFFCURVE",
"592 -582 OFFCURVE",
"618 -578 QCURVE SMOOTH",
"777 -553.538 OFFCURVE",
"777 -468 QCURVE SMOOTH",
"777 100 LINE SMOOTH",
"777 106 OFFCURVE",
"768 106 OFFCURVE",
"625.846 24.154 OFFCURVE",
"510.75 -27 OFFCURVE",
"448.375 -27 QCURVE SMOOTH",
"338.441 -27 OFFCURVE",
"183.708 115.187 OFFCURVE",
"100 326.55 OFFCURVE",
"100 427.775 QCURVE SMOOTH",
"100 631.565 OFFCURVE",
"382.496 927 OFFCURVE",
"581 927 QCURVE SMOOTH",
"704.323 927 OFFCURVE",
"822 863 QCURVE",
"829 863 LINE SMOOTH",
"848.444 863 OFFCURVE",
"892 912 OFFCURVE",
"911 935 OFFCURVE",
"917 935 QCURVE SMOOTH"
);
},
{
closed = 1;
nodes = (
"440 84 OFFCURVE",
"642.25 84 OFFCURVE",
"730 136 QCURVE SMOOTH",
"757 152 OFFCURVE",
"777 172 QCURVE",
"777 626 LINE SMOOTH",
"777 747.136 OFFCURVE",
"640.678 869 OFFCURVE",
"559.339 869 QCURVE SMOOTH",
"413.35 869 OFFCURVE",
"251 615.987 OFFCURVE",
"251 273 OFFCURVE"
);
}
);
width = 1096;
}
);
unicode = 0071;
},
{
glyphname = r;
lastChange = "2017-06-09 15:50:33 +0000";
layers = (
{
anchors = (
{
name = "Anchor-1";
position = "{-260, 0}";
}
);
layerId = "CB1E75F3-3DD4-4E31-8468-5A6CAC277236";
paths = (
{
closed = 1;
nodes = (
"678 717 QCURVE",
"666.021 719.396 OFFCURVE",
"642.51 730.198 QCURVE SMOOTH",
"560.235 768 OFFCURVE",
"466 768 OFFCURVE",
"363 651.267 OFFCURVE",
"363 604 QCURVE SMOOTH",
"363 152 LINE SMOOTH",
"363 76.702 OFFCURVE",
"450.5 52.5 QCURVE SMOOTH",
"487.717 42.206 OFFCURVE",
"554 33 OFFCURVE",
"573 25 OFFCURVE",
"573 2 OFFCURVE",
"563 0 QCURVE",
"62 0 LINE",
"52 2 OFFCURVE",
"52 13.5 QCURVE SMOOTH",
"52 31.646 OFFCURVE",
"99 38.5 QCURVE SMOOTH",
"207 54.25 OFFCURVE",
"207 152 QCURVE SMOOTH",
"207 681 LINE SMOOTH",
"207 722.9 OFFCURVE",
"161 739 QCURVE SMOOTH",
"141 746 OFFCURVE",
"95 755 OFFCURVE",
"68 763 OFFCURVE",
"61 770 OFFCURVE",
"61 792.667 OFFCURVE",
"76 801 QCURVE",
"331 921 LINE SMOOTH",
"343 927 OFFCURVE",
"346 927 QCURVE SMOOTH",
"363 927 OFFCURVE",
"363 903 QCURVE SMOOTH",
"363 741 LINE SMOOTH",
"363 729 OFFCURVE",
"369 729 QCURVE SMOOTH",
"376.797 729 OFFCURVE",
"409.898 775.5 QCURVE SMOOTH",
"504.932 909 OFFCURVE",
"567 909 QCURVE SMOOTH",
"602.391 909 OFFCURVE",
"747 852.627 OFFCURVE",
"747 834 QCURVE SMOOTH",
"747 810.632 OFFCURVE",
"701.385 717 OFFCURVE"
);
}
);
width = 747;
}
);
unicode = 0072;
},
{
glyphname = s;
lastChange = "2017-06-09 15:50:33 +0000";
layers = (
{
anchors = (
{
name = "Anchor-1";
position = "{-235, 0}";
}
);
layerId = "CB1E75F3-3DD4-4E31-8468-5A6CAC277236";
paths = (
{
closed = 1;
nodes = (
"555 684 LINE SMOOTH",
"555 662 OFFCURVE",
"521.667 662 OFFCURVE",
"512.833 686 QCURVE SMOOTH",
"488.689 751.598 OFFCURVE",
"394.48 854 OFFCURVE",
"324 854 QCURVE SMOOTH",
"232.344 854 OFFCURVE",
"200.5 761.5 QCURVE SMOOTH",
"190 731 OFFCURVE",
"190 665.353 OFFCURVE",
"273.544 584.266 OFFCURVE",
"466 472 OFFCURVE",
"510 433 QCURVE SMOOTH",
"610 344.364 OFFCURVE",
"610 110.4 OFFCURVE",
"438.25 -27 OFFCURVE",
"324 -27 QCURVE SMOOTH",
"263 -27 OFFCURVE",
"164 6 OFFCURVE",
"149 6 OFFCURVE",
"116 -27 OFFCURVE",
"106 -27 QCURVE SMOOTH",
"89 -27 LINE SMOOTH",
"83 -27 OFFCURVE",
"65 189 OFFCURVE",
"65 229 OFFCURVE",
"72 233 OFFCURVE",
"88 233 OFFCURVE",
"99 223 OFFCURVE",
"107 208 OFFCURVE",
"112 192 OFFCURVE",
"122 170.5 QCURVE SMOOTH",
"189.674 25 OFFCURVE",
"332 25 QCURVE SMOOTH",
"394.727 25 OFFCURVE",
"471 118.222 OFFCURVE",
"471 232 OFFCURVE",
"411 310 OFFCURVE",
"322 374 OFFCURVE",
"269.5 404.5 QCURVE SMOOTH",
"68 521.562 OFFCURVE",
"68 665.438 QCURVE SMOOTH",
"68 771.988 OFFCURVE",
"251.8 927 OFFCURVE",
"445.857 927 OFFCURVE",
"539.484 884.717 OFFCURVE",
"555 855.625 OFFCURVE",
"555 776 QCURVE SMOOTH"
);
}
);
width = 685;
}
);
unicode = 0073;
},
{
glyphname = germandbls;
lastChange = "2017-06-09 15:50:33 +0000";
layers = (
{
layerId = "CB1E75F3-3DD4-4E31-8468-5A6CAC277236";
paths = (
{
closed = 1;
nodes = (
"507 16 QCURVE SMOOTH",
"507 0 OFFCURVE",
"489 0 QCURVE SMOOTH",
"33 0 LINE",
"23 2 OFFCURVE",
"23 13.5 QCURVE SMOOTH",
"23 31.646 OFFCURVE",
"70 38.5 QCURVE SMOOTH",
"178 54.25 OFFCURVE",
"178 152 QCURVE SMOOTH",
"178 1066 LINE SMOOTH",
"178 1356.88 OFFCURVE",
"321.5 1511.5 QCURVE SMOOTH",
"445.396 1645 OFFCURVE",
"814.571 1645 OFFCURVE",
"1053 1434.5 OFFCURVE",
"1053 1282 QCURVE SMOOTH",
"1053 1088.38 OFFCURVE",
"854 964 QCURVE SMOOTH",
"790 924 OFFCURVE",
"708 896 QCURVE",
"708 892 LINE",
"880.621 857.476 OFFCURVE",
"996 752.5 QCURVE SMOOTH",
"1134 626.943 OFFCURVE",
"1134 438 QCURVE SMOOTH",
"1134 213.529 OFFCURVE",
"985.5 82.5 QCURVE SMOOTH",
"861.4 -27 OFFCURVE",
"723 -27 QCURVE SMOOTH",
"672 -27 OFFCURVE",
"610 17 OFFCURVE",
"610 79 OFFCURVE",
"644 118 OFFCURVE",
"692.1 118 OFFCURVE",
"783.9 64 OFFCURVE",
"813.45 64 QCURVE SMOOTH",
"872.775 64 OFFCURVE",
"950 254.917 OFFCURVE",
"950 390.458 QCURVE SMOOTH",
"950 780 OFFCURVE",
"712 848 QCURVE SMOOTH",
"649 866 OFFCURVE",
"546 866 QCURVE",
"546 903 LINE",
"795.01 927.594 OFFCURVE",
"866 1120.5 QCURVE SMOOTH",
"889 1183 OFFCURVE",
"889 1257.5 QCURVE SMOOTH",
"889 1404.22 OFFCURVE",
"736.814 1586 OFFCURVE",
"485.04 1586 OFFCURVE",
"334 1376.22 OFFCURVE",
"334 1213 QCURVE SMOOTH",
"334 172 LINE SMOOTH",
"334 84.917 OFFCURVE",
"398.935 29 OFFCURVE",
"489 29 QCURVE",
"507 27 OFFCURVE"
);
}
);
width = 1220;
}
);
unicode = 00DF;
},
{
glyphname = longs;
lastChange = "2017-06-09 15:50:33 +0000";
layers = (
{
layerId = "CB1E75F3-3DD4-4E31-8468-5A6CAC277236";
paths = (
{
closed = 1;
nodes = (
"652 16 QCURVE SMOOTH",
"652 0 OFFCURVE",
"634 0 QCURVE SMOOTH",
"85 0 LINE",
"75 2 OFFCURVE",
"75 13.5 QCURVE SMOOTH",
"75 31.646 OFFCURVE",
"122 38.5 QCURVE SMOOTH",
"230 54.25 OFFCURVE",
"230 152 QCURVE SMOOTH",
"230 758 LINE SMOOTH",
"230 769 OFFCURVE",
"218 769 QCURVE SMOOTH",
"109 769 LINE SMOOTH",
"97 769 OFFCURVE",
"75 784 OFFCURVE",
"75 809 OFFCURVE",
"86.5 816 QCURVE SMOOTH",
"103.517 826.358 OFFCURVE",
"230 860.293 OFFCURVE",
"230 899 QCURVE SMOOTH",
"230 932 LINE SMOOTH",
"230 1292.16 OFFCURVE",
"386 1486.5 QCURVE SMOOTH",
"472.765 1594.59 OFFCURVE",
"651 1654 QCURVE SMOOTH",
"705 1672 OFFCURVE",
"811.417 1672 OFFCURVE",
"953 1617.19 OFFCURVE",
"953 1578 QCURVE SMOOTH",
"953 1570 OFFCURVE",
"948 1558 OFFCURVE",
"945 1549 QCURVE",
"904 1461 LINE SMOOTH",
"896 1445 OFFCURVE",
"885 1445 QCURVE SMOOTH",
"881.75 1445 OFFCURVE",
"801.548 1508.29 OFFCURVE",
"713.129 1561 OFFCURVE",
"652.565 1561 QCURVE SMOOTH",
"536 1561 OFFCURVE",
"415.831 1440.83 OFFCURVE",
"386 1289.81 OFFCURVE",
"386 1199 QCURVE SMOOTH",
"386 172 LINE SMOOTH",
"386 29 OFFCURVE",
"634 29 QCURVE",
"652 27 OFFCURVE"
);
}
);
width = 659;
}
);
unicode = 017F;
},
